<mxfile host="app.diagrams.net" agent="Mozilla/5.0 (X11; Linux x86_64) AppleWebKit/537.36 (KHTML, like Gecko) Chrome/132.0.0.0 Safari/537.36" version="26.0.11">
  <diagram name="Page-1" id="oI_tLABPs_gmq6w3TGii">
    <mxGraphModel dx="6185" dy="2263" grid="0" gridSize="10" guides="1" tooltips="1" connect="1" arrows="1" fold="1" page="0" pageScale="1" pageWidth="1100" pageHeight="850" math="0" shadow="0">
      <root>
        <mxCell id="0" />
        <mxCell id="1" parent="0" />
        <mxCell id="z4DHmxEM3Tl0a3bXThNu-1" value="You" style="shape=umlActor;verticalLabelPosition=bottom;verticalAlign=top;html=1;outlineConnect=0;" parent="1" vertex="1">
          <mxGeometry x="-2904" y="-383" width="40" height="85" as="geometry" />
        </mxCell>
        <UserObject label="Deployed On Sef-Hosted Muli-Node K8s" link="https://longhorn.io/img/logos/longhorn-horizontal-color.png" id="z4DHmxEM3Tl0a3bXThNu-6">
          <mxCell style="swimlane;whiteSpace=wrap;html=1;fillColor=#66B2FF;" parent="1" vertex="1">
            <mxGeometry x="-2306" y="-758" width="1198" height="1229" as="geometry">
              <mxRectangle x="-2213" y="-753" width="130" height="26" as="alternateBounds" />
            </mxGeometry>
          </mxCell>
        </UserObject>
        <mxCell id="z4DHmxEM3Tl0a3bXThNu-16" value="" style="verticalLabelPosition=bottom;verticalAlign=top;html=1;shape=mxgraph.basic.patternFillRect;fillStyle=diag;step=5;fillStrokeWidth=0.2;fillStrokeColor=#dddddd;fillColor=#99FF99;" parent="z4DHmxEM3Tl0a3bXThNu-6" vertex="1">
          <mxGeometry x="1.5" y="24" width="1073" height="1203" as="geometry" />
        </mxCell>
        <mxCell id="z4DHmxEM3Tl0a3bXThNu-44" value="" style="group" parent="z4DHmxEM3Tl0a3bXThNu-6" vertex="1" connectable="0">
          <mxGeometry x="86" y="95" width="143" height="143" as="geometry" />
        </mxCell>
        <mxCell id="z4DHmxEM3Tl0a3bXThNu-45" value="" style="shape=ext;double=1;whiteSpace=wrap;html=1;aspect=fixed;" parent="z4DHmxEM3Tl0a3bXThNu-44" vertex="1">
          <mxGeometry width="143" height="143" as="geometry" />
        </mxCell>
        <mxCell id="z4DHmxEM3Tl0a3bXThNu-46" value="" style="shape=image;html=1;verticalAlign=top;verticalLabelPosition=bottom;labelBackgroundColor=#ffffff;imageAspect=0;aspect=fixed;image=https://cdn1.iconfinder.com/data/icons/ionicons-fill-vol-2/512/logo-docker-128.png" parent="z4DHmxEM3Tl0a3bXThNu-44" vertex="1">
          <mxGeometry x="9" y="6" width="28" height="28" as="geometry" />
        </mxCell>
        <mxCell id="z4DHmxEM3Tl0a3bXThNu-50" value="" style="shape=image;verticalLabelPosition=bottom;labelBackgroundColor=default;verticalAlign=top;aspect=fixed;imageAspect=0;image=https://www.vectorlogo.zone/logos/cloudflare/cloudflare-ar21.svg;" parent="z4DHmxEM3Tl0a3bXThNu-44" vertex="1">
          <mxGeometry x="26" y="34" width="96" height="48" as="geometry" />
        </mxCell>
        <mxCell id="z4DHmxEM3Tl0a3bXThNu-51" value="&lt;font style=&quot;font-size: 12px;&quot;&gt;Running Cloudflare Tunnel&lt;/font&gt;" style="text;html=1;align=center;verticalAlign=middle;whiteSpace=wrap;rounded=0;" parent="z4DHmxEM3Tl0a3bXThNu-44" vertex="1">
          <mxGeometry x="20.5" y="96" width="102" height="34" as="geometry" />
        </mxCell>
        <mxCell id="z4DHmxEM3Tl0a3bXThNu-52" value="" style="group" parent="z4DHmxEM3Tl0a3bXThNu-6" vertex="1" connectable="0">
          <mxGeometry x="314" y="95" width="143" height="143" as="geometry" />
        </mxCell>
        <mxCell id="z4DHmxEM3Tl0a3bXThNu-53" value="" style="shape=ext;double=1;whiteSpace=wrap;html=1;aspect=fixed;" parent="z4DHmxEM3Tl0a3bXThNu-52" vertex="1">
          <mxGeometry width="143" height="143" as="geometry" />
        </mxCell>
        <mxCell id="z4DHmxEM3Tl0a3bXThNu-54" value="" style="shape=image;html=1;verticalAlign=top;verticalLabelPosition=bottom;labelBackgroundColor=#ffffff;imageAspect=0;aspect=fixed;image=https://cdn1.iconfinder.com/data/icons/ionicons-fill-vol-2/512/logo-docker-128.png" parent="z4DHmxEM3Tl0a3bXThNu-52" vertex="1">
          <mxGeometry x="9" y="6" width="28" height="28" as="geometry" />
        </mxCell>
        <mxCell id="z4DHmxEM3Tl0a3bXThNu-56" value="FastApi App" style="text;html=1;align=center;verticalAlign=middle;whiteSpace=wrap;rounded=0;" parent="z4DHmxEM3Tl0a3bXThNu-52" vertex="1">
          <mxGeometry x="30" y="111" width="83" height="30" as="geometry" />
        </mxCell>
        <mxCell id="eE7FysRdT_OkTbgdI72M-8" value="" style="edgeStyle=orthogonalEdgeStyle;rounded=0;orthogonalLoop=1;jettySize=auto;html=1;" parent="z4DHmxEM3Tl0a3bXThNu-52" source="z4DHmxEM3Tl0a3bXThNu-63" target="z4DHmxEM3Tl0a3bXThNu-56" edge="1">
          <mxGeometry relative="1" as="geometry" />
        </mxCell>
        <mxCell id="z4DHmxEM3Tl0a3bXThNu-63" value="" style="shape=image;verticalLabelPosition=bottom;labelBackgroundColor=default;verticalAlign=top;aspect=fixed;imageAspect=0;image=data:image/png,iVBORw0KGgoAAAANSUhEUgAAAgAAAAIACAYAAAD0eNT6AAAAAXNSR0IArs4c6QAAIABJREFUeAHtnettI8e2hTkUA1AICkERHCiCgSO4cASGIzCgP+pp4gCEALY4/waOwHAEA0UgnAiMicAhzEW11BJFscl+1GM/PgOGNBTZrFq19tprV1dVLxb8BwIgIBeBZn29+vrf/yy39W+rr+s/Vrv19/b/pn5a7eqfcv5/btey+fIttPPi6/r/QrsXu+pKLri0DARAAARAAARKIfCS4J8T5vqPNoHu1t+XTf2vnOQewWi0hmX9ffW13rQG4aH+jEEoRTq+FwRAAARAIB0Cm81lSHDP/6//CEmvS+7PVXyEpCpqBiBGf15mN15MwvOsx3//s2jW1+kGiiuDAAiAAAiAwEQEQpIPyeotwcdIhlzjcAZkuav/+fS1/qubQVhsNpcTh4yPgQAIgAAIgMAEBJr1dUj4bTIyV4UrMx7h1sLXenPxUH/GEEzgMh8BARAAARA4gsDLNH53fz5M3Zu7N2/NwDT1U5iJeb19wCLEI8TmJRAAARAAgTcEdtVVqCLbRWokekG7C2LNSDwvQAxmjp0Jb7TnNxAAARDwiUC7Ar/erMRtqYuV9LjO4TqC7t9hPcHrrQOf7KfXIAACIOAMgZek3yYAa9Pf9GfSzEW4rRNuG7TrCJyFA90FARAAAZsI7KqrsEI/TPu294VD1UeSnJQkveAWzEC306DbxmkzOOgVCIAACFhCYFdddavzWazH9H9M0xJMQbt+gK2HlhSDvoAACKhGYLO5bFfpcx+fyj7D7E53u4DDiVSrBo0HARDQjEC4X/t88A6VbsxKl2sN51NYRxJmnNhVoFlJaDsIgIAOBLoFfNbOyc9QuZLYhyf2KVh1uwqYGdAhJbQSBEBAAwLtQr56w6r9tAlsStLjM8fHBDOgQVhoIwiAgEwEXhbzsT//eIIh8erB5dkMrP/gNoFMqaFVIAACEhB4WczH+fp6khtGZOxYrb+zk0CC2NAGEAABEQisdtVNu0ef+/qs4neyFoKdBCKkh0aAAAiUQoCte2OrR95vcsahqZ+YFSilQnwvCIBAPgTap+ut/+CQHpK5yWQ+YwajmxUIM2L5ApJvAgEQAIHUCIRFfc2Xb4g+iR8OnOdAWDjYzgqkjkuuDwIgAAKpEAjVzGq3/o7onxd9MAKjQw4EI9AeNMTxw6kkiuuCAAjERoD7+ySzw2TGv6dzor1l9nX9xwIjEFuquB4IgEAUBDaby1CttPueZ9wLJVFMTxRgZxs7jEAUpeIiIAAC0RBgYR/b9zB8WTmAEYimXlwIBEBgEgIk/qyiT3Vvu7qfMr4YgUnKxYdAAATmIBDu8bfiQ+WHCYADxTmAEZijZnwWBEBgEAJt4t/V/0ypVvgMFSwcSMsBjMAgGeNNIAACYxAg8acVbhIj+MbkAEZgjLrxXhAAgaMIkPhJTDETE9fKyyeMwFFZ40UQAIFTCLQP6GGqv/i9XRJm3oRpFW+MwCm1428gAAItApzcR8KxmgTpV/3z1QigdyAAAiDwisCuuuLIXpI/SdIHB3jWwKvy8QsIOEYgnN7HQ3qY6mcrn0sOtEbgof7FsQLSdRDwicDqK4/lpeL1UfEyzufGef19sauufCohvQYBRwiwwO+cGPJ3EqY/DrA+wFESoKsOEdhVV5++1n8h7v7EnTFnzAdzoKmfQpHgUCHpMgjYRKB9Sl9T/ztYBLgn7PKeMPzAKLxy4Gu94fHDNvMBvfKCAKv7SeSYOTgwkQPPj/ZmNsBLuqCfhhCg6qeae63mJiYAPg+HAgfCrUNmAwwlB7piGIFmfb1q7+MhXiQwOAAH4nAgLBK8YMug4cRB13QjsKuu2NMfR+xIGuAIB45zgNkA3WmC1htEIOzpR7COCxa4gAsciMsBZgMMJhG6pBABpvtZ4MX9fThQiAPMBijMGTTZBgIs8otb1VAlgiccGM8BZgNs5BN6oQWBzeaSA33GCxXiDmZwIB0HmA3QkkBop14EmvX1897cdIGMSIItHIADUzjAuQF6UwstF45AmPKfEpR8BjGHA3AgKwc4RVB4NqF5ehBgyp9FXoUWeWVNGvTRFs+b+mnRrK/1CC0tBQFpCDDlb0sUnSW55bb6sXyo/vy0rf8Ov2MofM1EhAWCYeZSmqzSHhAQjwBT/r7E0lpyDIn/MMiCEbDWT/pzPk5ZIHgYCfwbBPoQYMqfql/5TEGo9o/Re7W9uyVhnk+YFjEKCwS5JXAsKngNBDoEONiH5K88+YfkddFUv3aU3v+JAfCZ/PcNDbcE9iOC30HgBYEgmuGe2X6w8DuCqY0DgcN9T45bPtS/a+sP7Y0fg9wSIO2BwB4CPMQnvsgg3IUw3d7d7lH73a+rXXXDuBQaF2kzS+wSeBcb/MMjApvNJY/uRRAtJcXFrrrqC2UMAFzf53p7jHDP7aI+DvE6CJhAIIghU/4I4r4gav/92Mr//WDFAMD3oxwPBwfxHwh4QYAtfgjhUSGUNk07sj2nqv8Q2xgAeN/P+/X3vrUjXvIC/bSOwGZzyf1+RLBfBPVic676xwDoHdtsfGVdgPUM6Lh/u+qK+/2IYDYxHVm9z23XueofAwD3h3Ds+bZodeM4U9B1cwiEI33Z4sce/8xJeYjgxnjPkOofA4ABGMO1vrMkzOUGOmQbgUDkMcTnvQilNg4Mqf4xAPB6NK9ZHGg7OVrvHckf0RstespmCYZW/xgAYmFKLIQ1U9bzBP0ziACL/RC8KYKn7TNDq38MAPEwmdthceBmc2kwTdAliwiQ/BG7yWKnaAZgTPWPASAmZsUEJsBiqjTWp3Cy3279fRbRFSUA+ulb1MdU/xgA31yJohVsEzSWMC11h2N9WeXvyLyNrf4xABiAGCYg7KbiscKWEqeFvrDHn+TvKPkHIR9b/WMAMAAxDEC4BibAQtK00gf2+JP8nSX/KdU/BgADEMsAdCYgHC1tJY3QD40IkPxJ/s6SfxDfKdU/BgADENMAdNfiwCCNidNCm0n+JH+HyX9q9Y8BwAB0STv2T0yAhYSqqQ8kf5K/w+QfhHtq9Y8BwADETvz718MEaEqgmttK8if5O03+c6p/DAAGYD9hp/gdE6A5sWpoO8mf5O80+QfBnlP9YwAwACmS/uE1MQEaEqnGNpL8Sf6Ok//c6h8DgAE4TNap/o0J0JhgJbeZ5E/yd5z8g1DPrf4xABiAVAn/2HUxAZITqqa2kfxJ/s6Tf4zqHwOAATiWqFO+hgnQlGgltpXkT/J3nvyDQMeo/jEAGICUyb7v2pgAiYlVQ5s2m8tw5GQfsXgdQXPBge3dbaxwDSe3ucAM0yiscODEwFgx7OM6PNhHWABjNkokzvbM9YjPYccAwONiPG7W1z6SF72chwDJn+RPBffMgYjVfxuU7eOySYIlkqD37+QBQvPSoo9Pk/xJ/iT/lgOxq/9OQLwnIvpfzgBiAroo5OdRBD59rf8iQMsFKNgLwj529f8ScYyxoDF2aHaXu/qfRcTbWkcTCS/qQ2DZfPmGOCFOcODleeuJRBJ8ibHiHGjqJ0yAvhydrMUkf0SpuChJqsYSVf8hgMGZWBPBAUxAsnyq6sJhn6gIQkpKALTF7VqIVPf+O1Eg1jAAYjiACejC0udPkj9iJEaMpJiuhNV/UBnwJuYkcSDM/vrMfs57zZ5khEiSEEloS+rqHwNAzEng+Yc2NPW983TorPsc8et2ivtD8EupvCW0I3H1jwHAAEiNP44M9uIB2OtP8peQbIW1YbmtfuSQAKkJgHZhTsKscI4Y4DsKIrBq6ieCnWCHA+85kKsCAvf3uIOHHDw4KKhgYs7x1Wz3kxNsCJ+cschV/YcYZ9zljDtj8XEsOCgoRyYu8B2r7d0thP9IeDABk1zVPwYArqnQG7YHFsjQCb+S7X4IjwrhKbAuIGf1jwEgDrXEIdsDEybkrJdmxT+L/gokVi1Cl7P6xwBgALTERdtOtgdmTdXxv2yzuQz3dFSRjmSFYcnEgdzVPwYAA6BNiy8e6l/iJyaumAWB1W79XRvhaC8imYsDuat/DADczsXtWN/DzoAsqTr+l6ya+j4WCbgOwmWNAyWqfwwAcaQyjlgUGD9Bp7wii/4QGpVCk2nq/xmbMoeeMC7EpkYOsCgwZcaOeW0W/XEPPWsi1Sjo1WPMkBtzLY3iT5s1cjx+m5cP9e9juM57cyPAoj+SP8l/AAfKVP9BDkim8RMTmObEtFzs5E6n6r7v09f6L4IhZzDwXfr4Vq76xwAQL/ri5f2Y5XhiprrEK6HBYXpGO7lo//tgA48UeJStYBjTFGPKNbPyKiwK5D9BCDTr66wEYJp5wDQzoiSPk2Wr/6AY8jCBp4zJBA5keHS2oAwruCnc9ycZY8gGcqBs9Y8BmJBo4PZAbpfAtnw8Cc7MeZrGff8SxOc79VVN5at/DABxoy9u+seMJwfmyfG938J+/35yWgo0+hJjnGVUK4xljLHkGlJ4xPkAvek58R/Y7y94agyBkiJQoR3Lh+rPxNE4+PKScKEtxGkMDvC8gMHhH++Nq6Z+ijF4XAMRsM6Bxa66ihd5865kHWv6509P2q2BgmJsXoQq+PRqe3dLoPkLNMZ8/JhLqv6DtDCG48cQzDRgtv6uIHUaaCJb/pj6Z2X0YA5Iqv4xABoSGW2cbLjYGpjeYDD1T4BODlBnxkFa9Y8BIHatx+6iWV+nz4JOv4GpfwTEuoDE7J+06h8DQPzG5LfIa3FKYCJ3wtT/4GlfkYHhrPouPQYSq38MAAagdFzk+H6eGpjAAzD1j3jkCF4r3yGx+scAEMNW4utUP9gVENkAMPWPcJwKOP52wI+mvo8cgtEux1gdjBUzY0ZnNtkVEEc0dtUVooFowIFhHJD+uFLGcdg4gpN+nMJJtXGSoOOrrHbr7wSD/mBgDDONofCtSPAgEw+YWSg+syDdjIu3FWExBYKBYMCBYRzQIDiM5bCxBCcbOIWH1YlPtCIbGB7z29T/Egg2AoFxzDCOwqv/oDPwIAMPqP6LV//veS7jQVwi83xfo3jML0LxPojA4xQeGqp/DAAcPsVhq3/jscF9Wb7n9fB0JatkoF+IYBIOKKj+MQBwPwn3Ncx4KInPnpSc8eUw9b+r/3FLFA1kpo2iphi1VP8YAAyAV11vY5QnBp43EqumvvdKEvqNQE7igKLqYlL/MJyiDCdjOE2npJ7OeT4rZ3rHalfdQK5p5AI3n7gtt9WPTOEZ5WvgqU+eMu7duLMgsFdIOO63Iwk/EYxhHNB22AjjOmxcwckoTjws6Hj+D0IG6Y2SnincJFO42qr/EPnEODHunQPaTPvxjB3zVfb8J0kQ3gPNev81Con1MaF/GJxzHNC0aDdmmu+9Fg/7IWjOBQ1/f88RjdV/EADG8f04godTPAQ/sKs3USf5w666Co6IQHAaCNwemDT7o7H6xwAQ4+j8GwekPrI7SZ7vu2jYGgEp3kgBFmBxjgNaq38MANw+x21Pf2dbII/6nVT9eQoS+voxaWit/jEAH8cSfnvHxPG2QKp/7+Sn/+MTQPXYN5um4fXx/YUjYGaZA+vvGuI2fhup/qn+uf8/gQO6KwaSmeVkRt+m8Vt3TE8yB6vd+vs0sCAZuHnlgO7qPwgF3PXKXfrdz31nswAc+Usw9AcD2PRjo79S6O8b4w42fjkQnoA7qZLW+CGqf79ER+Smjr3+6p8ZgKljz+es60Z4Aq7GXD66zVT/BLP1YE7TP/3VPwaA2E8TGzZw1by7Z7ARoPq3QVYCOec42qj+MQA5OcN3adMo87MAVP8EpbaglNFeG9U/BoD4lxFPcsdh+VD/Pria1vZGqn+5xCMwpY6NneofAyCVY7RLiv61DwrSltiHtJfqnyCTEmSa2rFo1tdD4kvLezRhT1vRrBIcMLkWgOqfYCoRTJq/0+JZ4ZrHg7ajYTk4YG4tANU/gZMjcKx9h8WnhVkbI/qDtqXggKlZAM78J0hSBInla1qs/sNtCstjRt/QuVgcsDMLwJn/E857J5BiBZLW61is/jEAxLXWeCzRbhOzAFT/BH2J4NH8nVarfwwAWqA5LnO3Xf8sANU/1T9P/BvNAavVPwYAA5A7iWr/PtWzAFT/BLz2AMzdfsvVPwYAPcgdT9q/T+8swGZzGQ410D4AtB/RyskBy9U/BoBYyhlLdr5L4Umgq+3drZ0BIHAZy/QcsF79YwDSc4g4tYjx+nuIHVX/Uf1bJCJ9SiWw7RGgm82lqiCf0NhU+HFdYtM2BxTNAoSFC7YHg2BjfCNzYHt3OyGfqvsIvInMGxbZjl5kq5ODimYBVk39pBNkgpNxy88BL9V/cCvwKz+/wNwK5gpmATj21wrZ6Ec24XRS/WMAiKlsMWVwZuTTtv5b/JRfaCSDTKDDgWEc8FT9YwCGcYLYAac+DsjeJcTBP07uRxGgfQE6+nVH1T8GgLgZHR8GK/k5GIjeKcTBPwT4HHJ7+6y36h8DgD54i/EU/ZU5C8DBP1T/uPVxHHBW/WMAMAApEqK3a4qcBeDgH4LbWyDO6a/H6h8DgEbMiRk++8afhbQzQ8KZxQzQ2wCBBVic5IDD6h8DQEycjAlmEAfPIC4f6t9DPIn47+Kh/oWBJbjhwDAOLLfVD3EOPpOSwJFhHAEncDrNgeoxU8ie/xq2/kHW02QFn318VD/i87wcnHzHPg78TlzAgWkcaG8hnoy0XH9k69/gaRvIPo3slnBrq/9csSnweyyNJX0hnktyQMRugHAvoiQIfDdBqIkDnqv/4Ec0jRVtRVskc0CElnDuP0EiOUgktc179Y8BQCskxaP+tpR+QBDT/0z/s3J3MAdEOPbCtwX0iy5JnDGUw4GitwFWTX0PGeSQgbGQOxZU/8/OA47K5Shjo3Bsmvq+mKdn779CwlCxD67YYwoi1T8GICafuBbaGzhQbjdAs76GhJAQDpznANX/W40CX87zBYzAaAwHihQXTP9D0jEk9fzecFDWWwr0/ZtnHtB3NDMNBwosBmT6HzKnIbM1XAWd2CXAe8AZa/ymPxI4nXcxINP/Re4jSyAabRgreNWNgLwrpgnwZyx/eD+cGcCBnIsBmf4fMCAstsMk7aj+D50HYo52wIH4HAgz8oexluzfTP/HH0CCwiKmVP+HIgTPLfKcPkng9aJZXx/GW/R/r3bVjYTO0gaCTjYHqP6PiY/sMSOmGB+9HFg+VH8ei7mor4UvgSR6ScLY5Ro7qv9jwgP/cvGP7/HGtSxnAoQv8QYs/UVMxnGA6v9Y8g+vjcMR3oEXHBjDgaS3AcJ+5jGN4b2Q1ycHqP4xAMS+z9gvPO4pdwOw+r/w4LKzQMHOAqr/vuTPDAD6gSlIzIGmfjoVf7P+xur/xINHgleQ4E9zIO+BHLPCuciHSQCn+QM+4DOXA2k0iMN/1CenucTi86fFKcsq3CJpO96XwqHTHAIf8JnLgSRHjy8f6t/nNozPQ27LHEjjvOMlXwlXsjz+9A19E8GBFOsAPm3rv0V0jmlyZiIEcoDqf5i9QENIknAgMQdSrANg+1/iQROY1AjU4WNO9Y8BIF6GxwtYpcVqsdlcDovIIe/i/j9VNwallwNU/0NE5Pk9CH9a4Qdf8H3mQMStyNz/h1QISz8HqP4xAMRHf3yATQFsYq4D4PjfAgNIxd1bcUsSFKr/4ck/vFPS2NEWdM0sB2KuA2D/P4FiNlBmGi2qfwwAsYE+SuRAHG3i/r+KSlQiAc23aXt3Oy798W7znJhpKMEHMxGNAzH0ifv/EDIaIQ2JY/vkragrbX2YA7iEnsCBPBwIM/ezVWXV1E8MWJ4BA2dFOMdw17OjU98F4Lgijhsy7F55N+9UwF115RU4+o1Q9XGA6n+68ejDlNeJNzgQnwOzFikz/R9/QCC5AUyp/ic7APhvgP/MDKhZFzbrNgDT/wQrgv2eA1T/k3N/+0H49J5P4AEeqTkw7VRApv/VuLzUBOL6eyJF9T/LAcClPS5RSaOxWTgw4VTAsHiAYCVY4cAbB6j+Z+V+ZgCyiP0bX4ldsAgcCLfyR0fuant3C4EgEBzY4wDV/2gdOfxAMFFwao9TmAJmAVJzYIpu8fhfghShfuPAclv9mHYv7TAF+v73alc9wqs3XoEFWKTnQPU4WnUIVIiZnph6ML5oql9HBxEf+IAAuqKH88S/jbGatBOAHQA2Bp8gnj+ObfX/IZXxwhQEMADz+UhMg+FYDoyO1bFfwPshpVUOUP2Plo/eD2AA0AmrOiG7X2N2AvAAIBampF6YouT6VP+9uXzSHzAAGADZidLm+IzaCcAWQJskIPDGjyvV/6Q83/shDMB4DhK3YDaXA6OOBGYLIISbSzgLn6f6783jk/+AAUBbLGiDtj6MWghIkBKk2gieor1U/5PzfO8HV019n2KsuCaaBQdOc2Cxq656A3P/DwB5GkjwsY8P1f++IsT7ndlF+7GDPsoc42EFDQsAWQCoZIFeWqEZs2o2XoK0fiUMgMzkkDaW6LMEfAetA+ARwJBVAlnLtmHCyVnWM3es/rUFRjgNkP/PY4AWldUBW/gPWgcQXAKg2xp4xnPseFL9x8r3XCcBAs8m6iZM6a529f+I77Hx7ff9Z9cBcAKgX3IgJGHsqf4TpCwumQoBHtvOLdsRt2zDFv+TVCQJYAB8c4Dq/6RA8EdxCLBrC80erNmnngy42lU3gy80wnVwTQiqgwNU/+KyGw06iwALK9HXofoanvLbS6iXe0pMqWBunHKA6r9XHPiDWAQ4WwEDMNQAnFwIiJOESEOJZO99VP9iMxwNO4kAtwDQ7TF63EsmiASRxhDJ1nup/nuFgT/IRWCzubQVh2hw+vHs0bowPZD+yxlgMJbFgZP3xeRKPy0DgQWztrK0RIO29+4E0NB42gjhY3Pg7N5YEg0ISERgV10tm/rf2PHA9Yxr7NGdABwB7HThm3Gyn1nQOeh4TIniT5vcI8Chbb61a6pRO6p5bAGETFMJpflzVP/u86hOACjYKNjOFDf9unxkwTPPAMAA9BPGJjZHnbDOdECrnSGw2q2/e4tX+htHh49uBWQxSRxwIakeHKn+nWVNI91ltlaPxkjNBx9CIayEltpY2gXhY3OA6v+DBPCCEgSo/tHDuXq42Gwu39GdMwAg1VxSafo81f+78OcfShCg+ken4+jswVkAbCeBWHGIJR9Hqn8l2Y5mfkCA6l++vujQ0QMDoKPRDD7jNJ8DVP8f8govKECA6n9+7KOfLxi+OwuAZ0qzpWTylhJlQdnU9wq0niaCwAcEqP6VaY1kTd03ADhLiOXBGYfbXB8Wv3yQWV4AAXkIoNFodFSN3i+EIBfkikouqc533/XK03haBAK9CPCcFjQ6rkbvHQbEGQCQKy655OFJ9d+bW/iDcAQumupX6/FJ/3JrJgaA+/5SK/UU7aL6F57maF4fAlT/uZOj/e97dxpg2BaFA7M/6F7HmOq/L7XwunQEqP7R5VS6/cp9DgGCZKlIJuK6VP+vsc4vuhCg+kebU2noayRgACBZKpKVvi7V/2uY84syBKj+0eWU+vm6IyqIZMov4toQuRgHqP6VpT2a2yFA9Y9uptXNl9MA034Jgwi+ZThA9d+lEn5qQ4Dqv4xm+NJqDAA7AVKsuJdyTap/bXmP9r4gQPWPAUhvRoIBaNbX6b+IwQTjvBxYbqsfZBMQ0IgA1X9erfCqzYFnC04BhGwWA6Alt0b1p83uEaD6R5OzaHKYIcUAQLYsZMt4W4Dq330OVQsA1T96nE2PgwGAcBAuG+EymQCqf7X5z33Dqf7R42x63M4AbO9us31hpgRAf/wGEdW/+xyqFgCKMb+6VSRnYQAgXBHiJTSCVP9q85/7hlP9o8c59fjTtv57wZMAIV1O0qX8Lqp/9zlULQBU/+hwSm08fu3qccGDgCDecXLow4XqX23+c99wqn99eqNfN6vHsAvgUX9HII/3MaT6d59D1QJA9Y9+l9FvDAAnASa8H5+T1FT/avOf+4ZT/WMAcmrl23dhADAAJgxA9eg+iwCASgSo/kn+bwk5NxYYAAyADQNwo1L9abR7BKj+cyc9vq8zHIF7i1VTP3Uv8BNy6OMA1b/7LKoUAKp/9La03i5KN4DvJwjmceDlkZZKkwDN9osA1T/aN0/75uOHATAxBT6fCKWJOO37qf79pk/dPef8Fa+aJavfGAAMgOJ1EFT/utOg09ZvNpfLpv53mumVlUDog+7xwABgAJQaAKp/p+lTfbep/nUnTUumBwOAAdBqAFj5rz4VOuwA1b9SvbFpWjAAGACFAUn17zB1mugy1b/NRKp1VgADgAHQaACo/k2kQ2edoPpXqDW2DQsGAAOgKijbR1g6yxt01wYCVP+2k6nGWQAMAAZAlQFY7KorG+mAXrhCgOpflc5oTOZT2owBwACoCczw6GpXSYPOmkGA6p/qf0qCTv0ZDAAGQI0BoPo3kw99dYTqX43GpE640q6PAcAAqAhOqn9fOdNSb6n+qf6lJf6uPYvVrnrs/sFPiCqVA1T/llKio75Q/asoMKTqXup2YQCYARAfoFT/jhKmsa5S/VNUpU7ic66PAcAAiDcAVP/GsqKX7lD9i9eWOcnTwmcxABgA0UFK9e8lW9rrJ9U/1b90k4ABwACINgBU//YSo4seUf2L1hXpiTlX+xarpr7P9WV8D454FAea+t5FsqCT5hCg+kfrRmldoUJ0AVEhqkSihuelLzabS3OZgQ7ZR4Dqn+q/UEIfo+XLbfUDA6BgoMYMqpn3bu9u7WcKemgRAYoqiiodOlw9YgAwAOLcOtW/xbTopE9U/+L0REcyLmGaggHYVTcAVAJ8vrOXd1T/TrKlvW5S/aNrvbomrtjEAOBWhZGS6t9eUnTTI6p/9FSYnp42IxgACCuNsFT/bvKltY5S/VP9n064svB5PmNlV11pajRtlUWimONB9W8tJTrqD9U/xZS0Yupce7piK6aIcy27CTr52HaEdJQ36KoNBKj+0b3k+nguoY/9e6e36ho+tqOl8Y9BAAAbnUlEQVS8X7w7p/q3kQhd9oLqX7y+kOM+GrTlQ/17G6/hQAAA+ggQmOTD5KKpfnWZPOi0egSo/vPpBJocE+vqpg2+1a56BNiYwHKtMXxqT6RSnwbogEsEqP6p/tXOMGMAIK8A8lL9u0ydJjpN9U+xM6bYkfTe1wDkgUCQuBQxqf5fw5BftCFA9U8BJaCAmqrdr+GGi8UATCXR3M9R/b+GIb8oQwDdRDfn6l/Bz//vNdzCasCCDcFFKnaRc3hD9f8agvyiDQGqf3RbtW5Xj68hx/MAcLJzEvnUz1L9v4YgvyhDgOofzZyqeyI+19T3ryGHAYDM+Um550BfmcgvIKAAAap/qn/V1X/9MxjYd5GWPwGQdH1j/rIF5R0L+QcIyEeA6h/t1q/dB/qrv0OQUs8YUv3LT3O08CgCVP9U/9qr/7b9Hw3A//QkEJK97rE6IN9RpeVFEJCHANU/2qtbe5/H70NkcRogxM5DbKr/D8HHCzoQoPqn+jdR/dc/PwRceDZwngRAovWM86JZX38gHy+AgAIEqP7RbhvafaQIg9yQOzW5g8lUoPM0EQQ+IkD1T/VvpPoPs/0fCB72ZKdOAFzft8lY7KqrD8TjBRBQgAAFkm/tMpW7DrcAhvjjLAAInpTkx0inQPhpIggsqP6p/s1U/0fOAGhDfLO5TJoALAFIX8YKwtu50+QTEFCGANU/xZGt3NizC8tWJyGtnPHsIZyyREBzHSJA9T/W7PN+8QVijx6zFRDTENs08MAfh0nTUJep/tHE2JpY+nrhltbREP20rf8u3Ti+31jA7T904ijreBEEhCJA9U81L76aH58veqMNtzseTAzLacwuHupfegnHH0BAMALo4enYRvsU4tPUT70hF8SaQVU4qKJdas/9pl4W8gcQEIAA1T/Vv2hdnZanwix/f3Q162sMwDRgwa0PNwxAf8DxF6kIUP33xTOvq9b6c9uxVXfOoGPTPx4YAKlJjnb1IED1T/VvNJdcPNSfe1j//DI7AXC4MU3Hp6/1XycJxx9BQBgCVP9oYEwNlHSts6exrpr6XlKDaYv+YAxbAZfNl2+rr+s/nv//739WX/v/P0tSYQmD5hhCgOqf6t9o9b9s6n/PRmqYIiDp6k+6jKGDMWzqJ3ZZnJW0UW+g+ncQN0YT/HnNP/IQoA/Rsauuzl8IkoARHBDBgXOLej4EOC/0IkD1T/Vv2RwMPZMlTNmKEDfLg0HfEJsYHMAA9ObzsX+g+sfUW8574Ym/g2KCEwEJBMuBYKpvGIBBmnb2TVT/GPIYhlzwNQavrcIJYwBMJUnBQTkbZwzA2dw+5A1oHpo3OxYF68ygBYBdoKx21Y1lMOgbwW6GAxiATram/6T6p/oXnLzjaNWQBYBdCG02l3G+lEQDjnAgKQcwAJ1qTf5J9U+MJo1RCeZirE6EKQPzoEgYGNpA9TGHA2MDe3KaNPpBqn/ib078qfnsyBNZOREQV4wBVMABDMAsZ0L1r4DjapKsXCwXm83lqEDBAMgdTBIzY/PKAQzAKF1792aqf6p/D+bi1COA3wXE3j84Epgk85pkPASJ1j5iAPZUa9yvVP9onAeNWz5Uf46LjMViEQ4N8AAOfUQEVHMAAzBa29oPUP1T/Ws1/SPbPfgAoHeR1KyvVQvjSJDoK0ZAJQcwAO9ka+g/qP6Jd5XxPiGvDT4A6DB42AlAkHgJErX9xAAcytb5f1P9U/1PSKQaNSIc638+IHreEe4daOw0bca4uOEABqBHvfpfpvpHH7zoQ3gMe38knPlLeNSoF6DoJ6KgkgMYgDMqdvBnqn+qfyfVf9Czaff/92JGpSg6GmDGx7lxwQDsqdX5X6n+nceLs9ww+f5/F0o8GZCAwWQI5gAGoJOq8z+p/qn+HRmAWff/u2hiO6Bg8XdEZkxIDw8xAJ1Unf1J9d/DIXTEpDGadf//NZp4MJBJcpBQjYghBuBVqk7+QvWPjjkzOrPv/3cBtWrqJxKGkYThLAjM8xYD0MnUyZ9U/+iXeS040PbZ9/+7iCJ4CB5vwaOmvxiATqb6f1L9U/0fJEc18T2x3VHu/3cRdfFQf7YOGP3D5KjkAAagk6nenxQwxLbK2J6Y/ENf49z/fwmp1a668QYg/UU0VHAAA9Cb+Ns/UP1T/c9IpCo04Ej/ot3/76JLKxC0m0RumgMYgE6ijv6k+if+Tcf/keQf+hvt/n8XVatd9egRSPqMgIjmAAagk6iPP6n+qf57EqTomJ7b5qZ++hgMM19ZbuvfTIM2F3Q+j9gU4EDUe30zNULax6n+Me8uc1ZT38ePxV115RLMAqIOzgjXcA5Uj/GD3cAVqf4x5E61OyzaTxLBHAtMYhqemMAqD1YYgGNiR/VP/OWJP3k4H4uHKK/xdEB5g+2V5PS74yIG4IO4Uf1T/Tut/kOR/iEeYr6wbOp/Ed9OfPkJF0pzAANwqG9U/6U5yfeX0sWwVu8wHqL+e/lQ/Vmqc3wvgQUHDjmAAXgncFT/VP9Oq/+gjdG3/70LrsViwaFAhwLMv0nKJTmAAdjXKKr/klzku4tqYYrtf/vB1f3ObQCIXpTojh3+R9wxAJ0uLaj+qf4da0Py6f8u0LgNgAH4mIjApAwmGIBOl6j+icEyMSgD9+TT/12gsRtAxoB7Jjt97ziIAWh1ieqf6t9x9b/KNf3fmQAEuBNgfsKFkhzAAARNovovyUG+u7QGLh/q37vcnOUnhwJB+tKk5/sDBzEA3PtHi7xrQbbp/85dhMcNeged/iM85TmAAaD6Jw7Lx2HJMSihAZvNpW/QSw443w33Og6UCP6uDBDwk3v/3Pv3fO9/V/8MxXiRSOQ2QCfC/CQhl+KAbwNA9V+Kd3yvBM0LW/LDLbAiBoDbAASBhCDw3QbHBoDqn+rfefUftuQXSf7tl3IbgAB0HoDlzYdfA0D1TwFSPv5Kj0F1U84ALBYLbgOUJgDf71sEnBoAqn+KD+fFx3Jb/Sia/MOXXzzUn30LMAmY8S/JAZ8GgOq/JOf4bhGat727LW4AQgOCExEBiHNHyBh4FCaHBoDqn+ofrU//5L+h7gI37jHx0GcZhsufAUBviD0ZsVduHMou/jt0BiwGxJHjyAtxwJkBoPovxLNyyc57sj/e/8KL/w49wLL58u14QyEOuMCBdBzwZQCo/omldLGkA1sRi/8ODUA4i9j7wNB/HQFka5wcGQCqf6p/Zhp/Lrf1bx/yr4QXwn0JW+JKQmM8pXPAjwGg+pfORdqXWi+Lnvx31mQwC4BDx6Fn5oATA0D1n5lXJPPUyXzK9WUt/jviCNgSSOBMITafmcobHwaA6n8qP/icJW1ZNOvrI2lXzkssBiTgLAWc/L44MABU/1T/zCz+XO00xHqzvpYvmiRpxsgKBzSIwrwCherfClfpxzzdFbb1ry+sg1OZ11GIAn5wYBgHjBsAqn+qf6r/nzK3/vU4AJ4PQPIalrzAaT5Otg0A1T8xMj9G9GN40VS/9qRbmS+zGFA/6Qg8DWNo2ABQ/VP9U/3/bLf+yUzz/a0KjoUEoiGB0EbdPLVrAKj+iU3dsRlp/KQ89a8/3R//C7MAkQiAC6YS6uWAUQNA9Q/neznvS1cXm83l8Qwr/FUcvC+i4tZLjLdNA4B2lOAS3ylNw8Qf/HPSg+DicfG4+MQcMGgA0I3EnCHRS0v0fe0Jz9g5mWOl/xEnT7D1kZvXY3DDngFAM2Lwgmto1xfd1X/nTHDzuHlmARJywJgBQC8ScgVToMkUqK/+Ow+AoyfwNAWerrbaMgBoBVqhK/7SjFc4Ur/Ln/p/4upx9cwCJOKAIQOATiTiSJokRaJOh6uZ6r9zLzj7dGQhED1ja8cALB/q3+GyZy7T98D/T9v67y5v2vmJu8fdMwuQgAOGDMCu/gcDQBKEA0oe+jPWnTALQHAT3LE5YMMAcHJobF5wPZ1aYyOej3sDZgESVIAEus5AjzVuNgRjSfWPNjBD+HPRrK+PJ08jrzILEEv4uY7vxN+Nv34DQPXfjSU/Pce0jX3/54wKswA4fZx+RA7oNwBU/yR+z4m/67u5lf99XoBZAAK+Iz0/53JBtwGg+p87/nzegobY2vffl/m718MswLb6YWHg6AMCVJYDug0A1T/xUzZ+ZODvpvrvPADOXwbxCD7t46DXAKAB2rlH+2Pop497/13m3/vJLAABFCOAfF9DrwGg+if+fcfu8/i7q/47D3DxUH+GAIgAHJjDAZ0GgOp/zpjzWTOasb277fKhy5+rXfVoZjBZ3R5xdTsiNywudBoAqn/4PYzfdnFaNvW/i83m0mXi7zq92lU33olA/+0Gefqx1WcAqP7he/q4UICx9+q/MwHh4QcQQgFhmeEQOMOhzwBQ/RPr3vU+rH/r8h8/d9VVmA7xTgr6jzCO54AuA0D1D8fHc9weZiEOSPx7CHA4kD2SE+g5xlSXAaD6z8EJvkO09jT1017q49cWAQ4HEji9jJCIFpL2loweA0D1TzzJj6ccY2T0cb9zrQzbAnOQj++wJUJ6DADVP7FnK/amjKeeeJ2bzyd9nm2BU0jFZ/wKiw5BofonRv3G6NvYuz30Z7AbaNbXEOWNMGABFqc5oMMAUP3D49M8doAP2/6G2YBVU9+7Jwtb7lgTMYQDTX0/LKrKvYvq30FyG8JVx+9pt/15P/RnsASxIJDk51gsRplfBVUF1T8GYBSnTcY+C/8G5//wRhYEIhqIxgAOCDcAVP8DxtBkwqPfnX6Fg+5GJT/e/IwAJwQSRF0Q8bOHC8INANV/z7iR9F3McnLe/xw3wwmBLoKE5D4jSQg2AFT/M8YVg2BC+y4e6l/mpED3n10+1L+TIBASONDDAcEGgOq/Z8xI7iaS+zlNYuo/kn1ZNfXTObD5O2LjkgNCDQDVP/HoMh5fzB1T/5GSf3sZzgZw4Zg9C8bkvgs1AFT/GIDJnDYwQxIWscdMge6vxcOCEBTPgtLbd4EGgOqfWO3lq4Hkfq5vTP0nsivcCkBYzgWfu78LNABU/8Spuzhk6j9R1t+/LLcCuBXgoIIYJZ7CDADVP8l/FH+NxTOr/vcTdoLfuRWAwHgWmA99F2YAqP6Jzw8cNZbk+/rH1H+ChH/sktwKQGT6gtDd64IMANU/ceku/pj6P5aiE7/WrK/DNguvZKPfCO0rBwQZAKp/ePnKSydVf9dfVv0nzvmHl19u69868PmJ8LjlgBADQPVPDLqNQQVP5DzMnyb+zbMCEB23otNVWEIMANU/segxFnnMb0krER4bzK0AdgZ0ydDjTwEGgOqf5O8x+Yc+L5r1dckU6P67w7YLr+Sj3whv2BVTWgSo/uGhSy0SEHulY1/E96+a+t4lAT1WvPT5/YxPYRGi+if5u9Tepn4SkfxoxGKx2Gwu2RqIELkUosIGYLVbf3eJO0b0vRF1hEf7oJ9ddUXulYQAWwPdBqTrBFTQAKx21Y1r7B0lPcb5rcDitD9JiX+vLawHeCMpAesEi6IGgOqfOHMSZy9mb/lQ/bmXcvhVGgKsB/AVkO4FuJABoPonzrzFHlv+pGX7nvawHgBxciNOxQwA1b8bjnGro729ypa/noQr7uVddcX5AJgAFwJdwABQ/RNbLmJrz/iEk2fF5Tka1I8A6wEQKRciVcQAUP274NZeAvTcX57y159nRf+F5wVgAswLV2YDQPVPTJmPqX3jE/b7bzaXohMdjetHIKzadEXYffLyu/2tkdkNANU/euLDBLX7/Tnqtz+5qvgLhwTZT4KejU5GA0D17yPxYXCexzmccqkix9HIMwiwKBATYNUkZDUAVP8kRycmKGNcncle/DkGAlQvTgLXaqLv61cmoSJ+iB8v5ofDfmJkXIHX4MEliJg5EctmAKj+zXGnz1Q6fn3ZfPkmMHXRpFgIcFIgJsCUkGcwAFT/xIypmOkzOKz4j5VmZV+HnQEImhlBy2IAqP7N8KUv+Tl/vV3xz3Y/2Yk7WuvYGcCiQCuCl9gAUP1jlq2bH7b7Rcusii602VyGhztYJzf9My7gyQ0A1T8xZDuG2O6nKG9HbWqzvuaZAbaD27x4JzQAVP/EhvX4IflHzagKL4YJ4HaA5tsBSQ0A1b/1BOi6fwljR2Em9NtktgdS6agVwkQiRvVPTKiNiQGGnr3+fvP90Z5jAhA8lYKXzABQ/avkw4Dk571f7PU/mgJ5EROACVAnjgkMANU/caAuDgYaHyp/8vxJBDgjAPFTJX5JDADVvyoODEx+7vvEQT8ncx9/fEEgTBG5DxZERcfiyNgGYFddwX1MsDkOkPzJ72MQYCYAEVQhgpENALyH9yp4P6ZAIfmPSX28t0OAmQDEULwYxjQAVP86Zn3GJD/v7yX5d+mMn1MQoCLCBIg2ARENAFyH66K5PtbMkPynpDw+c4gAMwEIo1hhjGUAqP6p/scmWMnvJ/kfpjH+PRkBHh6EOEoVu0gGgOofkyvW5I6NPZL/5FTHB/sQwARgAsYKUY73xzAAVP9wOwdXc3wHyb8vg/F6DASolKiURFVKEQwAnIbTojg91SiQ/GOkOK5xDgHWBCCYYgRzrgGg+qf6n5pwJX2O5H8ubfH3mAhQNWECRJiAmQYAHsNjETyeYyZI/jFTG9caigAzAYhncfGcYwCo/qn+5yReCZ8l+Q9NV7wvBQJUUJiAkiZgua1/m8pruAt3S3J39neT/KeGPp+LicBqe3c7m8wS3DRtUFgRVjeTuEz1r3CsMSxvOls9Ljaby0nc50MgEBsBHiWMOL2JU04sphkAqv+cY8R3xYyNwN3Y+s31QGA2ApgAhC6m0A271gQDEM60YLaHGQCFHAjrrmYLNRcAgWQINOvrZVP/i8BiBvJwYLwB4JYV3MzDzcg4N/V9Mt3mwiAQDQFMANVVtupqpAHYbC4xqJETU7ax9tvuMLsaTZ+5EAgkRyAssmrqJ5VOG0FTZGDGGQCqf79JVKMWBbNK8k+erfiCJAhsNpeftvXfGgOPNmtJFCMMANW/ImOnhX/p2hmS/6JZXyfRZi4KArkQYMV1OpHAqAw3AFT/8FBLvCy31Q+Sf64MxfckR4AdAohvGvEdaACo/qn+tdza44Cf5PmILyiAwMVD/ZkFWBiBuEZgmAGg+od3cXmXBk/2+BdITHxlRgTCDoFt9UNDMNLGNCIXF9dhBgDjqWEsfbdxzrHWGRWcrwKBmQi0B7FUj3ETgW/x8IvleQPA7SdiQ3J8PJvT8zyeqbp8HARkIbBq6nvJgUnbNCSO88LJjJOGcXTaxnC/n5X+shITrcmHQKjOmJ51Kn4RFmWdY+rFQ/0LRg5+SeRA2CLNA33ORTB/t48A6wJYoT3RDJwLjtWOW00Sk5/7Nm3vbs9xl7+DgB8EWBeACZhgAk4FCNU/lb80o8H9/lMRy9/cI8B2LUR7jGiHJH80aHgeBYZygqEcw73x760emfI/Gq28CAJvCKx21Q3rAjACQwS2PTFts7l8Y89iAX/gzhDuZH0PT/LbD1F+B4EzCIRbAjxMiCpuQBW33NX/hKS/CA+g+rr+I6uwD2gf7fFrSEIhEw5AO6N2/BkEQOAYAmwV9CueJE7GXjcHmPI/pum8BgKjEGBKl0SgOxEwft7Gj1P9Rkk8bwaBMwiwS4DbAUy3wwHpHOBgnzNCzp9BYAYC7BKgmvRWTdJfJZwPC/0OFqTOkDo+CgIgcBQBDg6iEpReCdI+Nxxlb/9RleZFEEiIQPt89y/fqI6UVEckRDcJ0VNMcpxvQo3n0iBwDoGwxYYzAzABnpIOfS3Pd7b3nVNm/g4CuRAIswEP1Z8IY3lhZAwYA+scoOrPJex8DwiMQWBXXYXgtC5A9I8kCwfyc4Cqf4wY814QKIQAtwXyiyMJCcwtc4Cqv5CY87UgMAmBzeaS2QCSkuWkRN/S8zs8a6I9ZnqSCPEhEACBogi0swFtEKcXCwQZjOGAIQ6wr7+odvPlIBAHgecHC90jzobEmW2FbCtMxQFO84uju1wFBEQhEJ4Wt6seMQIYATgABw450G4n3t7ditIsGgMCIBAXAW4LIP6H4s+/vXOiegyPk46rNFwNBEBALALhuQIcIuRd+Om/Z/MTFvldNNWvYkWKhoEACCREgPUB3EtOdS+Z64rl1ut0Pw/vSSiuXBoEtCCwq644TZBq2HM17KHvJH4tgkw7QaAEAs36moWCGAEPydBTH0n8JcSU7wQBpQiEwz8wAhgBT0nSYl9J/EoFmGaDgAQEWiPQ1E8WxZE+YXCscoDEL0E9aQMIGEEgrBR+PhaUpGE1adAv/dwm8RsRXLoBAhIRwAjoTxIkentjSOKXqJa0CQSMIoARsJdEMAb6xpTEb1Rg6RYIaEAAI6AvaZDo9Y9ZezsuHNvLPn4NMkkbQcA2AsEIsGtAf2LBHMgeQ07us62j9A4EVCPA9kHZCYQEr3N8SPyqZZHGg4AvBIIR+LSt/ybh6Ew4jJuQcWvqpzC75ks96C0IgIANBDhiWOx58CR5IUn+6DMTwmO7qxsbIkAvQAAEfCMQHjoUnj64rX6QeCQnHtpWkp/Pz+Mg8fsWS3oPAoYRYMEgSbZkkpX23WErX0j8i111ZTjs6RoIgAAI7CHQrK+D8LV7mY9Og5IopSUr2hORk939fbby7YkCv4IACPhCYLO5bGcFeOYA6wWMG8HXar9ZX/sKcnoLAiAAAucQYFYAE2DQBIS1L8tt/RsH95wTAP4OAiAAAt2swC6sho447cq1MBg5OdDU96zmR85AAARAYCoCu+qKHQSYIC1GMJx/0e7d597+1IjncyAAAiBwBIFmfb1q6nu2E2IIJBiC7p5+mN6n0j8Sr7wEAiAAAkkQCOsFgvCyeJBp/ZzT+rv6Z1vlP9Sfk/Cai4IACIAACIxAYFddhWnXIMxsK2R2IMXsQFfts19/RFzyVhAAARDIjcDFQ/2ZWwUYgTlG4NlIVo+BR4FPuTnM94EACIAACMxFIDyPYFv/xsOJMAQnDUG4ldQlexbwzY06Pg8CIAAC8hAIi7WC0LN2AEPQ3jIK+/M5hldeoNIiEAABEEiKQDhv4OV2wYozB8wvJmwP5Gm+fGun9Knyk4YWFwcBEAABfQi87C5on8zGDgO1puDdPfym+pUqX18o0mIQAAEQKI5AuG0Q1hFgCmTeNgiVfbvGY3t32+7Hp7ovHjM0AARAAARsIrDZXLZrCZ4TziNbD/MZg9fKfnt3207lc//eZozRKxAAARBQg0A4sjgsMNze3S6bL9/CmgKMwQxj0N5+qR6fj4F+OWmPyl5NONBQEAABEACBxWIRjEG72HDfHGyrHye3pWU+3a5MW6rHbur+9ThdKnpiBgRAAARAwAUCLzMH4STDUO2G/5/PLAhPQlT6NMSueg/tD1sug/F5OS+/vUfvYmDpJAiAAAiAAAjEQKBbdxBmE3rNQmca3n5Oe3DS2+efTcjbv7uKPST1th3htseuumGVfYxB5hogkA+B/wfiPXU+J7IT7gAAAABJRU5ErkJggg==;" parent="z4DHmxEM3Tl0a3bXThNu-52" vertex="1">
          <mxGeometry x="37" y="34" width="66" height="66" as="geometry" />
        </mxCell>
        <mxCell id="z4DHmxEM3Tl0a3bXThNu-78" value="" style="group" parent="z4DHmxEM3Tl0a3bXThNu-6" vertex="1" connectable="0">
          <mxGeometry x="40" y="714" width="1001" height="497" as="geometry" />
        </mxCell>
        <mxCell id="z4DHmxEM3Tl0a3bXThNu-75" value="" style="shape=ext;double=1;rounded=0;whiteSpace=wrap;html=1;" parent="z4DHmxEM3Tl0a3bXThNu-78" vertex="1">
          <mxGeometry x="339" width="662" height="497" as="geometry" />
        </mxCell>
        <mxCell id="z4DHmxEM3Tl0a3bXThNu-76" value="" style="shape=image;html=1;verticalAlign=top;verticalLabelPosition=bottom;labelBackgroundColor=#ffffff;imageAspect=0;aspect=fixed;image=https://cdn1.iconfinder.com/data/icons/ionicons-fill-vol-2/512/logo-docker-128.png" parent="z4DHmxEM3Tl0a3bXThNu-78" vertex="1">
          <mxGeometry x="368.9970588235294" y="11" width="28" height="28" as="geometry" />
        </mxCell>
        <mxCell id="z4DHmxEM3Tl0a3bXThNu-77" value="&lt;h1 style=&quot;margin-top: 0px;&quot;&gt;&lt;font style=&quot;font-size: 25px;&quot;&gt;VM Container [&lt;span style=&quot;background-color: transparent; color: light-dark(rgb(0, 0, 0), rgb(255, 255, 255));&quot;&gt;The container, responsible for running the actual commands&lt;/span&gt;&lt;span style=&quot;background-color: transparent; color: light-dark(rgb(0, 0, 0), rgb(255, 255, 255));&quot;&gt;]&lt;/span&gt;&lt;/font&gt;&lt;/h1&gt;&lt;p&gt;&lt;font style=&quot;font-size: 14px;&quot;&gt;&lt;strong style=&quot;background-color: transparent; color: light-dark(rgb(0, 0, 0), rgb(255, 255, 255));&quot;&gt;Purpose&lt;/strong&gt;&lt;span style=&quot;background-color: transparent; color: light-dark(rgb(0, 0, 0), rgb(255, 255, 255));&quot;&gt;: This container runs a command-line tool for interacting with movie data. It is designed to allow users to search for movies, retrieve data, and execute related commands.&lt;/span&gt;&lt;/font&gt;&lt;/p&gt;&lt;p&gt;&lt;font style=&quot;font-size: 14px;&quot;&gt;&lt;strong style=&quot;background-color: transparent; color: light-dark(rgb(0, 0, 0), rgb(255, 255, 255));&quot;&gt;Application Structure&lt;/strong&gt;&lt;span style=&quot;background-color: transparent; color: light-dark(rgb(0, 0, 0), rgb(255, 255, 255));&quot;&gt;: The core application logic is located in &lt;/span&gt;&lt;code style=&quot;background-color: transparent; color: light-dark(rgb(0, 0, 0), rgb(255, 255, 255));&quot;&gt;/app&lt;/code&gt;&lt;span style=&quot;background-color: transparent; color: light-dark(rgb(0, 0, 0), rgb(255, 255, 255));&quot;&gt; and &lt;/span&gt;&lt;code style=&quot;background-color: transparent; color: light-dark(rgb(0, 0, 0), rgb(255, 255, 255));&quot;&gt;/appdata&lt;/code&gt;&lt;span style=&quot;background-color: transparent; color: light-dark(rgb(0, 0, 0), rgb(255, 255, 255));&quot;&gt;. It uses FastAPI for handling API requests and provides a script (&lt;/span&gt;&lt;code style=&quot;background-color: transparent; color: light-dark(rgb(0, 0, 0), rgb(255, 255, 255));&quot;&gt;movies_command_line_app.py&lt;/code&gt;&lt;span style=&quot;background-color: transparent; color: light-dark(rgb(0, 0, 0), rgb(255, 255, 255));&quot;&gt;) to interact with the movie data.&lt;/span&gt;&lt;/font&gt;&lt;/p&gt;&lt;p&gt;&lt;font style=&quot;font-size: 14px;&quot;&gt;&lt;strong style=&quot;background-color: transparent; color: light-dark(rgb(0, 0, 0), rgb(255, 255, 255));&quot;&gt;Restricted User&lt;/strong&gt;&lt;span style=&quot;background-color: transparent; color: light-dark(rgb(0, 0, 0), rgb(255, 255, 255));&quot;&gt;: The container creates a user named &lt;/span&gt;&lt;code style=&quot;background-color: transparent; color: light-dark(rgb(0, 0, 0), rgb(255, 255, 255));&quot;&gt;narrator&lt;/code&gt;&lt;span style=&quot;background-color: transparent; color: light-dark(rgb(0, 0, 0), rgb(255, 255, 255));&quot;&gt;, who has a restricted environment to enhance security. This user can only run a limited set of commands, preventing access to unnecessary system utilities.&lt;/span&gt;&lt;/font&gt;&lt;/p&gt;&lt;p&gt;&lt;font style=&quot;font-size: 14px;&quot;&gt;&lt;strong style=&quot;background-color: transparent; color: light-dark(rgb(0, 0, 0), rgb(255, 255, 255));&quot;&gt;Command-Line Interface&lt;/strong&gt;&lt;span style=&quot;background-color: transparent; color: light-dark(rgb(0, 0, 0), rgb(255, 255, 255));&quot;&gt;: The container includes a command-line interface (&lt;/span&gt;&lt;code style=&quot;background-color: transparent; color: light-dark(rgb(0, 0, 0), rgb(255, 255, 255));&quot;&gt;movies.sh&lt;/code&gt;&lt;span style=&quot;background-color: transparent; color: light-dark(rgb(0, 0, 0), rgb(255, 255, 255));&quot;&gt;) that is executable by the &lt;/span&gt;&lt;code style=&quot;background-color: transparent; color: light-dark(rgb(0, 0, 0), rgb(255, 255, 255));&quot;&gt;narrator&lt;/code&gt;&lt;span style=&quot;background-color: transparent; color: light-dark(rgb(0, 0, 0), rgb(255, 255, 255));&quot;&gt; user. This script is used to interact with the movie data in a controlled manner.&lt;/span&gt;&lt;/font&gt;&lt;/p&gt;&lt;p&gt;&lt;font style=&quot;font-size: 14px;&quot;&gt;&lt;strong style=&quot;background-color: transparent; color: light-dark(rgb(0, 0, 0), rgb(255, 255, 255));&quot;&gt;Security&lt;/strong&gt;&lt;span style=&quot;background-color: transparent; color: light-dark(rgb(0, 0, 0), rgb(255, 255, 255));&quot;&gt;: The &lt;/span&gt;&lt;code style=&quot;background-color: transparent; color: light-dark(rgb(0, 0, 0), rgb(255, 255, 255));&quot;&gt;narrator&lt;/code&gt;&lt;span style=&quot;background-color: transparent; color: light-dark(rgb(0, 0, 0), rgb(255, 255, 255));&quot;&gt; user is restricted to a &quot;sandboxed&quot; shell (rbash), which limits its capabilities and ensures that it can only execute specific commands. This is important for preventing any unauthorized or dangerous actions within the container.&lt;/span&gt;&lt;/font&gt;&lt;/p&gt;" style="text;html=1;whiteSpace=wrap;overflow=hidden;rounded=0;" parent="z4DHmxEM3Tl0a3bXThNu-78" vertex="1">
          <mxGeometry x="369" y="39" width="612" height="422" as="geometry" />
        </mxCell>
        <mxCell id="eE7FysRdT_OkTbgdI72M-16" value="" style="shape=flexArrow;endArrow=classic;startArrow=classic;html=1;rounded=0;entryX=0.356;entryY=0.528;entryDx=0;entryDy=0;entryPerimeter=0;" parent="z4DHmxEM3Tl0a3bXThNu-78" target="z4DHmxEM3Tl0a3bXThNu-16" edge="1">
          <mxGeometry width="100" height="100" relative="1" as="geometry">
            <mxPoint x="265" y="122" as="sourcePoint" />
            <mxPoint x="365" y="22" as="targetPoint" />
          </mxGeometry>
        </mxCell>
        <mxCell id="z4DHmxEM3Tl0a3bXThNu-17" value="" style="verticalLabelPosition=bottom;verticalAlign=top;html=1;shape=mxgraph.basic.patternFillRect;fillStyle=diagRev;step=5;fillStrokeWidth=0.2;fillStrokeColor=#dddddd;fillColor=#33FFBC;shadow=1;" parent="z4DHmxEM3Tl0a3bXThNu-6" vertex="1">
          <mxGeometry x="1072.5" y="24" width="125" height="1205" as="geometry" />
        </mxCell>
        <mxCell id="Yx0Jhr5HA7XJ-aeyqh2g-24" style="edgeStyle=orthogonalEdgeStyle;rounded=0;orthogonalLoop=1;jettySize=auto;html=1;entryX=0;entryY=0.5;entryDx=0;entryDy=0;" parent="z4DHmxEM3Tl0a3bXThNu-6" source="z4DHmxEM3Tl0a3bXThNu-45" target="z4DHmxEM3Tl0a3bXThNu-53" edge="1">
          <mxGeometry relative="1" as="geometry" />
        </mxCell>
        <mxCell id="Yx0Jhr5HA7XJ-aeyqh2g-31" value="" style="verticalLabelPosition=bottom;verticalAlign=top;html=1;shape=mxgraph.basic.patternFillRect;fillStyle=diagRev;step=5;fillStrokeWidth=0.2;fillStrokeColor=#dddddd;" parent="z4DHmxEM3Tl0a3bXThNu-6" vertex="1">
          <mxGeometry x="514" y="95" width="524" height="293" as="geometry" />
        </mxCell>
        <mxCell id="z4DHmxEM3Tl0a3bXThNu-42" value="" style="shape=image;verticalLabelPosition=bottom;labelBackgroundColor=default;verticalAlign=top;aspect=fixed;imageAspect=0;image=data:image/png,iVBORw0KGgoAAAANSUhEUgAAAgAAAAIACAYAAAD0eNT6AAAAAXNSR0IArs4c6QAAIABJREFUeAHsvX2sbddVH3p6Y6XvoSChSkH0BSk3nBQSCwmVP5IrX8sYg16dL6EIgWSBCKQkQTKkDwU9RSGBE5UnNTTuBw3UkVpB0rQIUwyFkpf+8WSa2r43dlzF0Tkv8YfEH/6M1ea+GMfBWPZ+GvPM37i/OdaYc82199r77HP2ONLRnGt8z7H2Hr855/rYe3vxFxmIDEQGIgORgchAZCAyEBmIDEQGIgORgcjADmbg6ev2v//JN5//1OMXXvvIExfOL+T/8Qvnn3viwvmn5D/Tv/TEhfPyf8/jF87f1fP/5IXzf57/7xD78v/E9d/zCfl/7ML5j8n/Mzd+7wefvG7//fL/zE3X/pz8P3Xx9T8p/89cv3/z1254w3XyLzE+9gPf/ZorN57/jh08RTHkyEBkIDIQGYgMtDNwxzOvesX9D9+yd/no3Xv3PLLfFt7b2xNgFbB//ML5lxL4X9wX8H8Jx6nNNEwOVmlhm1u2V/jNkxHmo48JSp6cpEmJTjYunC8mHJhsSIuJBk8wJAdP3/B9r4vJxejHJQQiA5GByEBkYBszcN/RB/YuHS2K/8uHn2tOBGRVDzB+4uJ+Wv2jTWAM2tWdgZc8Psv29AHkaJOOA/gtW8JjPuISm8qjuJOs4wMxoD2eEKXdkHvSpOLN5z+F3QrsUGBXIiYO2/hNiJgiA5GByMAOZeDS0Z0F8BcTgcOn9+596DWDbAiIFQA6Bo6YDPCOQE+/ZtfoJgDuoCmQIx62b/Rd2YaMyrNN6gvflTm2mS6b4JKJXCZ58sL5O3DJQ3YfsPOASxqDkxKEyEBkIDIQGYgM9GZAwP/y4UvVCYDwLh/dPjAn198ZzFI/g6rXZ1mslkfbhr2W7pgv5nOssOnRwEPLMj196KFlnUTzJiR58iCySZ4mE7CT77X4EnYb5Lyk+yGu379ZJgpxaWLw0Q1CZCAyEBnY7QwsDs7t3Xv06Srwl7sAjw6SJStSBSGAV211DOCq8Wv0vB0PgByAYE1vLB7i6xgoRqWN2YeObVkPPKbBP3jcGrmxMXNuBrLZLi5LpF2FfEki3c+Qb5R87q3XftfgBAchMhAZiAxEBs5eBgT8ZVVfgLy5/m95Ngty/VqBkgHM9h2wS0CV6bW+XpO3+vYYkwS2Z2IY+GjwvTHV9Ad0G5s9RqzZf0ufeZoLE7cXq9AKXdJJdPApBqFjkiBPasgTF7jpUS47yOUeeYpicePeNfZzEMeRgchAZCAycIoyMBX85TKA9yfXpwEqAlJeP9EMrwZcVTrpd9kjeRc8V+ED1KnVcQuosm2AL9NIL42XeSTPufDGrD5Zn/tki2VdnxSTlZXj8v+1j8jlBjn32EWQSw0xOfC+IUGLDEQGIgNblIFlwP/S0fPVESQwANhgdUmAMgCyLJuAJsv19AFcPfYgk+w6/ubiw05qMWbkwh4jN+DblnMxFjPLOn130mP9ybETYzEmo8P5HMgd23oKlxnkXgTsHsR9CNWvTzAiA5GByMBmMnDp6LZJ2/64DHD56EozQJ0EGEABsCtwgE8t89w+gdCovQxqbGcAzrxKpjgU0Cby4cvGZo8VbI196LP/QczIAeLFcaX1fKsf9s+TEqY3+ohN7TViEBmSkxdDyaORd2ByIDsHzQ9WMCMDkYHIQGRg9QwsDf7pKYD2BECiS4+sZTBIRd+AFQHB8fsCKsChQCj8bGMZe2P+ZuFjjGgxJnPs+SrGZOQ5B4Wck1/mcx82mMZ95FbbHtsYH9ocN9vlPmJILcuSr/xSJnmK4erE4Ibve11cUlj9Ox8WIgORgcjA3uWjjy618scOwKXDp0ezKAU7TQI8MAOtsbJMwCHAwDK8QgXoZBmAiqvX4W8WfQKyatyVWApw5HHy+KE7ZeyeLNNafc8f5MHj+Gpxk46eH9BsS/ZEFvJ5YnCP3GsgjzXGfQajX8EQiAxEBiIDZQa8N/wpsI/c+S9y6R0BHRMAeE3v7AcwADRM0U9FPvNqfV2ZOnIueLLcmL+Z+By7xoQxo/V8ZVqhb+QTz5Mz9tSv0DkHBlgtT/TYf80fy3i+YFd5ZhyJbuKyvlXXjE18m395WVIxKcDnLtrIQGQgMhAZoAwI+KcX+TRe9NM1GTgcvgeA3Ay6mARoYScwGgCGKfqqQ3QGp8Qfs7dOPgAObQbeQYwUv4xZ+dBDO4Oc2gaoG5tezlgHfNt6MgNabfw8Zo7L0OFT7Xp8Hk+2BfnjxxfP3yU7BXLToTyeOvhABiEyEBmIDOxSBu5+9H3NN/x1AT92CCZOACTPUpBTcafijaIt9NTPINjT9yYONXvwu24+/GjrjEd5GDPlQ3g8dshy3AXNTBoKXfBMDJ4t2PRyqjzECbs4ltb4UJ2GLHRast54mMZ9tZPj4nFiUpB+g+H6/ZvjKYRdqnwx1sjAjmdAfs1vEsAD6Gvt4YN78vKgqX9pEsArOgAEtVq4jZzSGXgy+CiP7CggGDuJDrk59B0bGg8AHTFXYlF5jot0EHOXHPSoVT3QTBzM135DZhCPHSf8oGVboElL9OSXjgcTBPbBchV79vzruLKd9BsLeZdAXmo09bMc8pGByEBkYNszcPxzvqtu+duJwOGDS49bVmFecdeCzQXd9jNAAixYhws809FfB9/GURwDzNHSWLxYmFbYIT0Zy5gc63Lfy7nLN/G6MhwT5HPL8txP58GRYbp3rgob8AX/I/aSrpH1fGTaU3KpSl5mFI8jLv31DsXIQGRgWzLwwEPvnG/bnycBK0wAZOsgTQKkMPNKrqdvABDFXMGtYSPJzsxX/3ksxTGAB63x7cUD2sBORdeTg40C/JA3zw7i81oLuJBhO6DBhxxX+BKbjUtprAO/aMmHte3Z07ywTRsX83JfbJG9p+QpFkwI4jHEbalqEUdkIDIwmoF1gX96CuDo7lH/YwLy8hcU6lR0ndUc0xnkGTRgg1vWo4Ku7xuYhZ9BCbbgB8e1GCE3iJdBDkBpALCqa+TUtpNTjcvEr3TWcWTUtvBY1ovB43s0Gnv3GOHPscfnIMUL2c7xVHSekxdcyec2dgjGvt3BjwxEBk4sA/d95R3rWfnrLsDqEwDZCZDVlVfwC5AhcAB9oGNWc5DTdhU+wMOzAR5ixDHLgietx2/RenWN3CA/zDdxpBx58VJcmsesy/a579ka8DG5QUzsm3yqHmiOb8TFstqH/dwqne01bMI2dhxEn//lZ5flkoE8aRA3FZ5YqQvHkYHIADIgN+Z94as3zfOon4L9YnAD4eXDz8Hlai1PAnJhToV6pA8gZVkp2OmYC74p9qvyrQ+ABOJg+4lnxmH59tjah1344ZZ1XTnjW22bnLBN5LWg1fIJO46fpN/ig5dta2x0XKOxbXfcYsOLyfgc6Ho6HI+jz+dA3kcgl7bklxJX+1KEdmQgMhAZWCIDAv7yQz2z3vHvTARmmwDIGBcH5+TNbkUxNavCgpeLskdD4dc2g4HKooijXYE/sAmw4NjNpATgNdBlHcSGFnanxsq+2b5jR+Op6XixUFysn8ZIvDEgV1344FhrfY4TvljW40NOWvhimqdjbHrnD/FLi3/ZHUhvLLx+/+a4d2CJQhYqkYHIwLQMbAr8jycXd04LrkN6MAkwxRlFOxVcFPDcFjSrl4+TTIXXBKmGPtscxDASI+sCNKs02GrEAhsAqaLFuD07oNnW8cVj5L53bsb4HO/YuD1bns9izHk8rIs+/OFY9Gr9wibyaOQRi9rJ/OxHLxXEZKCjEIRIZCAyMC0DX3z4zRtZ+V/dWZh/AiAjluupUkxRoIs+ii4VYS64qVALr6ZPAOfaX5JfAwiNx4u74gu2OD61Y8blyaoe54j1OBbEwLLosw7kqPX8KI11YY/9Co1lPLugkb7mgWjqk2gsp3z2B1n4YB73IYfYmQddKyPHlpePJRZ5IZE8WSCf82nf8JCODEQGIgNOBjYP/ou9e48+7UQyA2lxcE6KoxZuFFgUVSqmWmg9GhVtAYSBPdBYF75ym3TG+GM6WR+xwqaNxx7XYq7RYTeBH8cM/xIn+mhr4yS+F1fyQfYK35yPbKfgk+3mWEZi82wyjfsar42ZY7V9L3aOifsYE1qPR/YlthRfvkwQ9wzMUDfCRGRgFzNw/+fftHf56Mrar/lfXfkf3xC4tgmAnES5J+D6/ZupUOrjez2gkQq+Kcag5cJ7FQypMAtATuZ7Okwj+2obNJZDvKvQYBeTGzouQJDpnl/wPR7H5/kZ4accsEzFB84XWs0d6yJOjsPjV2hjttWn+GEbFPNoXilG10bmy1sJ5QbC+N2CXaziMebIwBIZeODhN54I+Mtk4PLR7UtEPEHFTgJy0QWASOHlPla3oKF445gLNXgDG1qMz78E+TH9Qo6LvfSdmEGDnsZgdDlGyI7Rilgd38xHf2CT9byYMl/HwfLg0dghB38Yy5Rxs472a34RM8fSomVeER900UIfnzk61nGYeJDXwq7RY12Rg448TSCPx8ajhRPqRYhGBnYpAycJ/huZAOSTiZ0AARItkNynoqp80LiAsw7oaEV+Sb76hC22UwGMBGIs5+kuQVNwzOPn2Nw+5Un5oNVywvzcd3VJzuVPGJ/qc8683Br+IM+sw7KIhWLWXHpyYzTY8ex6uiLP9KyP+wXkOxA3D+5SdY+xRgYaGThx8E+/K3BbI8J5WXKNVIohCjoXZ+kngECxza2CBorx1aKqq3u1QzI1Pch6fI+GlS/aJIMYR/x59ibR4Act+cM4EJceiwznjnTZN4+D+55ui882JQZ7rDQvJsTm8Wgc3tgQJ3jsl+PlvsZi8si6sAf7zLO2avaSDYxtOI70WGG8gXDe2hLWIgOnKgP3PLK/d+nw6Y1f87f3AFw++qhcqt9Y7vJOQJoEDIqrKcwopCrHqysUWENj2WX0BzoUk9rORV2PK7EMbE2VI98CSOxP+5BhfgWIAWrcDuywrrGZxsP8KXlAnJXWiwP+irGzPsdHuR3k3egM+KQ7iIN4bjwmBtbnvupS/h6/cP4uuVE2dgU2Vn7CUWTgZDMgYHvvQ6/ZCvA/vgTw0Y0nhHcCUpE0Rbag5eLNNK+wzsJnoJB+jottg4aCXo3F2FpGrvDr5MHGAmDj1rOB2LX1xsnxe3ycM5YzfR4zx1HrYzzM1xjFthcHAWohi1gqOpDlGEGDHz2GLdNynNxXfcd3IXfV3lNy4+Bzb732uzb+ZQyHkYHIwOYysE3gLxOA+44+sNEdAGSaJwFcaLsLsll5sY3Ub/EBXp4M0xxwQQHXOHttLSHnjWlAExAxMUNGYwTQsBz3nXFamwNbrMO2TB/nAq3aYTnExzZBM3KqT/wx256O0rzzwnGwf9NHnlst+9G+xE62hA6evFsgHidElYg2MnCGMrBt4I8JwEmlWK6Dyj0BqfhRIZaCWtBysa/SVuCrLwAK2t54IM8xzE1DLOzD0BIIZVqRJ0fO5Xu64g/6Hh88J67kw+TBBcoOuzw2xIMxWD+gt3QQh9X1dApZjrU2ZpYx+SnsIzd1+XviJUMnVZnCb2Rg5gwcg/+ja/5lv+GP/dhr/vb47kffdyI7ACm9i4NzMglI71tHQQT40/GgcNLqCYCgreiN8RsyHih4NPVX8aU6AIFV5DgXsAca23Vyl+JgGasPO44uwA+tjol0wNN8MM/4VX2mt/waOfhSO+KLZaaODfJsg+NHH3L2GHTW5z7JI+bUGhnwMD60mf4lebV23Ccwc0EOc5GBTWXg80+9eu/S4aMnfsOfBX85vnz07k2lwffDkwAqqFIEUSxREG1bK5yQ8/jWpicDMCtkc2ygWT17rPEDBHK7jBx8YlxqG/kS2+ibOAc6HIcn69AK/zW+Yxe+WZ/7PTEnG45P1c1+4Uta9sF96BQ01nf8JNnG2Nhv0c+2mjTIOH5ZT2KQFwzJOwXSRGCTd+3639qgRgYiAz0ZAPhfTo/cTV+he6A9I+0V9z98y8ntAFAC7U4AF14thrxyouKpsh18tYXC79kBiECGAYBpvf5WlKvGzLFQX/MhtIrvZJN5nv4YHzqUw6mxQr6I2cY9dj44ToplYNOzw7oVPnKFWG1O1Y+xBT3wU+vJVPxCD3ay/6d0IkDfn+hGBiIDW5aBY/B/cOu2/XkC8cBD79yarMnrU+VyAAqlFDzu5wJ4TAP45JblisLJfO4DKIwdrBLRsl2XhhiNnbEYRsfi2TMxc2zcR5zwoXk0NpWf7RY2WNbjm1jUFvJh+Gy71vfiVlpHDMkuxy39Dr0UO+L15K3NfLzUOGDL84MYICOtR0s5fu0jcmlga768EUhkIDJwNQN3PPOqvUuHD27ltj9PAO77yjuuBr0Fvcd+4Ltfk+4JqKyUtCAy3xZJHHsy4Jki64FHFw32Kr7UxhxyJmYAl/owfKVXfCsfoF3T9/hM88ZubA1iZR2WlX6Fx/HqhINlvXFynMv4MfY1BviyNvmYdJMeHUv8aot1pF+T8+lfipsFt6BwRQiRAWTgtIC/TAS+8NWbEPbWtLITINc8ARpaLE0BVHouoCiySY+KqldoXdlc1AveGI382HgQR9X/RN0iLqOLiZGVqfoGgJnW6sMu2oIP3RwL+yrkbKx87OUXfI/n0WpgivgqOjg/3WNjOzxmpsMnxiCtpeG4Vw/ysGmOc97viccHt6aERSC7moEE/kd3b/W2P+8AyE8Qb+M9RbITgEkAA0sq2jwRQDFEmwuu6oDu6VjZCpCoLRRgtC3bnr8VaQpY5J9j4z7yhFZ5iBk2qFUZorFPl18ZE+t5MbAt7gtY8jH3YdOjKcga/aqOkfNsKs3mDMfUqixyR/YTj44Rk7QtPZbjvAzs5TiE/uSbz38qXii0q+gT4z7RDAD8GWC3vS8TgG39k0ImkwAUvKIgesUTxTe3g+La0qFiroW5RTO+VMfQe2OYJIe44AvHuUW+rE0+hozGXbHRw1cZxJNb9iEyKmd8KXizvpEpbJlxwnbRejKwOdEP7BYxsA30W/aNTGGroVfIiQ1PFrZzm358CE8MbOuXO+KKDJylDNy1uGbv0ila+WNiIj9ItM1/8lOqT1w4/yUUYV4JaTHk1ZXpJz1DS0U1F1PtUxHtpfXE4vlfmTYldjN2+EbbHCvrtvIDUGJ50EhPzxfTuM/6RG/GSHLF+RiZ7HXbhH0eD8fJfZKF/dQaGfDSOYCOtB1yA3usw/00/tc+EpcFtrm6RWynPgOyfS7gf/nwc1t/wx9An1v5UaJt/xtMAirFHcVRCqtXZAd8FPXcMh9gNUpr+eLivgY5gLiO14yHAcbLh/K98XPsHp9pLGvGWeQvyzGN+8142F/uu+dIfIzxEW+nzVruitjhE7Y5DtAg4/mFDOuNyLF/7uv4s015vbBcUtv273nEFxk4dRk4zeAvEwF5Q+HW/y0OzhWTACqkWpxBM4W0ySdZlVuCpgWXV2CIZ0aaxsg2DeDyZIDlE7iyHvcdGzIm1ff4yNPIOBXUW/LC6/DH8cCuRwNP2gF/GT+tMWJcaMl+8k3HU+KCbBE/20JM8Eut5zcuC2x9lYsAT1sGjrf97zyVK3/sAsh9C6flL08C7imKoinyKH4ooBYEmM99gPhSNCq+1h/iSHZXkcsF34vPjT37qvoFgJi2sC82xvi9Y4IdI6/2QYdcbot4OmmjOmPj8vwgvo7PWzrnGAf0PJtWhuLyxuB9lliO+5BFfhPvOJYvyUu3Tst3PuKMDGxlBmTr/9LR6QZ/mQTIJGYbnwKonXRMAqSwaVFDIUWbC2mVz7oo0Kawo4CqjZYc20MMc9PIP2Lj1osTxd/NlWPPtUFyLr93nGSH40k22QbJef6atAl2xnI38MO26RyznbFxDWxirGzb+RwmPZax/pknNu0x0cRWsnf993xCvku171nQIwORgUYGzgL4y+uJT+OfvA/98Qvn75JCVxRgFFRqq0U3F0XRR4FNtrLNXhr793zNReN4an3kA3zrm48h0zN+lrU+MH627dEKGzg/9vxNzL1rc8J5LfQbvjEezRXiz21hh/yrHsbp+WBbHXLJF+twH/qg2WOh58mB2JEnbOImwdNYASPmE83AvUefTtv+W/p+/+5LEpePrpxoHpd2vjg4p5MAKmqp4PLqBwXQ0LiIch8Fu5fW628OOc9GV5xm7LCDtmmDdQEqmDDRMWyhVZuU/8Qz5yrJGR+qS/a7aFPsGFnEZv0M4qPxqCxoNt5OHwBkxIBW7ZNdTL4KHfIziBe6JAP7sCU68tsCS38XQzEysCsZkK3yy0e3dwMsrrNvbXv49Kk+dTIJePLC+T9PRc0UYq+AokAW8lnP443SUGAroFiNgfQkll45Ld6s34if5T0fyvdsdPoockQ6TX8iZ86XHnux9NLYbkOnOW5Pr+Mc1fKAcRX87EPjoLg9OdBSa3MMW2jBt8fkg/3CpnyP4pLAqS6HEfy6M3CmwP9okX6ieN05W6v9vBOgkwBb/Hjl4xXELI8i6BXGKs2zvWaaxsl+HHBKciyDsRua2nNsCHA1+WM6Iz4HMeLceXYn0KrnC/Y7xsU2tF8ZT+KDN9VHRyx8DopzYnxW82l8IF61W9p5Ki4JrLVihfHTmoEzB/5pAvDgaT0dg7jlWWcpblrYUIwNDYVSZVEAc8v8ntXbmL9UcE0MS9Ea8blx5vFX4zPjrtowcqP5aY3V2EIeXN+N8Y7FMMZPfk0srFPra7w9Y5T8N3ywraYcbNDnmXU5VqV7Og4t6ZrPidCeufF7Pzj4ggUhMrCrGbh0dNvZ2fYX4Nf/u0/VEwBjn780CUCh45UP0VKRZB4VVi6IKKZNGtlVuXXRKE7Exq36Z7lWLCyX+64NkvP4A1qHz6RjzsHATgtkKSbJgeoam8iP8o3egM/63Bc9Pu4YI2yjHcTA9iiugZzjW2UQh5WBPc8H02r9C+cX8l2SS2xj37ngRwbOdAYuH32UAJPB8yz07z5z504KlxZIBgcURW5zAU3yKKa9NLaT++y3WvgrMY3pcoy1PlaS4FubfAwZiZP71kYPv9Axean5RH6gi3YslpactTlmq+CbuK0tHPN4PBrb5L4bt/ic8Hlje14cKR58jnk8Dm1gCzJl+yX5Zc4ztUo4cxUvBrS2DNx39IEzDP4ygbnzTH635RfRimLYWOl4hXSUVrNHxVNtzETDeNiu9qnYD2gmVthBO5DHhCCDU5NPfmEPrerR+BNvol21Q748mgAp07kPv0ozsl7MkE0ty9N4IAMQ51Z5Y3Fzvluy8AsZE9PAH/GrY4CtRitvEHzm+v2b11Zkw3BkYBszcNbB//gRxju3MfWzxPTE9d/zCRR+tCiEKPjcejyPBlvSMj/1TSGdm8a+tZ+BgWNRIKJ4vFiaNkgX9jwfBY11kB9DU59Cb8Re2O2VI5st2xqDBVXEDDraPAYvhx7N2l9qLGbM8FPYGok3xdEYA9tq9YX32IXzH5vlixlGIgPbnoG7H31fWvmf9uf8r17r9y9XyI2Np+ktgFM/NzIJSIWNgSEXcy3SKKKGrnpMp1UVAIbtCE31UHhnpLFt7TvxJ16H35aNYiyODxk362seVvVbsev58mgaR8UOjyvpe/HSOVcfE86n6lRiYD7i7aIhBsRnj4kOe6n1xghdw4Me4kK+hC47a1O/gyEfGThVGbh89O4zvu1/PBmQyY1MAM76n6xcpIihoKEgyjH3ITNKg14utoU801CM56LlMRT+MC6PN+bX6LrjFxtGzvNf0Obw642nk1bE4unk+HRcTryeDXx+0CYZ2GIbJl/w49mcSoNP6NljxKYtYuH4TMwqy3SjJzLiS/7lkdu4OfCsV80dHZ+A/1lf9fOugNzguAt/aRIgBQ6FjVc9VPhQULkoejS2w7Kp7/mYg0ZxDnyaSYnyW34de+5YSc7jezTOj/IRC9lDnCpDvMm0nnNKMsk+HXPMiKtoK7Ia57rHh9xYP86xxsSfC8iZcags0Vu5yfJfipcG7ULl3J0xvuL+h2/ZLfBPOwC7MQGQj7E821wUdCmouSii4CV+Lw0FGUUWBZboYk8LLNGXoXGMtb4dj/XDx702dAwYX0d+2I/q5/FP8WvHUz0/lNuWTtIXWYyFY2IbOG9Gzo4F9ni8axkf55xjdkAbMekYnTHoONgu5NCyHyc38jsCj/3Ad5+C3xLfHRCLkS6ZgQceeudOgT92AeRGx534kxsdFgfn5J3nUhgHBdspcFpIvULINkzBTHoef0WaZ5fHgXgHtIrfgT3KgdpgXY/forEuckSt+mjZABCTjMQ90GVfDj/J12S8mECDX9YFr0LryivsOrG644M8+U5+LB3HXuvF68gNckU+Ne9XbT0VPy28ExX07A7yvq+8YyfBXyYBcsljp/4wCZDCR4VNi24HjQuvFkQUcujnwsp86K1Cg42izT6TXfhHSwXe86t2PBuki1x5Pjya2kVe2Bb3Pb8TaewLcaItYoNf5AYt6LnlPFl95sGvRwPPjWPi+GwMahu5vQrGxxMjzz6NkeNl29yHD5YFjdvMj9cH71QRPUODFfBPQHj40k7c+IeVf27TZY8zdDq7h/LMTdf+HBc37qPAebTEo4KLAq8tFVqlVeTVPoCoQ451tA8gIN+JN8WeY0Pib/mQXDBfj1mvMjbW434r957c4HzYHOCYYwKNW+ZTzIgHftBqLCTLNO07ORIbzIePLpoXJ8bhxUI8tU9yg/GIvPHBel7/aze9UW6wfSreFdBdfkJwGzJwDP7P7yLw65glB7v6V0wCclFMBc4UyIKGgtoq4tAn2ZWKPnw1YsRkw4tVizbFU8ghXs9+BgQAhY5jTAcxk8+arhu7F4tHY/seH3FCzpMBbyRmm0d7vJbxVeJl3ziXTOPzlfp5jAMZGjvOA+Rh146L6ZDNk4bjFwad5eeKd7VYnrVxf+GrN+1dOtpt8JddAMnDLv/xJMArjgXNrIxS8fNoKKoebxUa7FbaIlbIAAA9v5Ch1rUxwnd1ZvAOaCPOAAAgAElEQVTr2R3QeFwOgCf5lgzzxmKeIks5UwCdkaZgjZhhm2IcjB2yJJOB+yUAueYXsrDrtcaO2Pr6239wId+pXa4pMfYtzoBMTr/48JsD/OX6/+FLe/d//k1bfLY2E9pTF1//k7bwoXgC5FEge4p5oeuAUo8N+NO4YCcXZvbBfQADaKxv/UJG6Sj6E32kWI3OXH7teNhX6gOYGrGrnJFROnILW7m1Y2B522fZKXltjY/tuHIUbyErdIy1MZZCB/JoWS/TCnnHt/DlXycBsROwmQIWXvozEOBfvhHwnkf2+5N3ViUXB+fk+mUqcA4YoPCBr8XVroCcwpuAAkW1Ij/JrrGhurYg07HEq3IUC2JTHukojXU9fovGulP9tuyCx/ZBs+evIjMYO8XHY/fkmM99yKJVXi22TF9KjseF2MmPxKB2we/QSbHDjqdHPLYv/XR87OO5Z3/iusU3f/qHPnJWS0aM6xRmQMD/8tEVvf5tbojbSfrnn3r1KTyTawiZJgEoZFpEUQi5qKIQtmikx4VVC2ePDZJhG0U/++G4dZJC+p5ftePZIF3Y83x4NLVbyY/yPb+9NMTXkG/6yfpeXqo0x5cn2/Tr2Fg2v+w79T3byJMz3poO27Vj0WNjF2OQVvSff9ePvBiTgDXUqjA5PQOy1R3gX67+ZQJ01+KaM/1bAFM/KboTwKslFLpcXFHgUiFs0UhPC2pLnn1W5NiO9h2QTbwp9hwbxTg9vkObxa9jV3LN4x2LbRCH1adzg/Oo9iu5rwKf2DK5VlsVv8yH3R5akjG+ED9az46ND7JoBzpeDihnKs+xgJ/zIT5f/IW3Pf/8z/zwb079HoZ8ZGC2DDzw8BsD/I+G4C/3AMTfMAN5EvCcFDApkIOimwudFkEqfEyDXiqysEOyaruXZuJB8ebW+mz6oCLftGHkCh9eTGP5MfZsnquxQI/zBVojDthHW8TPtjrOEetyP8UMfROT69eLt5fWyC/icH0iPjNmq6PHLIcxEa0YfyV2eURw8Ss/uYhJwLDOBGUDGQjwHwK/Xvo4fDpW/5XP4NdueMN18jvog2LIKx4UxQqt0B2RTcVUimtLjopvYTvT1QbLTbTn2iB7Ht+jTR2HZ8OjpXFzvmux9chAl2Vb+fJ4sCEt+EzLfW8sq9DUl4mdbXIfeUOrPNJPNDoWH5DzePYzCFmmC03uB4hJQKXQBHl9GZAb3C4dPr2T1/YV5J2Vv/IOH11f8k+75cXBOZ4EoACiuNWKHfhooWfl7bHIj9FgS2Uz4DAdwACatcnHkLH2rI0evtVhP6rPYNgRu+hZu4kGgG3YULmGDI/fxgh9Ow7QU2tsQ5btct8di7Hh2fVo8IV4PD/WX5eOc45gp/DVkCtiyXIvvPctaRLw9Xff/MnTXhoi/lOQgQD/xsofk4LDB0/BmTzBEBcH5+Q954OdgFy0pTBqUW3RCLC65Ct2AQRsQ/vw4U0keu15NljX47dorEv5GYyjZcOOh21aHo5HZMT/IG8Un/IqNOX32pkyvizLPjzgdT975GcZHfWJcXMsnFPw0ZJftUG0NIG4uL94+Zd/PE0CvvmuH/43J/itDtdnOQPy6Om9D70mVv4A+Up7/JPHd5/lj8I8Y6NJQCpuXAi5QHLBM8AAPbcod9qArtvmQlz46S3OiNuzAZ60Hr9B4zhdUIDtho3meLKeG5ex7coYvzZGeyzjceMZsdPjO+XK2BmjcX7R5/i4jxggx21LruDlnCYa8su0sfORXxIklwLkXyYBixv3rpnnSxpWIgM5AwD/Y4DrWAVXAFK3yc80/8743PRkIE8C5H3nWjx5IkDFTwsk0VRHCibRPdkxGvO1D3Ciwpx4HTG2bEisTf66/PbYtWPFsYkZuedxuDTWa50j+KF2YJttOWMR/wOdZWjsx4vZi9HTITnkRj+nzPN8gEZyg7HB58X9BS4FyCTgWz/7o/+55+sXMpGBrgzIM+2XDh/d2V/2mzJpkQnSvUef7sprCO3tyd2ScjkgTQKo6A2KXauQoxC2iuWIvoIHYjBtige07KcaI+RMO7DR4mfeQKdjHAoyng2Phrx5vEyzAFbE1aMHH9Ry/tge93UspKe0hl/PRi8NY03y7Ff6nk+SYR32hz74OIYvbiEjtEKu5vvi/gJPBWAnICYBUV1nyQDAfwoIhuxts+R+l4zoJICKrBRbLYa5+Lm0rNMl69mkAs6FGH21y3Jj8bAsCrmhwb4WesNfl9/CLufDiTPJjsiMxs/6pp9y4OXS5KI478QrxpLpq9AKP5W4Bvanjgl2aRw1v/wZaeb54v4CTwXEJGCXKucaxxrgv9yljstHH13jWTm7pp++4fteJzsBtsDa41ohtMUSx2P6iZ+Lcq0vBVr9csF3QKfXBttLsRofHs2OhY+n+MV4kg8ZA0DJiwFA1ZLx9CDPOWI52LUtyxgbiJPHOjvNmQjxuXD91XQwNh6Tkw+cBz6fBQ15YDugkQ/cEIhJwF//w3/w389uxYiRrS0Dx+D/YDzqt8S9CvcdfWBt5+WsG37sB777NbgcoMUQhY6Bt0JjHe6jgHs0j6dyKK5ega/EM7Dn2WBdj9+isS7loctvtpvGx3Zq/npk2CbZSfHgGHHiWFq2zX2b6xYv2+s6X9ZuQxcgX8RIsQ/8YXwcK/ehS3JFfoRPPLUPGvS9MWQ/omN3AWQiEJOAs141Zx7fHc+8au/SYYD/spcyLh+9e+YzslvmZCfg8QuvfUQLIhU/KZpaHImeaLlYDvokV9MfFGPRceyBxvJePMr3bHA8Hr9BU7uVPCi/YYPzk+QbspPtObY4PwPfGEfW0/zi2MkVZApbjt+V5NjvyGeBx4d8ebGBx20hZ3yy3ULOG2vOo8i99Es/9jJ2ANC+8J6bj3arisRol8oAwD/u9l9u+18mDQ889M6lch9KVzMgOwFpEpCLrxZDAAOvrkAzBVQLrSdraGxf+wAnspt4Rjf5MbSWDQGmJn9dfmkcmptM43iENxgnaMaG1VNdlsP5QevxmMZ9kyvE3eV3lZglBuPb84l4CllnnKrLNh05144jp/ZMrkRffjYYwM/tC++5Od5QdrXERM9mIIH/0d2x7b/Etj/vFnzhqzfZ1MbxEhl47q3XfpdMAlKxc4qgBRuW4z6KtFc0WY77UkiTXm4LXi66Y/ZGbbR8rMkvj4P7iLWgAVymxtmIXc8ZbHIuW3oebxM0iQ+xOv5svtKxMya1wTzuwwfTcr/4/ELOiYVz6+0CyGQgJgFLFKJdUAnwX37Fz+AvffmFxPibJwNXbjz/HU9cOP8lFMHUeqsoKoxchFXP44NmCq3qNIqxFnQvFseeGxPJeXyPtrRfE6dnu6Cx/BJxVm15OQfN+jTHhc3GuZlbjj8PatvEpjI0FqUhf6wzIpd0PXnYquxuyOdDYvTuBcBuwAvvectj83w7w8qpz4C84U9+uvZSrPxn2/mQlybF33wZ0EkAimaj+GvRzbKpYHMhdXQhI7q1PoAX/NRWijFkrD1ro4dvdZbyS3FqfoRmcpR4JsctGR5nSw4+OfZC18ZXiaHlo7DXGNcycp4OxuTGROMpdDM90UhGbHly8MHyhZw3TrJlnwjABOB4J+Atj8UbA+erUafWkoD/5cPPzQZ+djW8i8eymxJ/82ZAJwEonAAJBnfuoxBCXlrmk34qtIbHRdcrxJ4OaGibNtgfxdjUgRzrtsZRkWcf3Je40zHbBw22cmv1VJfkBrZsrCTL52agR3I9fr1YlqKZPIiN9G/oRUzMw3ihJy1oHXJql3Q0hmxTZeADdp33AvAEICYB89anU2ktwH++bf+rE53nT+Vn4TQEnScB9zBYoCCmQmgLZT4ueBVAg52i9fThAwV3zJ5ng3QBCEWMns6Sfnk8ng/XP+KDz0Y8ns2Clm0lGuwyDT7AqxwXNleJp1cX8Ujr6RAd/EGus40idrZrPjue3GjeKrGJnrwd8IX/8xb3hkBMBuRygHyvTsP3P2KcMQMB/usA/0X6saQZT1OYMhnQSQAX0lwEuQCjPyigkMVKKRdylWO6KdBiM8mxzJg96Jh41Z/Hd2hT/VblOY7c51gEzIpjT2YiTQGSbSNvYovog7idXOh5yHFUz/UquhRTzR/8ass6GB9ajnWCXLLtyZO9wfnK8kLn3wgA6Nv2xV942/MxCTCF5iwfynX/S0d3xrb/inf7X13102Qifgp47V8duXb5+IXzd9nCDPBQOopvbgeFEgDBfKMD8GLbKPhj9qCLdmDD+Cr4Xky56Hf7deTZB/cRI8aGY09mKi3JtwALPOTDHnu52ARN4kBMjr8iD4gZnyk6HnweM8/mpSaHc8LyhW8nNujUHgm0kwDZCZCnbtb+5Q0HJ5uBAH8C63VMAI7ip4DX/glfHJzTSYAp0FKwuVCiEGrLfOiaYq2yjULNwKD+GvZUpuLL43u0Hr9Jzxsn4mMej9HQPf9L09h2pT+Im3K1tN8WIJN9OeeeD/4sKJ/jFxt87OUYNPYHmqdr5Nhvige6JKcyJh6hW7CvHctOQEwC1l69Ts6BgL/8Ul285Gc9k4DjvMZPAW/qEy6TgCcvnP9zLtLaz0UyFcaRgskytT6AF/zUVgowZCQW7lsbPXyr0+sXebDyoKe2liPky+OvQjP58HKj8a3iZ2bdIk465zg3iNnLNdOqdpCXbNuTYzuFvzxWGwuf3+ff9SMv1kDf0mMSsKnqdQJ+Lh/dHtv+a1n1X51QSI7jb3MZKCYBvJoyRRUFUQupLZysy30q+KoLGsu17EGeY2Jdj9+isa71S3oKCkZ+MA7WMX1PdmkaYjU+5NwkmxwnaEZ2ad/L2DPx2M/QIGaMj/WIlvR5PBPkrG89t2xP+mwzH9ufCragb49lEiBv4tzctzg8rTUDsvIP8L8K0u61+5kmBvFLgGv9KLvG8yTgDhRJaVGcbV+PbeH0jnPxZlte4fVAKcWSC7D6BBiwr4aPZfwWOuzH5ATjYPla35NdipbjqfpBvMjTxNyw3aXiM37tOdRjiROyPCbEP0br1TVy8J/GyT48uUxDTlrvBLATADmWpwfkNzncL1wQT1cGAvw3A/4ysYhfAjyZ70YxCUAhtqshoaNYMq/WB2jCHo6NfCrMhjYo0mRDYmjy4Yd0UMhVrzIOgIQXU8FjHxwP961/OhZbGgvRPRpisW0huwa/hf0cYy/NniPEzvrab50LHhfkKF+1z2PyZ+Q8f4Uc+4JuptUuA7QeE5TXCcck4GTq2WxeLx3dFtv+M63uO3YOXnH/w7fMdu7C0PQMPHnh/B1aKKkISqEc0EHLhTnxUaRNW/Cy3TF7XNzVP+yKDfRzW/jwaGN+mQ/bGKPHI5kCSCi20Zi8OD1a9l/zo3RP96RolAeNj2k5roJn8g0ef1aKnJq8jMkxv7DNsXA/2596GQC7ArJz8PR1+98//ZsYGieeAdmO7gCtkJlxgiA/BCSXXOLv5DLw5JvPf8pdweXirUXUKZQoqtyqPBdr6PKqCzSWy33XBsl5/ILm+anQOPbUR1xoyW+RJ7bXAWTwU8RZGy/bpn7SpWOx2WVvQ3IYY5Enzh/6PAbkuUJTmyO6nlyieXZhK7eaQ8he3G++EAiAb1vZIZBJwNdueMN1J/eNDs+TMxDgv7ltf55kxQ8BTf6orkVBJgEAFyma3NdjLpa5aLMc97FaBy21VHT5GDLqhwDB0ljW+hBZ0FIf4yC/as+jwW8Hz4sDvj3eUjTEj7jQIj4c53YpHzPrFjFInJ59xI/x0fGU85N8ebrIi8fLNI6T++r/4v6idhnAgr53rDsBsbpZS72a1ahch45H/U5mAhA/BDTrR3klY09c/z2f0AJoiicKObdagLFqMjrKB53lUKSpHcgzQLAu7DHfo3m2WzTYYF+QB09aj5b5zTGQjS454yfpcGxT7Y3laxV7lbgGnyeWw/h6aRSfngNP18hprsmfxCU2lAcdkul9KZA3ARBa7ASsVI42o3z3o+8L8J9xS59X9z19ecVy/G1PBh67cP5jKK4AnFQsUSBbbS6ehR4KKukNii7xRn03fBR+2Wbue36ZZvVbPAW23niWkeO4bR6XsQcbc+tyrhu2+XPEuQV9jGbPD/T0XDTy5dlWfY7Z2KiBu9BbNwRCTycBsROwPUUOkQj494BUyKxnd+Dy0RWcimi3KANpEsBFXfq8Wqr1nRUmirYWYAIhpmnfsVH49viWVouv4jsBAXg8btDQVngcO0BlFVoRD/vmcdkx59hW8bu0bkdcGJP6wLhYd4SG3Gpb0VU+zlfFrsZCckoTnYv7C7mzH2C+SvvM9fs3b9FXPEK5fPTuAP8TXPmnSdXho/FB3NIMPHPj935wUEgBOrmgpmJJxTXJe7wxcOq1YeRc/yjmXqzEk1i12BO9sEl0lUcMhufuXHi56KVZ+3yMGHptbUJO4mvFRfFX804ymm+PBj+ZV7Vn5NLnE+cdPLTkB58BaVe5D8BOGJ66+Pqf3NKv+06FlR49i2v+61nVT9stuTueANjGr55sVy4Ozj153f77i9W3UyxRVLn1CjKDg/Ib9lSGCnOPD9XzbFdWjFUdT57jYT6Ahfkr0mzuNU7ysU206vnhPOG8rEKj8Xd9rjxf2UbKX41/cX+x6n0AMQnYsgL3wEPvjGv+J73yV//xOwBb9vUow8EkwAAZiqYU/FofhRn81FLh5mPIWHvWRg9fZUyBFzr+2bdH43h67CFOtIV+BrylaN4YVrG3AV1vnF6OV6EVPui8jp2rpOfllGnUF3n7PoCe6/4W9O1x2gmIewLKWrOJowD/bVj1X40hfgdgE5/61X08c9O1P6fFs7KCUz4V5AHNW2l59jwbrOvxiQYg1lZ4rO/5JBrASVuPx/bI92DMmCSRjAUq+PF0izFkG57cidOcfKSYmE551HiXoCFf2lZ8KB+5J18tHscmfQvgrePeCYJ8p1b/ZoaF7gzc95V3xMpfV95XQXjalv18enIJJn4HoPvje+KCmARocURR5TYX2CTTKLaTbXT6KPyyDvU931UaxkD6NeAofDfyMFUOsU3VS3HOGMeYPc2L53PFSRByoD5gz5yfXjnYKXJqzjHzXnjvW5Z6KVBroiC8NAmInYD11zZ521wCnMOX4sa/bZoEHL17/Sc/PMyWAUwC7GqaCy/3pdCikCodRdus2pQPHS7ILOvxLY3lTT8V/15aLQbWt76zDo+nABy22auLnJHurPZ746jIFZ8HihHj1l0MzhvGtAqNfbXsQc7zBZ60hp9yfHF/8exPXLeWCYBMAr750z/0kdm+oGFomAEB/0tHzwfwbxHwY9dBdmXi73RlQK5fAnxQIAGq3Ba8XGShp8AAQKHi3bRh5Aof4FFBZ37VN8mLb5ZjfcRc0OAztx5vDlqygdg25LN6HryxIocOD7EjfzbHoC8jV+QWMeSW7Vm5Fg/xoBXZdU4AYhKwxvr3xYffHOC/hcCPCYCcn/g7XRmQXxGUZ5q5iKJYonV5BFzKB80Ub7GjMg6vyjcrOMSTWvjyZCq0Ql/igA0nJi/eWWmO71ntV3I+6oNz59lA3Cw3E807Pxov+fDkis8EzqeJMdm6uL+wNwLy1v7YNf8xPmzFTsCMdVAuqwT4z3e9HoA9dxuvAZ7xQ79JU4uDc5gEoEhKQeU+wBK01KLQQjYfQ2bMRg9fZRzbwsO/jcfqFXIAE8cmx27HnGxk3ZXlHN9r9YcxN+JHjnicbkzL5p30xEf1nCFWzpGna+QQf3Fu4MeMG0C9zvb5n/nh39zk1/jM+grw337wl8lEvAb4dH8FMQloFmcuxGaFZYGjWuDFBuuSTU8HIKSt1QcQsM0WjfypTdYlvhfPKjSbI4AW2lVsr6KLuEZtcJ5aOV5FjvLvnh/4hZzni3jIrdhK41vylwGXmSzEJGDFmijgL6+YnXu1GvZmnlQcPr3imQ71bchAngQ8h8KLggmAkLag4RgF17a5WFsdLsoDm2M65CPZpWO11aBVYxEdz/fcNC+27GMj/r3xcEweH/FluWXyjnM+pts6P6xr5Twe0+Bf2nU9CeBNEr7+7ps/uQ3f7VMXwwMPvzHAf4uv+ReTqMMHT93nKwL2MyC/ff74hfPPecVzQAMwYHWVQZTluJ+KMMtWJhBNHdav+B/4ITkGgoFcbzyryHnxEwAPxr6Kr15djsnRSTGxDOVT452J1jw/5MOTw/n0eBxn7yuBx675j/ExIfjmu3743/jftqC6GQjwn3mFvsaJxPEjmZ9zz2MQT2EGFgfnMAmQQoriz8UVNC2qvDK0RTofQ0eLs5Er+BUdlrG+NVYC0yYN/iGPY8/33DTktZE3HutGdgYkllYOOFbkbJ00xDLmw8jh81Xkj22s+VFAgL5tZRIgN92ewoqw2ZAZ/OMd/6djIhBvAdzsd2Tt3hYH556+bv/7ZScABRVtAbzeqtCAQw2EYa/GL/yITa/Qe/57adnmwI8BZ8Q5t5yOxxnX3L567WGstXPCMatNxN+b9145/hy1fEDOswtePtdpfJUJQO9q3gL7lONv/eyP/ue1f3dPs4N7Htnfu3T4dFzzX+OKvdi6n8lPvAXwNH/rKrHTJCAVeyrCDBS2z7LcB3gwjfsev6DlYl7oMI2L/QQQByhIW9jO410rjWJeq5/OsYzGQPFqvtZEK2Jp+LBy6TjLWx5invtHgWISUKkhU8jyGFmA/+lY8dtJhPwcc/ydwQzkScATF84/lYAShdistrTo0iRBadABwMox63t8oiW/ZFfjYBvEV78VGvO1z7GRb+bD72w0L/5N+c5+dCwcy0gMxbmr5BjnjO1PpSHf2nKM5Ff5iHuEJzEtOwGYa5cgdgJMrQzwP53ALxMBuUwTbwE0H+izdMiTABRXBpBM02KPQiwt84wuAEHapAv+mA7bh24vzbPd8tuQH425ocugxXlbxeYquhpPI+bC/tS8954fTw7nJ/M4X4jbxga6tJYnx62XAU1ZzbPs1MnBX//Df/Dfz1KZWHosx+D/aNr2j2v+p3MiIPdtxN/ZzoDcE1DsBJjCDLAvVogowFzYeSXn8T0a65h+Kva9NI7D6VfBxciuIteKl4FLwWtG317co+ercj5a41A/+Iz0nh9Pjsffsge5lo3MW8cEgCcDvf2dnwR8/qlX7106PAZ/u60cx6dnMiDnMf7OfgaevuH7XieTAC3wAAcUZhRhaUHLbdIBbYxf0WEbHAOAc4w20Pf8bIKW81SNF3naYCzN82XisHHb4zknL3zOcJ7Rsl8rV+MJXf5bID11Nd+yNcZ74T03H539yuGMMMD/9AB8ezL2vHN2g3RWM/DYD3z3a3QnAEAF4OfVF2iYJNAxCjhaLtZVmuMrybJPyFRonnyX78oYVtFlwFU7iJ9ypbx10DhPU+2zLuJeAw2fB20rPpSPcVBMBU/o9DbAdYJ9r+0X3nPzo2e1XgzGJe/2v+OZV6WVf2z5n+5JQDp/h7vz2R18mHeUIJOAxy+89hGAWAIpFFwpwLlf0B3aGL+wkwt7oYNiPwGgCzCAvhNb4Rtjm1EujQP+TfzFGGf0mcaOsZDvqWPlHNpxCG8tNBN31YeRQ6xFTi+cX7z8yz++9M8C9wL72Oqf+TszCThe+T+Ybh5rryxPNzjuytguH8ZLgHZuHrA4OKeTAAYS6lcLtMjwKm5EpwAtLu5sA/QOmsbFsusCLRqbC4wcA40BoIVWYyZ7q9CQU7bB/ZrfJFOJWfVpHLPSaOyYsBSfI/iFnBdn5klcq0wAGLjn7J/5ScDxyv/BeM5/pufvt2GSES8B2jn41wE/99Zrv0t2AgAMAhzcR6EuaCjQ0uaiXfA9GuuYftLtpXm2ARwN3mh8q+giZ94Y1hUb+5rqI+tOyjv7a423IVecgwlyHCfbeOmXfuzlXvCea8XfY+eF97zlsTP5xkCAf2z7n62djXgJkOLhTnau3Hj+O564cP5LCv6N4rzsytOu9LSoE3h10UxsWOmiVRskt3ZaawzrioNXx1N8sF4r7jXI4RxpW/GhfIyL4gRPzumUCcDGJwpnbRKQwP/o7tj2P0Mrf9l9kMlcvARoJ3G/GLROAnKxTaBpCm9Bk+Lc4nt2sHJkHop8bsfAmmOo9REX89dKa4xhrTHQOej1wwCKPtpkozGW2eTwuRk750au8H9xf6O/CNg7gWA52QmQ71XxRTuNBwD/bdiujhjm3334wldvOo0fy4h55gzoJMCAgBReDxxQkGv8gY4t6DiurARVn+SSTyOvchT3JmiIBa36tPGuMa7u3PM5pPi8mNdOo3xgYibtwC/kPN7IBKBnq57Bel39Uz0JkLv971pcs3cpVv5n+p4H+f2G+IsMSAbyJOAeFOZUlAkwFHAybYxf2MkFvdBBkWeAGqElwCUZALCNrfDdGMNKciYOBTGiF+NdJm+N2Nk291tjsvmrxkxj0NzOQCvibNizcjbOF977lqWfApgL8HsmGi/+wtueP5U7AQL+cod4rLrnX3VvS07lEoCc5/iLDCADOgkwxbkAAV6VkZwt0go2BsQSnW0QX21UaMzX/oQJBOsgvqVpvWMYydFk/8Zvrz7GKxME1ankeZVz1NLVGJCTSiyFnI1xZAegF+B7ALxHZsyfTALkhlt8x05FG+B/doFfJiDH7wB4+lR8FiPIzWZA7mJ+/ML5u6QIJ6CgAuwVZk+moKHYO60CEfGqtBxHYdvE5vHWSkOOKH7NW6bN7b84B/DbyE3hH/IdccNP0ic9O76l5HDeOEeeD54gkOw27ACMAT/zT80kQLb+Lx3dGe/2P2M3/Pm7DndvFlnC2+nIwOLgHE8CUOBTawpyFziwjukPbAIYPDkDEEVcJwho2HKvraznjNP64PxzHz4LmpfTk6Lxuew55yZOfgqgZ5XeI8OAPXdf/MskQN6/sdVFAODvA8bZXhXv2pjvPfr0Vn8WI7iTzYBMAp68cP7PFeAqRVvAJgENFfIBzcgUwLcUYnkAACAASURBVEQrOwAXWpZjH7U+YmX+RmiUG465GEcrP5k3GjfnythrjRNxSFuNj8awbrlinA2/Vg7HPAGYC6w3MUmQFxjJb3Kc7Dfb8Y6VP57zR7troLhL4413ADhfhCAVGdBJgBRpXoVR0e4CFIAV9HDMNkdoCcSMfJfvdYOeicmLM9Ew9hXjAdBbm3Ls5aMaT2/ca5AbxF7xUZNbxwSgZyKx6iRB9CX2rZsEyGowQH+ndjhecf/DtxTFPg4iA14G8iTgDgCJtFiJ9dIATIXeEoA4AASxkScOhe0N0hATxohjaZk2W3w5b2yP+24+WIfybmNE7Bz3WmmY9I3FZ+RaE4BVQbpnIsAyy/hLk4Dr9r/f+75tnCavg92llW+M9Xii88WH37wnOz/xFxkYy0AxCTAA0g0iXMQrKz4FHsgaOeZr3wDtWgGLxp78m/iS7woNcaHl+KfSAPLS9tpxdSp5bo1D/c2hS/lsxge5PN5t/C0ATAp6JwTpcsBJTwIC/Hdq1V9M9OSHneIvMjAlA09eOH8HgE9Agvso4FUaiji1CiY9tAw4nv1R3wRWk+Nu6ea4lxnHSjFTvgDWY+OyMdpj1Te21ymXbCO/Db8sJ32A7TJtL0D3yi0TA3RkEvC1G95w3ZTv4GyyAv6x7b+rE4DnY/U/2zdptww9+ebzn5oCFgxQAnoKKCj8vTQDEMku0dTuhmkA8u6xzRRf4Q+TMbLtnqPeXG9Izp7DYkz0+VA5oV3cP/GXAAHA52hPZBJw6ei2YjUY2+I7NhE4fHC3UCtGO2sGZBJgV2VSmFOhzi3ztYBngFoGrNlerY8YmL9umh2LPZaxM2222AD2rbxXzgXHg3NzojSMYeTzITF+7aY3zj4B2MRqvzVZ0EnAJq7Jyt3fAfg7BviD9xrcOSsghLHdy8AT13/PJyy4tcBEgFhBBgV/Ai3ZNvJqD2BowLYVz6y6Ji4vVtAQE9ql4mB/U8e+RO41xnXpyhh4TBU/Eoc3AWgBeIvXAuV18VrxPHP9/s1rrST3HX0gwH8Ahrs1GTi+7HPbWj9nYXw3MvDYhfMf615hj6zuAIhoFXQI4MAr2gwWSZ6AQ2Q2QeNYvJirtCVjZX/dueccmXxW4zsBOT1nnu88Bm8CsC6wZrst4GY57i+js7ZJgIC/FP+47r9bgO/t9sTPAO8GQG9ilGkSYAp2rZADsHpWewnozKpQwYrpAHoTg8oSfU5assVxEKCrnxZtibgGOZkwduii7YpxlfF16HIM3PdiTPyL+4uvv/0HZ78EwKC9TH8ZoG/5eeri639y1u/u3Y++L4B/x1f+PBGQRwDjLzIwVwaeufF7P5iKNgCJgE/oKN5a5DP42WOVJXBUWrYJW8lfxQ/zPPnZaMuMg3Wmxs95WUWXY2CbOFeboDnn0/s8pHNJ8T77E9dt3QSgBebL8tIkYI57AmS1x8U/+rEDII8AzvHZmgtAws4pzoB8kBYH5568bv/9usInACmKeseqEOCtegA6ssmggL7Kk9xaaauMxRlTV6zsc4lxLrvzUj0nHA/G1Euj+HEOPT+al2x3rgnA2Kp9jL8ssE/Re+ama39ulcqQ3vYWW/4B+Dzpu3x0ZZXPVOhGBvwM5EkACnZqCRSKIu8Uf+ixHNPYXq2PCQjz10VDnBzjUjSTo9HYJXdZZ1TWk9vkKt+cZ84Vx879IocmfpF7/l0/8mINRLcBtGuxLUtPk4AlVmsB/rHlX9n5uTtW/z6EBXWGDEjB4kJfFPQMXsrvXS0SSLq6BDTK3wStElcac+/YlohT7K8yTkwgpFU7c4xlgr1BjigPGh/T8piX+SnguScGc9nrtfPNn/6hj0z6aj7w0Dvjmn9MANwJQPwK4KSvUggvkQGeBCSAAbhQQWe6gpDl0zEmEoM222Z7AJC10pzYesfBcsvEyDrc7x63iZ3jQX43QYMvGzd8F2PLMS8zAehZffeCccuWZ8OjtWzUeN2TgPu+8o4A/wB/F/zlUkD8CuASiBYqkzPAk4BU6L3VIQORxzc0AIMAhvZXXA2zHQDSKI39m351rBU5+ETb9G1sNGUptwM5Y2dqzGoPE7sl7akd7xzCNsaRfchLc2ogedbpo5MAAf9U5A9fqgIAXw+O/u7dHyC7Q/EXGdhEBuROZi7yAjR8nPqm0DO/AMXGSt+uIAFo6g8+GjaKWBpyiMnarsYNAMttVa4jRvat/Uas3phUz5wL0Kvx9Y6jV86M155DxMFjkP5ZB/mx8T3/Mz/8m+539wtfvSmt/OOmv90D9SkTuQcefqP7+QliZGDuDMivCMqLTaRwo6Cj0GvLgEGgMJBnOaev8sSbmyYxq03ESv5cvqfj0ciO+iCatc0y3K8BeZLx/J4UjceW+4NxcI4v7i9qLwGaa5u9Br7rtg+/vX4GkwAB/0tHz8eqP7b+m58BmRwucUPp3LgQ9nYpA4uDc4NJABV/ABOA66633bS4/effv7jt1g8tPvwrH0///+hXb0804UGO9Wp9TDKYvxLNAarCtsMv4qVxCz3psg4AL7dV20aue0zsqxFLb8yryPHYuF+MheOd+BKgGpjW6ADhdbdz+f/6u2/+ZCoj8lKXAP9Y9XftAhw+GBOAXQLfLRrrYBKAlefF/YUA+y9++N8u/t7vP7F41f+9WHz7H7/4orTe/6v/+NnFLR/7kzQxuPOnblk8csO1Lycggr11ARvbtwAsPit8BXnS8WgAU7Qqw+OBDablvidf0FaMT20hhhXttc4ZeGjFt/zP9Q6AOUF+LkCfGpP4TZOAAP8A/y7wT7sj8SNAW4SJOxdKngQ8h1WeAP9Nv3Pv4ts+64M9JgDf9qcvF5MBked/mRDIrkEBngRUQk8AtiQNdtWOA8CQUaAkmUm0VowM9lmud1yzxUfjquWjd7yICZ+HYiyOn3VNAOYG8bnt1SYH4uedf/QfAwD7AXC3cxVPAOwc5m7XgBcH5752wxuue/zC+edk9S7ADvBHC9CvtZCzrcjLDoJcNvjyW697QcEF4O8ACsvUwKxnZa+AR+C9NI3iVBtEA1gWcRHf01HaHPGtuPLnWLRvz5HxkeQu7i/W9QigBdhNAbj16x2PxSL8G/7ss7sNbDEB6Dv/8QTAduHhTkazODj3v//T/+efMsADzD0ar/65L7I1PaHLroBcHgB4KMATCHbRMrgyWGHiMLBNQKy2J9LYJsC+oBl7roy3O2D1LOhmfnWcRn9lOXMeMA7kVvNHY3npl37sZYDkGDBCbu72pPy2xvH5j/1KHwAEUO52nuQJgLgJcCdhd2sGfc1vf+sjDPTcF+AGqKNlPvfH+CIr9wvIjoBOBJYEMQUnszJlsGrKeHoVWmGzAtLiiwGY+9D3aIUeAbDKbpJmzkWKm8eFWJCDi/un9vn/3klDr5w3GYhLAfEEQDwBsDUwF4F4GWiBP8AdwM6rfaXlewX4GH3oe61cGkj3CABgAC65TQDYohmwUsAkcALwomWZpWg98bRkvLHlcawcWyMfvWPlnHNf9Dk+8GqPADIYegDq0VjnpPpzxxW7ADEBaE4ALh0+6NXkoEUG1p+BxcG5V/zWcz/rgTNoAuQ1MC8mA/mGwJos7HEL23//976anjgASFmwAZ0BCLTa6nmMr7YIrLtoBLIqLzRMYojfNQ7WmxrLGnRT3tguj4fig9zX3/6Ds+4AzA3AJzWRgF8Zz9/5r/fv9hZ3XOKon//4DYD141x48DPA4A8wZoDmPoAdLfO4D/6YPdaRvsjLI4fp8UEDNAloWzSzOlXwJ/AqwDrTl6F5sRT+cpyenEeD7jKxrEsXdmVSI/0ibpPTdT0BAACttWMThTF+ze466HEzYOwCVHcB7jv6QFz/9/EpqGvMgIA/wBoAbEGZ6WOrffBhE61ns0XTywITQRpgVazEeSVLEwgF2yVoCo4EhIVPACbzx2hLxLHKGMZ0lW/jNvkUuU09AbAqMK97QtCyf+tnfre+AozV8e7mRt4AKL8TEX+RgU1mgFf+LTAe49VAHpMB0a/JjNmW9xDIY4MJjLyVqEcj0B3oEU9XtavQANpsAzQvtgbNTioYgMHbGM2MQSdWNE7OLT8BsCpIe/otYPXk101bJp4PfvJfL+KXAGMXwN0FuOOZV22y9oevXc6AXPP/xF+/nQG6BsQAbmm5D3m2gT7kVGbkRUKQ4xY2pJWnBeS9BABB2xagaFanVrZYpRPIqY2pNAAi+wXNrpwzXX2RXIqTbUyNY25dGxuOjR9MAmqAuwxQ1mytk76JOP/FJ/9ZTABip8PZ6Th8epfhKMa+4Qz0gj8AGWAsxwB58Goty0EfbU3H0iEPW/LIoAJ4BkgAkAV6BllPhvnQXYY2sO3F1UtrTBCWiW2ucQ3GiMmAtI0fAaoBtge2Hq2m36LPZUd8zGlL7KUJQACgA4A7vitw+fBzG4aAcLerGZgC/gLACsLOKh7ALMCNPuQB5jhGC3qrhSzaZD/HgksCOhEwYKRASStoAGGhQ3xPp5emtikO1Z1CMyvrZPcEaQP/Gex1bIjt4v7ipG4AbE0EtpGXLgHEBCAmAPYzEK8A3lU43vC4D67cCKAGqLaAGDwAsW3Bty37EB4fw4bVsceQQ8v81/3B19IlgQRGAPIRsGWgVhAb0Zkk56zyi/gcvkxIOC7pT/JJ8a9DV2Nz4gRP4n3+XT/y4qYBd+7V+SbiTzcByg1fFgDieKcnBa+4/+FbNowE4W6nMiCvlzz4xpumAjHAt9BznvMHH/IA67FjyHErOtCzLeSSzJ++nN4imIAIq9G8SvVoCqwAsw4dz04vTf0RSHu0dexKqJ8Vxwo7qTX5Ak/i5xsA5wTmOW0xwK9it0e3JhOPAe74Vn9tonfPI/s7hUcx2A1noAL+DLYA1yktgJ91LI2Pa4DO+uirLP3SIGiQkdb7TYEE0hl4AV5CU9AaAeVV5Ng3Vvgcg0vbUGyTxkWTBx4TjwV9Btdt69fAeM44e32kFwHJDkDsAuz0ir/YAbp8dCWe/98wHu6Uu4NvvOnb//jFFwUsGUC5z4DKciLDcgBzpkHX0mrHlm71he/JeDToyhsE9RcGzUqVwQvgK62CIQHdXDS10wvsa4ghjXuVcXqTJMQpvGy75w2AvQA5JygvY2udcf7lr733+AmAAP8Af94JiBsAdwqONzvYjz/7BgvaAFJu0QegSss07kMGdlkWch4vyY2s5qFfkxU+y2gsnz3+qWGdBBjgxUq1mAwYGfAYvJeiASRNW8SQeaBZn/ZY4tg0DbGlHGAsNClAbpa9AXBusJ3b3jITiJbOH/7LgwA+Br7oH38e5AbA+AXAzeLiTnj7+LNvsCt/Bk+ANNMA5kyzcswDAFvAZrrHszbkGDS0sIFjtKAnu/RkgsQpbw+86203Hd9YB9BCS6vWAtRWWSV7ug5IdoG3Z+sEaQD4QWtimvMGwDEQH+O3AHhZ3lw+49cA4/p/sfWPCdADD71zJ/AoBrnBDBx84/U18AegWyC1AGuPE+A6K3hrD3qWDn/KJ9Af8MiP5xc2Eo8mAXIsTwikSQADvwHlLkBectXNK2fu4/KDR2OQXWds8DPJR85jETdyc3F/8fIv//isPwK0LFBvs55MIuKHgGIC4E4A7n3oNRtEhnB15jPQAH8ALbcAU26574FsFdwNcMMP7CVbJAO6tOhDx8qmYwJ7lrfx6JsDzWpVgQ+TA8NPALkibWCDJh/qP9MAqkpfY1yz+MBYco56fgJ424F5mfim7AqIbPwUcIC/C/6X4g2AZx6PNzrAex96jaz8GVABlAySHm0AsAzU1C8AmgDZo3s+IacxkA2WhxxaladYQIOMtKCJrdtu/dCJPGePlXZr1Q/wh6wCNEAWq2w6FtmTksNYON7aDYBTAHIZAO7R2YYYEOe7/uA/xPV/bHlHy5+FOzeKD+HsDGfg4K++81V/+DfPMohyHyA5RvP40C0AtgLcnr6ljR2zn9Qn0EcsAHo9zjKWnl4fDBDd0AqbQZr7AE+33VBsyfcSuxxpHEZvzuv/AEtux0B8jD/FFssu2/fi+Z8fele8/z9An0H/al9+Ajj+IgMrZwDgT6AMYEwA6tAtULI8+gzUtT5kbevZZxsib2VwbOVgm+ktWfCgJzsBAmAAMQCwB84r0wjIAbbSsu9aH3GpPCYuuV05tiXteat/ofELgMZA0wPHMZ1N89cRo/4AUDz+dxX4YkJwnIsvfPWmeAJgZfTbcQMG/AF+aBPQOqtjgOmYHEDUa2Fjig9rBzY4DsjUeKBDzrbgi038p8sBAGcBQvTNqhagrWA7Vc6AbAHmxpf6gI7hrxzLTPYwYdF4JScX92e7+W8dwLvpyUPN39/9i/8WwBeAP/wMyITwrsU1O45eMfyVMnDHM6+SbX8BQACobWvgyHQAZkHLuwbMg22W8/qsAz50tfW29R2a1cextGqrchOhlcFOgICXglkGX3tcADcAGit5OrZyAEulYwJhdBK4C83hzxULfKxiz4tP7Nau/9eA8LTSV5mc6LP/sfofAuDOTwoOH1yp9ofyjmfgYPFt6Zo/gJq2+QGMCQCd1T9AlOVAYx2mMV30WBeAz7SW7oBHsSc/dAzb1j9sMN+TQUyI+faff//VGwN5IgAgXpGWQJdtAPiZxv0Kf2Bnpvh0MtBrz4lPbKz7+r83YRgD4zG+Z3MV2pi/WP3H3f/+3f8pL7ftOILF8JfOwF2LazzwV7CrrKQZLCHLgMu0Fp2BVvr8X/iYEEehRxMAts19lhe6PU60bIfHJXJ3/tQt7j0BWDFLq0AJAJxAUzsAWWsDdLSWT8erxrLSOJz4sCPgXf8fA8RVwHZO3U3EKat/ffY/dgBiB8DseMQvAC6NfqH4yt974X8wwE0BQCvLwIm+BUzRwT9k9NgBWfDQwh5apTsTBLbv9a0N2OIWepBFCxl5VFImAQCzBNi8KgfwLUkD6KbWs2EAXuKAjsa0BTQvftBWAeQxAB7jr+J7U7rX/qcvBugZ0GushncrVzIhjBcABZBPzsBdi2sA/gAz2wL8QLfHoI+1Vs+CqOiDxrIeLck6YD8WQ43v+qvsGrAs25OXBelrgwmQFYiXpdHkQXcCzO4BQJT5J7nS98asExHKAyZKU67/nySYT/E9RXZsElHc+S/FPnYAdgvgRyc+h49Orv2hEBnwwB8AB+AFyA2OMwAzHbqigz7zYQst8yAPHtsoaAaYoQdb2pr4QGe7TCt80OTC2mc525fXBj9yw7UvKwASeC9Ny4AJkPfsFMC/BSt9BXuOhSctTL+4vziJ6/8e6M4J2p59S+vxJzLFz/4G+Af42wnBvUefDjSLDEzKwN/+9y9+2QKYPQZAorV8OW7xIA8QTfIWmAlsIW9b+EBr+ThmP6BJW6NbXktuIGtuXIQ/+SlhmQQUoMwgblbACuhEZxqAn+0xH3QrV5UhP6K7CTmeECBe9R3v/68+/ijgf+tnfvcY8GLlH8BvgR/Hdz/6vnj+fxL87bDwXYtrPPAHuKIdAN6fvqxgD6BsySZ9s1oHSI61LfvwCRkbJ/uFLPuDnsdjuVE7lbHJ/QA3/c69sz0ZwICZ+q1dBQb3lpxZgcOuTgbm1jVxsZ91vP9/bGU9xrcr9TmOl/FZvPM/Vv4xAQDg2/aBh9+4w4gWQ5+SAQv+DIQARwuEreMxHebD1xiN/bEs02v9lg/WUbkM5Oyn2vdkKxOBX/zwv003BSawA6AyEE5dfXfYmM3XKnEaXaz+bWw4fvYnrhusgJcByzlAeqqNdcYptgeP/cUkICYBFvzjB4CmwN9uy9bAH2DIACl9ACHzPRrrQRatxwMNtnAsLWiefuIbEGY56LI99MHrlYcet6wrdHvMstKX3w1IQAdQXGXlDRvSVux4uwXqHxOIiu7a5CoTHYzhhfe+ZTABmArE65RfJ8hz3NaPbv1LwQ/gD+AfAH9+J0Jc/99tUO8d/Rj4AyATsDnX5ZkPoGNatW8AG7rc1oC0ZnNMd0yP+WIL/gct5YF1BnKVXQCxXbwoKIO4gi2B+hgt8QHiY3Z65ci/TB7GYsAEo1cOq3+0gzFMeP2vBUgBT4/GoHoS/Tlikq3/v/XFhwL0aqAX9KufjctH747r/70ouItyi4Nzr/x3L/wXBi3uM5h6fcgyz6Mxn/sMnKCLPtuADGhoIc+tlRWeR2Md9Ft2e+1YXzWboEuLdwQocAKgJ6zGAb7atmwIsE+wvUpcTV2aYKgcxTbl8b9VwLwXlHvlVollTFd+7U9f+BNAdxXoIhd+Lu55ZH8XYS3G3JkBAX8PABWgeJWL1Tpaj9dLM6vilj/ExyCc+ojD2II8wBjHhU5HnNBHbIUdR5/5ydeIDOzKOwK+/NbrXkggCOCugWOmF4DJNEe/tnqv0au2KaZVdd1VP8e+RY//jYHyJvnv/KP/eLzlH9v+PuDFRIDycvh0JwyE2M5lQF7y8+m/+QxAC2BkgQt8tABFHNfkx+SYz75hl/k1H5YOHc+ela35Ab3WwgfzQYNftJBpHYuu8IvHA1dZnTNIGzsK7Iaedg02TatcUsDOhMT68i//+Ild/19ltb+KrkwmPH2hpR/7EeAP8CeQi/f/V994GNf/dw7Wuwfsgf8AqHgFS30BNis7hQZgTDpkF0Ba44PuyYGHlmVsrPZYdEDz9JgG+6xT0Hg8ZocCPmq6xeOBFYBUECegZ1rq80oadjKN+ayXJgGQJdurrvQ9H1j9o+WYMBnxHv/zgHHK6ntV/Sm+emV7Y/rLX3tv3OwXq/tpEx+5/h9/kQGbAYB/AUgOcDGw2T5AkW0kYMt2mF70Hb61XTtmO8kXbf3X4umRg671a+nsHzzQ0MJGjS9yLIs+2n/0q7cX7wgAICqQAtwrK3YAubaQN6AOu2h77c8iR7GoPaFhTBf3F97jf72guim5XvDulfPiFl35v+HPPjut+AdY7na+ZJfo80+92tb+ON7xDFjwB/BY4GLgBJgxDfKJRpOHGp1tQAa+mSc0e2x9QM/S1S7Fw7bAR2t5sIsWctJa2V5eTZftsT/p1349sADLDKJVmgH+JOfsAuhEYcOrf44HOwGIRXjer//VAHIK3ZPddtq7/uA/7DaYxWRmifN/+OCOQ10M32bg3D959nYPeBiAAGwsB5oFM6uHY7SsZ/s1+yzXkvF4Y36h05KzMp6slUHMlu7q0q6F6Hk6+sNBDOLoY5WcV8zVFTytshVgWRd8pk31sYxuZaKB1b+Av7f9vy6QXmV1vq6Y2K7+0E+A4BIguMP3B1w++qit/3G8wxm45re/9REAFbcAoARGBpyYZsHM0ytovAo318Kr/kmnkIH+BD7iRcv20rjIFsfNckzvsTOmy/ZYFn32wTcFptUyADu3Y7TEB6AbXZ0QEH3MHq/O0Ufbq6t+c1xejELbtu3/k5ok6E1/Af4B/lM/A1/46k07DHcxdM3AXYtrPPBnsAEASQuQYr5Hgw54OPZalkGf7Vsd5kGeZcb4kGVd9FkXcmjBQ2vpcjxmZ6BLEw3Y8+xAj9tbPvYnx/cDAMgnrLgBztqyLoCfaUv4UODv1YXfkV0AfvvfpsF3FX+9umNywj/8jVuv/srf1OIf8rs7YTh+QuT5ePmPIuBudzzwTwCEVTVaB6gAdh5wMa2wR3YAZlYWx+CzH6XluAaylXhVj/xD17Ytf8wTPXvMtpjHfZZBv8b34lbaZxeL22790NWbAjOAKvCOAKq3wtZVeI8uychEYpJfowu/RUzeTsCEt//xVvlZ6ssd//Gynx3evl99AnfnbqNejD5lwAN/gEsL3FhGAawCyDU7sIHWynmA6Ml6NMSE1rPl8WpyHr1F45jgh1vwWzZE3uMnOuUa9wMo+PautiEnQMwrfQAz0yC7TlrHBELG2LP9X1tB1+g8OeiRYflN9+VNf4Mf+VkdEHZ3RbxruUvviYjH/3Z+CtACfwAUQAvH2tIqukkjoGLgYmDjPvxxq/YrK/tkl+JhP2yH6d0+jV1rD8eIEcfJF+mCX/MLPutzn/Ugi1bk5H4A3coHgOdWJwZE92hJH0A/Iuvpr0LD6h9tsoVYcgsab//PAb7rAPxem71yGKfIx+N+sfKvvtindzJz70Ov2XkA3NkELA7OveK3nvtZBhjpA1DQMi31CdCgy8AEGlrLs8eQsy3kijgc31bPO4Yt4XGfZeHHtizDfbaDPnRrfpjPMqCPtfBfkxO+/HKgTgI6VuoK2CwL4GcaATHrYMIwCw1+K7sA8CUTBIDhrrUC/uk1v71FPuRiV8N+BtL1/3j8b2exXwZuwd+CCgOU7QOIbKs2HKAGSELHkwUNMtK6NLIPu5CTFrSaPtMLWcduTVbo3j/b69VlnVq/ZovHjXjSjwaNgClW0gKq3MfqWycR4JM91ZmRBr9eLAXtwvnFpn78Z8rkYuoqfoptlhXwj1/4i9X/yqv/ePxvR/E/r/wTUGI7vdICUGptC6wYsKw+QMvSk04GYZaBH6Z5upYGvWR3yTGyLuxzHPDBNE8OtGTPGSPzvT78tHiI4e/9/hOLR2649mVdMQtQe6t5A+AM+q68Z2MuWs9EI/uae/ufAbanvyzYL6snMYmuvujn+A7uWNnalW0c938mHnj4jTuKgLs97LGVPwMNAKWg0SrZBSMALcmpnRaP5GGX/SrNszECqGyn6Hu2PBrFpmMhmsZGNE8ONMhLC5obV46lkGcf1IcM7KRHAzNg8go69TPwD+jY5qeJActjgjA3Dat/tBwXaPAtxx5IrwKunj2mrdM2+0Hf85fAH8CPNgCvH/AiV5Srw0fj8b9dmwfIyv8Tf/12AASAJ4FQA0gALLaFPtqaHejBL47Rsn6LJryaDdWjcUyRhX7y4YAu+DWbdgyeHGgsCxrso2U6+qwHOW6ZL335T48GWlDHMbUDQJ9rVe/58GgjEw4BfYlR/nvu/geQovUA1aNBftvaWz/zu/HTvgHgBOArXwK5bdfgb+fH64E/gwaDVCgVpwAAIABJREFUCfchAyASnkcb0wG/sMOA7a28HVrhvwHW6g82KrLeWIoYHT3VIR5o8MtxMi3Radws59lgXS8u1kFf2vT/py8v7nrbTVe3/xnYCXSLSwVEH0wMerbps36vLlb4SZ4mBxJTQcvHJ739P+fkoGcSIuBfXPOP1f+cQLibtuLtf7s1H2iBP4OGBScGHADRGM3lE1DCDreujgFJlpc+63h9jKtH1trmY9iGPbQ1ux4fNLRsH3348Y4tryVjffCrgnUbHSDvTQiYRoCsgD43DUCPmOwEglb/m3r3fw8wj00E5rCRVv6x8t1NkF7Xeb98dCW2/3cJ/w+u3MgAwgDBdICK17IO+B4NPGnBZx9F35kUQMe1k+XZBsvZvmfLyuCYbUIPLWSkZTmm274nxzTYZhpseDTldeZA7MOH6PJPB9tV9Tas/lu7ADppOSU//Ts2Mejl67b/uoAg7O7mxOLeo0/vEvzt7lgXB+f2Dr7xJg9QXJoBFwYQyLdoHg/A5bU9NkXPk4M9z6dHYzvcZ1nY9PieHOLy5NmW7bMeeJ59y6vJwB74aEWf++lSAK+yeaUPOtPmXul79uC3sguAyYlMWuR/1Z/+7QXfqXJzrPbZZ4D/yte4dxPcxyZ1cvnovq+8Y3dBcZdGbsCfwWAALs52uyefQMWTdWgMQAAppiGGKTY9O0yDTY8Gnm0xzpoO0yFrbfBxIV/Ji8jDViGPSRit4At+w16ySXxrv3opAMA8AsZ6CWAmudaq39ulsNv/c4LuFFtTZBnUe/REJr3kRwo1rvWjHSvuwQ/QH/sMxPb/jswADr7xpm//4xdfZGBCH4ACgAA9AQgBEOg98lY22SIwUr6x34oBOl6LmCyvZQ88tKLr2QEfLXywrNe38tBD6+mAJ+0Yv5BFHnOOPd8eTS8F8EofgM40TArWSaus+gcTjRzDMnf/MwCj3wPEkN1kK+/219f7BugHmI+B+VR+mlQe3b4jCLjDw/z4s28AmAAEpEW/ABICafChy3LoMw/y4NVayGnLPrmfQU3sFH5IxvpQmwYQkw2PVrGldojPMVi/tWPWUZs0LqsHGUvH8RR7hSyPg869TArxVAC21/Uae54IDAC4F6gnyGH1j7ZY8efJh6W9/Ms/7j7/v26Q3sSEQX/YJxXpw5fSW95iEhCTgKkgPyYfd/+f8YnBx599A1b+ABe0Airoo/WABrQkn4GkJg+6Bz7gsR227fXZTos/ZrvXTk9s8GVb1gUPMbN/9CGDtqYPedjilnnosz2WTfadyYdcChiA/DpX+t5uAnYdKpMGTE4kTvnfxlf/zjXxOPyNW49/1S/APwB/DMCX5afJ5OHTZxz9dnx4DfAHWCRQoNVhDTA8UPFoVp+PPfkiDmeFDn3oevIq0xiHyjR8QAat51N4RQwNn9CHPa9lW5ZvebBn6VZPjlmm6GP8ZiKAFwQVq+wKGA8mCyvKda/6aUfi+Xf9yItjgFtbqdfoY/aW5U/x9/mP/crxC364sGPlj5Z50Y9JwrKfgXj3/xmeIBx84/Wtlb8HGgwcABumQacAFGdHYArfs6m0ClilmAjAOFboovViAQ8t9NEKnfWsHI65hbxnAzS0VftOLuGDdT2a5x9y3Nbk5LPy5bde94KAMVbZWHWjVeD3VvCr0CZMINJkofLq32UBehv0ZJLwh//yoHy7HwAf7bKFPvRikuB9BuLd/2d0AnDvQ6+Rgi6gAeDQllasAAMBCPA9sACN5UHjdirf9QnQH4mTfRV9Z8wco/Tht9AjfyzvyiJGmoRAB/I4Rsu+QJO2Rx4ybMOjwa4r58VqxnzT79xb/GywvRdAjnUSMLJl3yuH1T/apEeTCfUJ2oXzi7lu/qsBv7di92hWv0fG6uD4X3zyn5UgxaDPfa+QB63MXeSjIx+HD8bLf84i/h/81Xe+6g//5tkCBEyhB1DYFjoAF8u3xzV56NsW+qDLcdEfiRP+YKfVsuyyPtgG+2I6+jUf4Hv6ng7TRKelzzaTrAF5tsV2mG71bv/591+dBADk13k/AHz0TC5yHLVX/64CwADiTbYSr/zrL/oBuBjwuQ9+tB0AF+8NaP488H1HHziL8LfbYwL4GyAAUKDwt8BAZQmMp8onUKnoj/ESP8ePeBETWtCLuMgf5JKtGh0+KvzCRiWfLNPylXgVGzwG2MP4cFzTh5y2NBaPlux4MpQL/tngYjXeA9B0jd7uHng7At2rflr922f/NwnYc/sqHvMLUA9Q39RnQCaVn3/q1bsNlmdt9Bn8GSwAArbwy7GlAYhYB3JomVeTZxnooW3xRIb5sJ/oDFrUh13bsi54oMEHWvClBQ1tomV/oMGOxytsGT3woA97oLM97rOcpwtazQ7TbR+67ENk9N0AtDpPgA4gnmtHYMKkApcCem7+mwrUy+wcLKODuERX7vT/O//1/gC9TYFe+OHP2p1nDf52ezx3PPOqtO2PlZxpufDbYs889AEMcgx5bR0AZvmkQzKenksjHcTRal0bZpUNGWuH44VMQZsYix0z+/Psgw8ejmstxwYZjwYeWtjXtjEukYGc3D/C7wawOwFY3Xur+l4aVv9oCx95olHQ8mRk6rP/qwA1AHvZtuZbb/YTUIotfgam6G9iohKv/j1D84W7FtcI+EvRRwGvtUkmg4CVYR4ABG0NbGBD5SwAO4BTswUb0rIM+uwLNNZJeuQfMmN6zLf2ajYT3eQRumwPMYBnW/BFx9NjGnQ9mvKcmOADMmjZjieTbgjklT52A5i2yo4A7PXsAmSfczz7XwPlZUF+qp7+ml8Af4D9JsB+4OPw6bj576zg/12La175ey/8DxR1aVHYtXVAGPJe4S9sGF21iR0G4v+vf/TSy/L/v/z+i4up/xIHbCM223p80Hgc3IeNMRrze23CtrSs7x6bfMFHywZ4bJv1QAcNraeXYjIxJBqdP5aBDb0hEEA/BbSzrLcj0L3qJ79ip3bz31QQ7pWfc7KA6/1/64sPxap/AEpxw17zhr1583XbWYG/nR8Hgz8DAMABhRwt6Cw7xgOov/JTL7z8yk9+a3HNv3p+cc0//+bi3MeeTf97v35lsfehKy/vffjKIv1zH7SxVnSy3rl//I1kV3yIL/EpvmVSIbFIvK1xYDxJjnYEQPfGDl5Nh/ksY23ZY5a1NnCMsegxgNqJPdkzoG1pbgyODvzZlvVf9wdfWzxyw7UvY8tfgFsBHeC8DK1n1Q+ZbL/n5r85Abt3ksByNf/ych+93i8r/1j9x+p/XlDvz2c8+38G5g2Lg3MM/ijiXLwTMDTAxAKPgKuCvAD8P/7GMaALeAPUP/I/j4EeLYAdxz1tj4z1Bz+5bU0SvFwgLzxml0ZAOcofk0XuR+QQb3G+OnUQI2zw+Nie8isxwY7VFz3vhkCdBCyxI4DVP9pkiyYTuNkPfEw+vGf/a4DLoHzSfX2+P0C/H6ROChzPvt+7zwD67fgQ7lpc87f//YtfRlH3WlvIcYxCLzqyok4r+n/+zUVaxTPICgDXgBpywmc5oUOH+6ChZX2vz7rchz5a9g1aticTBNlBwO4Bdg6QK+QDx7Yd47O8J+vRRMfS+XxYnifv+WUbHh80z/6YD+jihkAFfgLsybSpk4a8AzD15r9lgL93QtEjJ1v+6Wd8BVQC/AP8t2By8Yr7H75lx9Hz9A/fA38BAQ8IuOhjhS9b9wr4ApwekBpAdYGdwdnri90MyMUOAvvz9KDTG4OVhx5a8H/9Srq04E0KvNwlcKysmAGM3Ho2QEMLeT7mcwS+bSGPdsB3dgwgY3VwjNbKCR3/4PEbAhXwpwK5yOeJw+iq38jNcfPfMhOCZXWw5Z+u929B4d/g9eUA+q0933Hz3+lG/8rKf1DIGQz+9OW0Ck6gz4Bsgbd1zEA61q+B+xQ9yLItoSF+8Dlm0NAC9HGMFnS0v36l2ClgMOY+gJBp1X6eNIhOTcbyYB8t9Pjcgsa6zK/RoceyoCWdSryIBe3ghsA1XvtP2/7ZvkwWVrn5r7Zar9GXBX3RE5sf/OS/PgbBWPXHZGCbJgPxwz+nG/9rK38u/OjLtfwE+gA6AKBthQ+aBVzhWdBlGdbt6cNPS5Z5LM/0Vp/j8/QtX47lX2zmf8lbuvnwUy+kpxoAgD0tA2tNnoE4nS9nl4F1x2zW+B7d0uwx/EqM+AeN3xCI6/J6vZ52A2o0rP7Rju4CwOYW/PBPz2ThL3/tvYsb/uyzi7jLP+7o37odF5mMxpv/Tu8EoAX+KNByTV+uewPItPWAUMCOwdCCKh+zvtdv2WF5tok+wBdy0oIGGW7RhwzLwwZkpG3FxnLQZXvC//CVdDNkup8gTwgAmgBytDgP0kKG+ywHPtOg3+LV7EE38WlFz/Sx/phf0f/wr3z8+HcCllz9Y+LQexlBJgvezX+rrNLn1pXJgbzYR+7yV/CP1X+s/rdl9X/8WYw3/51W+Af4C1gAMLTFFr/csc9gx4DmAV2LxnYyCOouAevV+qzPfQZXG1/NFuhsBzRpV+kjhpYdjllicCYEU0AXIMtg7NHAZx7OOXjJr7ncU/DMzgL0tSXdlh7zXv3Hz6bHAovVO1bqufXAvXvVb679y4TB3vxXW43X6HMDPtsrbvTbloIfccTkw34GvvDVm04r/u1u3PKSn3/3wn9Jhd6s6tINfZ/8VnkzXwsMAXJoGfwysBUgz7YYBKHXA8iQZVu278UDPeujJct2rR7sSeuN1aNDh+2ChjbbSk8c/Kvn01MVAGwFWYCwOX/eOWUa9AG+Nbvgc2tlPZ5Hg0+0LMP9X/zwvz1+F4DZBVDg954QwDP9PZMFkcm2T+rmv57JBFb9W7fda4t/HO/4hODwwd0F0VM8coC/FF8UZQF+uT7tbu8zMNm+HLeA0YIr9FsAyDxrm3k1W1YHMbIu9z07zK/1M1B37xaInZotptt4xA9uKvzUCy8rENNKG+cRPD63Ho2BF31PDnYhg5ZlQZO2R15kPDn5nYAvv/W6F7xdAJ0EMNDThEDvD2jRaCdhlZv/eKU+Z19W/enne2VrFf8BsjsOslt838MDD73zFMPgbobO4C8FOwG/XN9n0LQANAZczGc7HqjV+LDBOtxHTGghb+2xzpQ+26n1a/Y4JumLfkuW7UOupQMZaeX/Q1fSjZhyQ6acv2XBGCCMtgBynlxU+pBnfcQCGlrISuvRwL/lY39SvBFQgZ+AXWk0GeilyQ5Az5v/pgK7t7L3aDW78njf3/2L/3b8XH+Af4D+Nk/80rX/w0d3E0FP8ahf+em/+QwKrRRqeW69AH4ADACnF5QYAGEDNNiATeaDB9kaeFodlq/x4E98QB401mn1PT225/E9H3acLZ+evicvtGxXni6QcymTAQZYgHGiEYjzZwD9mgzzuQ8QZx/Mt/Y8edCsXvFyIAA/gX264S/TE/BDppO26s/+TgH2GuCDjlV/8Vx/KrDxkp+4BLK9q/948c9pmgjI630J/GXlqC/sAbgw8PQCG3Qhb9tlbcIO9Bl0rU/IgM7HbIfp6HvAPKYDXWnxLzotW2wT/TEdO2ZPnm3lWOS+AZ4MWHD1QLcG4qBDx7YD23mSATnwYQfH0loZ5nX9WuCEa//F7sAWPPoH8Hev9QP8t3kFGLHt+A7F4aPxq3+naAIg4C8FVwpx8TifBRAcj4EPgx33LSDCntDRR8s06495njxorAcaWo4F9lgeNCvHdNiyepCxdMgzv2UfcnPKIAa5TECTAQCuB8YA35YM6xV95ybEBPDejoO5cTF9Jiv6d/7ULXpDIB7x03biih9PCoh+69E/b2Xv0QDgy7Z6hz+2+gH6tg2g3XGg3dIdgMtH744JwCmZAGDl7676ARZTgWgZPQFLAN0YcCIe1mGf4MOe5YEPfcvnY/Q5Ju7DlucLujUZ8NH22O2RqfmzMZJfngwwQCvoV4AYfEwSuC0mArXVv7ELnTG7f//3vnr8XgBs/fOTAaBN2AUQ8JedAPvo37IgvoyeTCbkB3yK5/oB8gB/HEcb4L9tn4H0GT18+pRAX4R5zW9/6yNSaNOqH2AAkOAWvF7w8QBIdD06/MAH2prsWAw1PtPhAy37As2TZ7lan/U8GeELHf/w15Idk7F8+BA6960PjpVs2HsGeEKQ+lip0yoegA0A54mA7VsZewx5sal2zURBZPQVwQT4WM0vc+3/pB79k8mC3uTHRR2gb1uWiX5MBLbpM3D3o+8LZD0FGTj3T569XW4Kk5WfghFAqdYSSBRb9jWQ8eQtCI3JMEjVdMdssB7Lgm7jB11a/mdd9Hviq8nAhvXn0dkG+GgRIx/X+p4d1me+vHwo30AIkEYLkJbWo3l8gDl4rWO2yXLSx7G8Ijht+5vVf3FNP08OxmjC3/Sjf7Lil9f4yi/36Zv8pJgH4AeobxOod8cS1/5PAfTv7cnK393yBxC0WgYWBgvQhQZ9obGM0EFDn9tl+mwfMcAOYmF6S170PD7rz9m38bFvjEFa20ecTJe4evQ5fqsvx/hnuWwbryVmcAaYp4mA2RkAUBcytGuQdMaOYdO2We+2Wz909VLAktf+BfznfvTPuzeAadKXH+8p7u5n8EfRxWQAx9HG5GBbPwNx7X/L8X9xcC6Bvzzeh0K/TAtwQMs2QEPr8YRm+Qxe3IesRwMPPkTG0tjP1D7bYv/ch4z17ckgzqlxQH6srdmvxQJ7Vo/pti+28kuH5DcgMBlAy2BfTArMFr6Vt5MFPkYfLft43R987ep7AehSwNiKX28YFJ2L+4vao38M2stc1/d0cHd/serf1qIeccWEo+szEKv/LUf/vb29D3/j1uIufxT+VVoABFqxhb5tmYd+DZzAlxb/bE/0WIZ5Vt6TA83aAZ1b7sMP03r6veMU+zYmHFs/cox/xIXW+mNd5sEf9Nge/DIP/cyTS0jyhsip7xhgEOfJAIN8QaedApFhOewCJNCfuAuwzOp/2UnB4W/cmn61Lz2/Liv7WN0HuHaB65be7U+xp+f+Fwfnth8EdzTCV/zWcz8r13MVnFHo52gBChZk7DHkGIBYBnyPxjzhs8xY3/qzx2yb+yzH9DF/rfjYJuwIDX2rC79oIcd2hAcb4NfsWD7kQGe7oEGmFQPePvjJb+muAIN82g3IIA7wRluTs/Rkw1wKEJrcC9C74h/IzfSrf61JgTzWd+tnfjfAjgAjXuKz/aDef45i9b/V04pXfOKv3773q19/PoE/F3EU9jlaBiH4QMtA4tHgHzxpPUBjcIIs22Y+9z37lgY7rMc+wEfLckxDX9pV+9YGx+P1PRrH4MXM/LG+6LOM9Qe+XCLIP1LUBHGzqreymCDwTkCaBJAedJbeBbi4P/jVP2/bflla9bG+AMOYEJ2Vz0C883+L8f/gyo0J/H+dtouliK/j3wICfDCdAYT7IgMAsXRrB/ZqgMb6PX1rp6bjydVkQceYEDPo0lp7Vsby7bGV77EpMoihx57ng2mwxXZBc3YFLJgDwC2we3KYEEBHjkGbsgvATw60XvyzLOiLnj7Wh63+2O4PwD8rgF+O4+4tRr8dD+3gG2/SlT8K9LpbBgfpC8gAELitgQ/ri7yVQ/ws19u3sXA83Pfs1Wg1mzV6K34ea80f67M8x4/+WAyQQ2vl7bHI4R/xSdsjl3cFWvcKANi5BcDzhAC0NGmgSwLpvQB4JLB1LwDdLPjSL/3Yywz0ra18lqv15Tp/8VgfgB9tWTwDFCMfp/czIJ/pBx5+446j7BYOX27G+Pizb9j78JUra7nmDxCotQAH4U/twyb00LItjyYgNEb3+GwXfQtoOAZfWu732hWdWpxsz9q3PPbX4rGc12dazY7IYPyQBw3Hnq4dp8hkO+ndAp96If0wEcAeoI42gbuz1V/jywShexcgTxLmevGPTBrc6/wAfbQBdqcX7OLcledOPtOXj27fQvSLkPYOvvH6vQ99/TFdrUnx3fS/Bw4WFCDD9Ba4sJwHOhgj7KIFHToZiNwJA2SgAxtowa/ZmBpjTV78WR812Z6YajJjNm0ecIzW5sXSMQ7IoZWXDOXfIihW9xNAH5MHbvntgGNPBfS++GdsV6C4zm+BIsC/BA6bnzg+nfm5fHRl745nXhVou20ZOPir7zxx8LcgIMdU+N3+GN+zYQESMqDbOFo+akDY0mnZRyzS1myzDPen+Jxqm/3U+jWbiMu2sCN66Etr/6EHOo7N5QEAem21n3YH6L0CmECIvPxGgAC//GTw/3XThcX/8aM3LN77ozemf+kLTXiP3HBtsfVf29Jv0QH81bulA/xPJ7jFpGT8vMUrf7cN+ff20ozsV/+//7cAWBTbk2pR5MW/7QMwEJvlC70GRp49awf2pIUv0KAPutVlektf9KwsbHPLfZG3cdTssN6UPmLy/EyxI7LyzzFzn215vkBDy/K2/+Er6Xcp5AVDOglo7AgA+CEr7f/2a3+xeOvNN3f9yy8KtgDe48lugAJ/2gal5/kD8MeBI8D1DOTo8MEtRL8dD+lg8W17v3rlnsGqS4rsSf8zYHCfAQAAUeNDVvjoY1yi+/+3920hslxXlqmy6BFXF88wIMPQMP5ogdW/bZA+LaTKsjXWHfzS9OhD/hiY1sedj8b+mam6mq7xwP2yMALTH90Y1DMYY1ulki5Yj7ZAdsvyS1dCLfS+brt7TF8Zdauyym78cY2qhh2ZK2vFzn0iIt/xWAnJ3me/TsTJyLP2OXHiBPtVjcX+UcyUjOtiG9SL40F8tqnCIw5s/Tmn6oe90TJ+UTH9sXC9Xod2wfmBss/IBusEPMj7MsD/pv1fn/zRnz5YCfg5Qfjf/+nuk7IpfksEBPxtem5d55KctSpK0JDwauFfDZON7YP9tQM9gMfTVEcPu0jvQaHMtkyPOkYAkwNI6LhO5sv0bOuPA74RGJoty8tsfT1V7a2OlG9KHh0X6vM+XE7ZsJztPY/y6JijdQIG+rg9YNTA/9bP/enU4I9E4L996j9kAJ9KBGzE/+++99zwJT3oBK2j5BE/80WdqHQtGAF3OIH48Wv/q6cd/2qWAFw4vFhb8LcOHZ06U5anAApytmUeeoALqK+H5axLyS0u63w9UQz2YV/woJEv61g/K190vFVi8vEYj3jmW+YPW8Rgf5ZxLO/DdcAnWCeAJGCWkT/AH9RmAjDlb4nAxIgfwA2g9xR6UQF8a6+BV3/We/bk+pqhX8cPZ+fgXAZW6CjRsdaZ4lhBow7fy4pAArYpG5OjLlC0j5VTetiCoh6jvi624XjsAx6+VsYX/qCwNcrxTA//yJb9It77cuyoLpNxnKj+1HF4X8TxxzClv73PAusEprnnD7BPUVsTAODPRvce5FG2Dp751nb4HR7p6jfNJ3J2vV9++7aOo23NTt8e97Nn/dGhosNtAsUxo/MH9XKABlPm4ccyiwE5qOnxZT37Qc8y9gfvKfwiucn8OXk7tkHdKR9fV8q+TO7j+GNK6RGXqfGpNkVcb89y07GeY7Gd4y0R6H/2czNP/UeJwL/9/gvDjs86PIB8GRVY5MFC7dGu9sj+C3rmv17ony36O3x9DGroRJtCuTPHMUMGyqDANgBH1pf5RLaRj8k4PvwiGR/TNDxiep/oeGDDPrADZd0sPOpIxTM9gzLsuS7vi/aC3GhKBhuOB977QH5hMNWK/wjsI9m//7/fznfeAH+Ami9DLppvN7VHi9rj1Z/pmf96wX+vV+dFf9ZJV/kCFAAAoNTJ54AHek8BEuzHvOnhw3LjUUYM2HkKO1Bvz3UwD3ujzFexYXs7Hu9jZbYBn5Kb3seI4uLc2RYy1AHKNpAZ9XxKloob2cPW6tweHN/y+YcWOvq3hOCP/sf/PO24AfaeCtxO20ht0f620NR/zdD/wtH5rINFJ9lkik7dzmEaMIGfpxYHsoi3OlheZOuPqcyW44L39UFuFLy3KWoH+DAt4318tvfn5G293nz98XE8rzP/SMY+4FE3ykZT/PbgeJ6V/9Ho32QWM3xESklA3C5KANrdLrbqX5+atAD2+LdX+6JzbAuNgIY7fwYRgArOPfJle47j+ap2UR0+VpnNtHXxeSI2KNcd2bGeefizD+s978vwZ/msMmuPKA7igSbabSkJwP2fa3eHLsDW71v9GviBHvmrCfZnh9H0+/7W2UdfdPSgAAUPEPCFHWiRvbeZJ0YERJHM14Hjm0bOPnwOqfrYxvhU23HcKjxi+fg4F47BNiyH7TSxouPn+A+8t7wZABvtY8RfvbMUsKit2nMN2F7/P3zr95UA1CkB2B58NQRQdLBtoK6TH58v5KA41xQgmh62bGOyInCBD/uneLZlG66P5cxHx8F+qdgsZ95ic3zmYWfUnztksIEfH0sqtrfhso/L8X089kP9EWXZhcFcm/8kbwHYDIDAvz1ApqRktt/yxbc+XSfo07HY8/7oONtIARiukx+DOOQMFgwqVXjEYAre4hqPslGuy8u9bVR/6pw4FvxAWZeqHzY4ZviiPpRxjLBnGukiPWKB+mNiH9hwbNYzz7bgjeKcOAbksBvFWdYiwOsuvzVbpymwUbu14Rqw1/xqt78a5Rz2hj973p87xbbyrpMfAwLLRwAwbg/WgWegggwUbcdl8J6m6oId67nOVB2RDWw5VsQDHKO6vT2XzR6+Jvc6L0vpIzkfS5Gez5t9mC/yNx3rtwfHi9wECDMCE48BtqFD1zkoMalyDWQzX6/+rXb7qxH2Z4fShkf+0IEXUQYD8KDc+UeyFMCgPvMBCMKffWAHChv4oeyPw8f0ei4zj3hF8dm+jPfH4eNyfRbLnzvsuZ4opunxhQ/H9j4cD35R3d4OsVmOehDn4s8XuhGQbSoUPgFQpfOUjdqu6deA3ff/m3duqhv8dfd4bBqm7VP/6MxB0fH7zh5yb2dl2IJ6G5aDB438TQcgQyxQ9mPfIh6x2BeyyA86Pg72BW924KM4JuNvFVvYeGpxuD7oOT546NjedJCDsozP2cdpURV1AAAgAElEQVTx9hd/frLxna+cbLzy+ZMPfe3uhe0FYKP/D/7i3ZN/9dr/E5g1Hcx0/NWvYSx6/cmbd3QXbOt45t9692xnpv7R6TNFx5+iDCDw87ZsA523hQ0DFmyZepCCDv6gVe1gz7SM97HL7Mv0UTzzYT+cJ6jpzA9lT9k3xZuPrxtxvA/KD76SAf/1b/znE/7e8oWtuZMA2wDo3/zDIPe1REDrAfQ+gE7MCv30tS/WEQK7fUwPHH593MlaJ9iFL0AAAIEyzp3LEc/ABOCAL5fh6+3ZFjxsmQK8ENOXIfcxWI54JoM/y6bhvW0qXkqOY0AcUNj784Ae1OzAg/K5sj4VC/ao0+IYb8D/zMUc6HMCYPyt98/+TgDzvfGtd46RAPzrf3gvlwiYTomAEoHWJgI/fO3/dBto63j2u4Pbc6MwdJpdpAACDywMFAAPtA9sGXgQx9uwL/w8hQ+o1/sy2/njRDmql2XgYY86IDdqX3+OkMO+TO/jwS9FER8Udr7McvBG+Xi8j5VhS8Bv0/0A/Y3X/njMQ2Z0lpkAG/l/8O/+6V8A/qBIAkBNfvZnvzq54bW//11rgUDT5tWnzdvTVj/Qor+6JQC24c/2wS87MeIHAHgKEACFnsvgQYtsvI59wIOarfEMvAxasANFbFD4sj7ii2RcH46H47MMcXC8rPO8j+H1VWLxscHeU4sb2aF+UPjhOMyHgd+BfS4RoKQAiUBvr39Y5Q2BZmP3/AH4TAH6oKwzXusENBvQjiTw1b/VS37qBv52PBcOL3Ya/AEOoAAJUAYWtvFy2HvqfVBO+ZseMdiW5dCDwo7LEe/r5JgRb/aIzXrEBmUd86ZHDM8jLmKAwp/9YAtZkQ1sEY+p+aOcuMdv4J4a9Wc6lwj0nrzrd7Y40GYEbHqfvyYzXe/Sufc9sFvZgz7KnsJWtweUDDQzGXj1Z1rxX0fw3z26udfGvf4BAvNSgAUAhyliwwY0Aino2B8yUNYxDz0odKgHclDojTLgsdxsUzq2A+9tITfKvLfDMYGyLWSgrEvxsAUtsrNjifSjVf0YxYMWjfZZB/ssGfjRp056e/3j3t7WiBoffbdOzry4X2kGIAJ/nzzY7QE9PaBkoPbJwPBZ/19l2/zWEf86f0xdeebfgKDqF+ACyiDCAAc9gIbtoCuT4Zgi+6gujud5tvc6ju/rhC7lDz1iRnYpGXx8nVZO+fj6Il/YeBrFJP+NR/8ie5wvB+Ju2j+nc6N96JAQ2Mh+CP7lCcDGk/81SwAigIcMQI9yETWdffX0gBKB2iYC9qz/i2//YedxtpYNgIV/6CBFq41mrZ0APMxDBso6tG2kg6wIvNg/ZYc4vl6Tmw/L2ZZjG+/js18RX6Tj+sCDej9fNjt//LCB3MqQeX57cHzdN745AfwezFNlyI0C+DP+8mcJ/IsSgFPdmZefHM8CFIE7EgFM/RdR2GrRoBKBWiUCBv6X376tltjX+YN69uT6bOEfd8LoOEXTYMIgEwElAAntyjYAskjHcZmHLXz5t4HO12E2LON44FmPONAZZb5IXzUO2yE+6jAdeKbs448h5cP+FwYn1/3lMycf+N5/z1bxM3hnAO5G/kV6rzP/3hN3n/T2Ddz9l28B5HV+FoCBnXmfHADkIfdllmPRoB4lVEKwxoTgtz1t9FPTNMN2/LtwdD43irWOU9+4DQA+DEgMNNCnKNtyG8Pe6yH3IMd2sGHZNLFha3HK6mE984jhj6HKsVkc2IEWxSnSeX8r233+xLP8DObMG6j7b0q/8fI9o/v+eYCfTAZYP0wMolkABv8UD5D31NsjOTBqiwb1KKESgRUnAr/9wAtv31tT9NNh9eyxv6687IdBahbegwtisNyDk7dhW/Cg8GVAhIxpivdx2M7rPHh7Pfsaj29kx7bQ8zkwD72niM+x2I/l8E3pIX/gvePsPr8b3Xtg92Ws+k8BvtmbDfS9Zz4ZjPwZ7FN8/9hmAWyUzsBdBurQA9xRBi2LpVkBJQGrSAJs1unMG1f/RChb1xYY7ve/Pe7cuRMWfwp6vi0AQKAAJwAP7E3vZaZjmY8BX8REGXbsyzYmZ1tvZzovQ0z2i2JG58G+zLM/894mdSywA+UYKd7bPvDesU33b7xwfjyKB1hH4A5dBuzBQr8i/WyjfyQEo1mAF/dzjwBWAXLYeFoG/kgaQDUroGRgGcmAzTTd8MrVC3WFPh2XtYDt96/H/tJAb4DjvwAbAC7KZeAEO1DELQPCIr0/Bh+bj4l1nvd1lPkV+XsdzrMsZtExwNefbxT7wVfG9/n9yH4Z5eu+/x9nHP0jCdg6iWYBGMgB1gB7r4MctEwPO1DY6wkCJQOLSAbsOhL4NyHF0KY/kwDPoFLEp4DO5BGYeRn8PU3ZAQT9McGf9ZAZ9aAJXWTPsiKej5HjmY99Wc9xouNhPfOw5fgRb7LRd+PxPx+P+IvA3kb0mAngUb+XoYwZAJThY+Xe46dAXnzPP7I7XSDo9wUAOHsKsDbqeS8r8oUOPky1r4ASgVkTAZtRuvHNq19pAvx1+xh3f/Mh3fsPRvgGQmVfABGoBzz4Qw/KAOd5Xy7zKdNzPLYtO1avZ1/woFZHVA/rjbeY3hZ+0LEPbGHDFDz5ZdP9BVP3BtQA8bLEYBr9Ikb/w6Shf8y7AzI4g69CYcNgDhmo6cCXUbPVboNKBqokA3a/3xJHgX8T0ops5b+2/B2DEgPOtDwDF3hPAVqIbXoCsHDEzHrzszLiMh/JWM91po4DMSK9rzsVz9cZxawi4zhsb3I+PtPR6n4GeOYjQGc982W2Xj/f6N/NCOxvndzwk4fH+wIwUAPQAdhex3LWzSP3vlo4qEQgTAR+/Or7NuVv110G/oYt+tS8BYaj//KRLjp70cm2YnCKeA9YDF6L5KvEsuPzxxMdcyTj+IgDOx+TbU0HO5Z73pcjH8iIbnz7rxYyqgeoY3o/lRB4/cbExj8O0Cf2A6igv3TufRtFAXw9ZXBP8d7Hl82PfaGPZKyDn1ElA0oGLBmwUb/NENl1cuatqw/3BP41B347PI3+J8HcQGjabwRwHhABWGzLfBXwYxvEg4xjeR1sjOLLNl6GY4dfKrb3Q0xQ+Hs7yFGP2afqQCzWw/+hy7nV/QBwUAA4ABtyUOitnOLLbE0/+6N/qURgeBvg937w4HgWgAEYvKcRcLOMee+LcmSTkpmcv0oGupkM2Cp/XD8Z+DcA+nSI1gJa+X8KiACpeSjACgCFWJE8ksGPgZFjQM6yiEcco+yDOkFhx+AKHSjiM4UOlHWIGVGWFfF8PJEdvbQnB9yJZ/xzNsH6AIB8RNk31M+08U8K+Fk+TAKscwXIopNlQGY+0kcy9mGebVNy2KSo+dlXyUD7kwGM+nGt3Pj21e9mwKrRfwPyC/uRdg703L8BzCK/DIoRzzIGtxTopeQWx3QcA7yXR7apuNwWONaIRnX4+q3s7Yrq9fUgHiie6U+AOIM18xFwmww2PEMQydjf2y5u8R+Dv/HDpwIwCwDARWcLoIUclPWRjPWe5zL7puSwATW76KtkoH3JgN3rt98d3zH4NwD6dIjWAtr1b7HAbyCFL4DMg53Xww4AV0Vf5jNNrCLbaYGbzxXH6CnXBx3LjOcy2wTP9AOMAdoM1OAjG8jGNlMmFKjP4sR7/nswn7U8TALOvvHSGFgBtqBVwRn2s9J560FioGSg2ckAT/fjNxX4NzGl0Oj/FLABPIukDF7gjTKwMo+6YevLKbnZ+bjeF2XYoswxoxhen/KDPKKpGGbr6+QkAnrbwnfva+Ez/QBiADkoA3zSJgH6FiPlg/igGz/61Nwb/xTuF5C9UKh/bC8tQmcLAGdALuKLdNPEgi2oj8tl2ICaLvqa3haOadOh+icF9htZ8uZ/x7NX3vl+E+Gv28eM0T93zlHnLdl8SQK3L3hQABza2OQ+IYAtyyOQjGKZjG05FviUHx9TZMPHw3rE9dQfB5fZn+s1m2DUD/D1lEGbebaL5EgWIp35shy2mdxG/5fOudf+zjrSL/PrH9ssAAB1WsrgPC/P/v44WMd8ZGd6/zWAsYTARpl2fzl81OxH9QfLthy3/QYM/Pgd8dueffMf386AVPf8G5ZP4I1/6KjR8YrOB/ip9rN2BmiaDbd7xE9rz/VG8bhOr0+BMdvh2FnGfBTD+7B92fHavf5vfDMHvgBdADqAmUEZOk+LbBCnqg/sl/LoX/i44PA2gG0RjA4YFB2xB9JIDxko+0Lm6aptcB44DuxCqGRgtUkPAz9+C0/H4N8w6NPhWgvsHL6em37lDln8YpMABr6I9+CJ9oetp6Y3WQSwXgZbo74exPX1sR1sQDke82V6XwfsQTnWxZ8n9+8H+E6ANU3ns00VnmNNY7/4R/+KZgGGSUDZ64LRSTNwp/gy2zJ9Kq4H8SgOZCmKGEwxO2Aj0raMsOt2Hgb8lnRxuzOP30vg3+Q0Yndwe24Eis5ZdLHA79sTYMcAy8DHPGxBORbLwINGMViW4iN/1BnpTJZKNorkPhbblqzwZ6AGz4AN2Sy0aIbAxzNb+xbeuw9H8kUAX6Y7nQWwDhkdMfOQpWhkWyZjfRXe120++KZ0kHN8lsEfeugwO6D1A/PPDvA0P9o5oiYT+DcZ/O3YHzj8+ni1Ojp50dWAvwdAtDvkPjkwPcAWNpDBl0GUZbAHZT9fjy+n6kRdHKsqj2OLjscW+j1zcWKhHwA+A93EKB8ADVsrF9nDrooNYmWU6l/eo39FicAwCeAtggGG3FmneLatYgP7qtRiclzvV6SD7bQ2sDd/niHQLYPipABT/LbewtqQv/gtQNHGRjPw1/3+BmcAtu0vd8DolEWXmwD49sVvwMALmdkaz7oiGXQRNZl9o1gpez4OtmGebXCsrAePhAH2sOXyg69ku/kZIDPgGl/lC78qtrPYIGGAr9W30H3/K88WDBMAW3iIjhudNCh31sxHesg8LfNjvfFcnjdWFX/YcL04Di/TLMFrJ70fv/q+AT5A36/kR3t66tvyzCu/ONL2vg3G/uzQ9ejfaoHegBBgyNTzXAY4mozlvuztvC30oF5fFA8+oD6B8LFgV1U+sgsX+tFIG+DOIAyZAbKXcznSe5kvI7aPY3awXd3iv9RsQP/YNgdCh80dNWSgVXVmx7Ypvmpc9o98WJ/iy/ygL6M+PicFbX3agAG/6J6+tY1vn6iskX/Tgd+O/9mT63vbB7/U9P8IWAGAq6QGlAymAE5QHAvKKWp2Po4fbbPe7BGL5SzjuhGL/Zg3P9ggBvQpOeKbnt7cB3CNaBEQR/aQeT9fNrvKMre98GoX//kkoH883HgofizQd94Ax6ijZx14TzkedCxL8bAFrWrH9uaT8kvJ4Q/KdixDbKY2MubkACBat4V6/nhwnHYf32aGqo7w0R5F1HQf/Lt/+pdsy/g2YGCnz2Hn4Fzvz9YIfgAA0fwsRASmBpIMrABXtB3rwINWsWUb+IFGOpYxX8XHJwSjKf8xWGPqn0b+0DGNADsF5OxXhcfIn225PvAbS9v33wN9UXl4KwCbA6EDj8AOOtAiG9aleMRJUe/HZe/DOua9XarMPp7nMvwjGXSgZhN9sb7AANaAFl8DX8wiGG/T7R6gZy0D2FEH6rRjiIDeHzefU8SXySxeBv42cNSn4S0w3Pf/aY3+15wAATCNepBnnYEsgJbtmIcetqCIw/qUn8nZjnkcI8t8HNNFssQx8JR/BLoe0AG8ETBH/rBnnZehnKqLfble49ez+C9KBoZJQPRYYNSxW2cOOSjLmIfeU7Nhu6gMH7aLZIvUR7FQJ2gVG9h6ar7TfM0fswkAa584AMyNso3NQGAEj+NA3VaOZEXnVlXHduA18m845ucO3xb/obO3Tlvf9bdBBJL4XVhnMpQ9ZfA1HX5j2LFvik/ZpuxZ7n35eJzdxne+Mr6PDmBlMIYsohEos6/Xsy6KVyRj3xy/9H3/I6Avkg3fFlgEDOjMjTLPQJLiI3vYzko5JvOIx7IUD1tPzb7MJ7JhH8SMZNBVpahrWRTHgfgoe+r1VoZNis/A/2/euSmHISo0uAW0+G/9gG+AGH0jEHXgGfqxDfOIF4FxJMMxFfl5G66PecRgWcHGPgzEBrYA8hzw0q0BlrOv8VV1sENdZb6oZ+n7/ld+GiCfFPi3BaJzT1EPCCk7yFMg4eW+zP6sgxzUdGV62IKyPfPQe1rVJrKLZD5+3cp2zLMet8C/wTifPHRb/MedMzp00RiUV9Uu+E0YmCFjEAVfxQ62OAeOxzqTWzyWMQ8/rhP6yM900Bs1m4cuZ4/4AURBAcIZ+LpFdrApoxzD2xbpYFtkwzokCutd/JcH/fwmRMMFgdzhp3gPVB4ofBn2qXgshy1opGMZ85EP61N8ym8ae8QAZd9IZnq2icrwWxb19aMelkMGWnSc8MvA/4dv/X4SR6RoYAto57/1gjyAMUUBtKCwQ5kBGDJQszU+soEuolXq8DYcJ+LdMVz3l88UjsoBxEYZcLkM8E3JWO55K3uZryfTUwLi9SjXY/FflAQM1wLYewJw7xidedThsw7AUEbZh3nvxzrmYccy5iM9ZJ5O61dmz3rmUa/JIjn0Kco+PsYiyqjX11MmT+ktTgb+z1/5gwYinA65sAW2B19NTiGjkxetR5IAYAf1QMu/E4Dfy6zMYByVy+Ijtrfzcb3e6rJd/R79i4lNfAzMAagemCOwnlYG+yw2gTrknExkNhVvLWS2y37t74zT/8OZgGESgB0C0cmnaFXQYDsfi3VVeO+PMvuyjOXMT2PDthEfyaK62I71KZ7twa+b8rFGx5KB/4tv/6E2+ilE0oYpbeW/PcKxc/BbJQCJ++8MnnXiU0CbAuYR8I5/ZwCzp7Arig8btEcUAzYcx+yCLX098AKQF0mRWHBdkE2AfZAc8LEgBtPeE3eveO//aLSfkg0TANsh0B5Js84eX3T2EQCwLMVH/mW28AE1e+/DZbYDD1rVju3Zh3nYgJbpyvSIA8r2zJfp2bYqP4td6jhs5qhn4K9PC1tgZ3DfGBTQoYvWY7Sf+h0AuABZ2EXyMllRjEhngB7V52VcL+K4xX4GoEkQHo2+J2xG4Bz5pWxz4E2jepaD57gmKypDV9/pf04IhkmA7Q1gHX2qs4e8Kk0Bjfevahf5lfmyPvL3Ml82f45RhUcMtoUMNNKxjPnIh/XT8ogHmvJnfWSTjfwvv31bC5FPp5S1wM6Bnv0HeDWNAmR5lA2w9editgzekQ/0iAsa2SI+bDg+ZDgWK9vOfi+cn5j2B/BWpQDdMnu2Yz7yi/RehtF+5F+fZ/8Z8B2/b+VhEnDmxf0c4AEEQA0IIjAoksMXNOVfpi/zgz+ot/dltvM6LsMuRYtsWWe8LyMmyyED9X6Qz0q5rhRfJXZP4N/iROFb754dLxBDhy5a79E/fh8PsixnwI7sIpn5TyM321TCgFjQ285+NPJm3gCVywy0LI+At0zvfRAbfih7O1+GPeTsZ/xw610HuHPds19WrNNbAbahDACAAQIy0EjHshQPf1C2i2SsZz5lG9lEtpCBlvmxnnn2T8lh4ynbp3j4eL0vp+zK5NCDWlyOzXLjs2l/gX+Lwd9O7cLR+fF0LgBEtBkJAH6nFGh7EIYdKOu9zHScRMCWqfFl5e3BMa/0Z+A0MPXAOgZYShYgY3sfJ6ejvQJY7nkr44vjQFxf9naIZfbrf/HPtMnC8F0B9mpldPqgDAjMR3rIQFP2LE/xiJGi7DeLTeTPMubnjc+xmPdxWce8t0M5smEZ8/ABZR3zrPfy3k/evKPl6KfT6+0Mns+N+tCpizYjCQBwM1hDBloG0vitU/aQYzTP8aCDDDYjOW/rC9AEmDL1wJvTBckAADqLWbJgj2MxzzEgryqDvdH6PvtflBgMkwDeJtgDgJVZNi0PcPG0KE5Khxim9za+XGQLHegsvikfxPS0qn3KLiVHPSk9y2ELWqTLRv4/feOc0LHNLWCr/23rX3T+os0A/Oh3AgiDsg3LwBt1QD2+DQQbixHxkS8nH+S3sfe15AjfgBOgn/ERyDtgj8AZQJzSsRw81wv/aSliGM1vuFMEunXSDbcItqcCeG8ABoYqPADFU/PFFzqOB1mKsq2PAx+2gQx0Wl2RPWJ6yj5V+Kr+sOOYkIGarkwPW9CUD8cxvifwbzPy07lp69/mgj6DPPMAaA/eHvAJqMdJYOTjZd4v0l8YnGBPfwZWALDJmGebMl2mD54CQIyiuJEN7AHovn7oU/K6bv1bLSmx9QBbJ7ZNsIEEAwX4FPWgwWXvw7oqvPf3ZY4BXSQr0kX2LKvCIz5oFR+zqWJXFnMaPdcX+UFmtPfiW5/Wc/6Eka1mdw5fH3f+DCLim50YJEA5OaIvAnVcCxwzkpl+NBNg95YBtlUpA633MV0KoDNgdjMF8OeYzEPvaRUb71PvZ/+rzjhsXuNbAQAEBo4qfOQHmaepeLBL6Vk+jS37pfgoXlUZx4TPvJRjpvhUHWxfxcbsP/DC2/e2Gu90ctQCu0c3Z4AQdezo4EWbmwjgd01Mz49vAdhvDPAGH1GOUxDbwB9gDUC1MngD0BSf6QpG9x58i2LhGLwP5HwMZTbwyeqjZCN79j97tK4q0NbUbn/rxLYJ5qcCABoMJMxDDxrpWMZ85GN6fFP6SB7JuK4UDz9QtmMZy1M82zPv7X2ZbZlnO8g9ZRvjuQxblpXZ9H782n/RyJ/wsfWsrf7HtLCAvrlAX/bbAawZ1JlP6Rnwy+wthu3uF7zK14NrWTkFzCxnPhUPNjnwDtYZZKBOcvj5uCwH3+zpfyQjo8cC9/rHlrx50ACYeFpml9KngMji+zqqlrmuWXwi/0iG2JEuksHe08i2TMb6FI96TM82kHsKmzNvXP2T1uOdTtC1gG3+82cN2/q2DOykzycyHtxToB4BvPfltg10AP9C4AxG9wBogCr7R7KUPmUbySMZxzW+ik07pv8tERglAftbJ4u4FQBgKaKsMx5fgJTXTyufxx91gXKsqjL2Yb6qf2QXxYnsIhn7gje7DPxtQbg+HWmBbPX/yRmN/juU/DBgM9gzbzbRjBD7sg14GvkziALYIYsANZJl4EvT7PDP5KORuo/NNmzH8sgH9UOHMvtl8eh4xrYv35MtoKu22A6j7TrT4WOB/K4AAAkogGMayrbMF8VkO+aLfKDzlP1TPHy83peL7FK28AFN2bE8soUMlO1TfGQLmdEbXrl6IZv2VwLQEfDHaWrv//xImUe3beMB4J762QCfDKDs7RBnpN94/M/HC/7G4EhT6h5MozIDb44PZgzgH9lBxzRnV/G4cB4WJ+Wfbf3bhvv/ud0Kh0mAvSvAQIWBBcDBMm/jyykfyKtSrhM+LEvxsE1R9oNNJCvTQe+pxSqKF9kXyRYRCzHG4A9MEO1QC2wf7Gv1f4dmAAys/ejeAfn4ejC5B33zR0JAvD3nD7BloIQsAlCAa8o+5ctyz3Ms8KjH21o5soGM9ZEvZO2Z/vezEnY7YPMaXhsMwDDKvAcqXy6z51jz8KiXY0QyfzxV7KM4kYxj+XrYvsgu0nkZYoH6unyZ7cAbvfHNq1/pENrpVHMtgFf/MgCgUxdt58wAfmtPAeplgA8/stv49l+NwR+gCMpgClmKAqjLfKA3e/CpmCb3Nr4M35R8rO/E9L9LAmxm49K598++8dLETEAKlFjOYANQivQsS/FRLMjYh2UsZx42oEU62IBGtixjHj7z0JSv1VOlLm8HH4F/Dg07WNg5ODce7Qnw2wn40e8KEAclMB9fD9B5ikRhRG1v/zFA0rQ6wBw6oyzzYOvLOb8Z7vdH8UIZgTrX6Xn2Zb4Rb/7LTe07gC/U0VMBT/7X7IUwACOAiAcX6EHZDjJP2Yb5ae3Yl3kfx5fZ1viycpm/16McxWYd8/4YUjqWRzxkngr8O4j3E6e8PfhqbkOYCCwka3diAIB3wJ5LBCxBYD34hy7nQB2gyQBpMi4zn+kcALOe+VTsKAZsi3R+9iCqi+Ok+PZO/3OiMEwEytYDFIEWAChlAz1oyi4lj/wimflzDNh4WmSDGFVsfFxf5hjMwy6SQecp2xbxZ966+vAEFkjQwRbYPvjluKMX0Lcb6It+3ygJ8LMCsIHcvdI3AtuqoFrVzoMw/ECzYwhmC1jPNj4eyrmZCkpQWJ7Fad3qfwZ95k9nAs68uJ8DUAYaABLLUjxsQVN2LIdtika2kQz+pmM982wT8SaL5NPEYFvmo7iRjH2q8gL/DuJ8eMq2+18RKEjXrYQAAG+/exl/8eeFo3oAKSiAk4GY+UI7d58fseCTokXx2YftLHauzLc0Ar4dm/8w0Jfxw5cGResBAFBl1IAKX2/LIBbpWD9NDO8XxYaMbSMZ66vwZTGgB+WYLGN5ioe9p7DPwN/WfelRvxASuyO0C8B2/xPIdwvky37vMuA3/QPvHdtUsIEog6UHVQbqlB37FMWDHcdhPtKnZKEfjfLhV4V2Y/qfk4LhTIBtFcxvDQTgGNAAbMD7stnCHhS2KIOm5NCDwo7rYl0ZD72nUTzYsI556EGr6iK7SIa4nrJtxN/49tXv6jn/7kB8+Zna7n9lgCB99xIEJAGY6sc1MJJHL/fxI+ci8GQAZt77FOnYdlY77zdRpqQgl8yM5CZrz8Y/DPJF/OmtAEsCoyTAA5MvGzgxQEX6Ihn7go/soSuirJuWj+qEzGJViQd70JTPvHoD/5Pbe9eXg4IsutECePwPnbto94C+6DdHEmA24LcHx9d945vJUT9AeQJIg3vysGUKPwZb6KGzMvjQjkHbvTUQsapQ1MH1MW91d2/6H4kBkoDh/gBl4FQF1NgmihfJ2Id52HpqNmw3LR/Fg4xjQQZaVcd2zBfFYTvm2efslXe+3w1Q01lWbwE9/ifAL0oAGPjB24r/4D44AyODK9tCzjIAOMsiO8g8Zb8UD5+UPien5AF+RbR70/9IAJfWOBEAACAASURBVIwiCegf8/sCGIRSPIMTeFD2KZJFOvZN8fCbllo8jgl/ljEPPSjrjPdl2HlaxTYVy+Rn3/zHtzNQ0D3/6tjYCUt7/K8MAKRXkmCjf7sVYIv+Xjg/vO8/JVCmQJTBN2VjcrZjvshnGh0SEdSVK9O5enn3pv+DBODSuffxvgCAFwMSZJ5GNouScRzmcQws83xRmf3ZDnJQ07GeedikKNsy7+1NV6Yfg38nAE0nOV0L7By+Pp7aFdAL6IuuAVr0x8BqgMiAHJUBqvBjEIWMbXyMnA2BceYzKueOITVDQb58DOA5Bupkmec3Ln/2/W4nAEgGThcFnv3Zr7LFfQArD1JRGbag3iYlLwI/+IBGtixjHj5VKfsy7/1Zl+Lhw/oiWaSDbwb+GvVPh4mdsf7Wu2cF/h3b+78I4Et0vMd/BI6QecqgaTougwcAe1+UoYc95D4eyz3PvikePqgP5RTtPfPJDi4ABOgzHd0K2N86sScDAEqeApgiarJIjhhlOtb7WEU6xAf1tpCDFsWGDWgqFsthC+rjs5x5juF5K2vk3xkkn/FE7e1/WNhV0vnrNkHHEwW30x8DKMDRy3wZdhH1tlxmHr6RzHQM3MzDr4zCB/FRTsXuPc4g2HX+NAn4vR88mIE5AxPAC7RIxzaRXSSDT1XKMZiHP8uM5zJsQFnHPPQpOk3cVAzIud4M/G2Btz5qgWQL6P6/pvzLEr8Z7vsDPD3YmjwHqDRND9uUL/QRTcXkWDk+dRsgOB7Ul/Mf2W10Zve/ionN+DXIw0TAdgpkcGKAmpbnONPyqbqiOEUy6DytEt/bcBnxTJaSs00Rb7oP/t0//UtP4J+EPSnQAnb/vwwApO98krDxna+MX/IzBsTovjsBq7dDuSoFqEfAazFS8irxq/hG9fvY7X75T0XQT75AqH/c2986sZ0CsUcAgAuUwS7FR7aQeVoWA/ZsV1XGPsbjC39Py/Te3pe5PujKZKbXyB/gJlrcAru/+ZDAv+PT+mXJnT3vP3rDHwARIMggmpKxDfNmjzLiosw6xGUKe5Yxz/oUz/YRz8cS6SHr9uN/ZQnC6HbApXPv3/Da3/8OgAgKUCujVUAvsknFjWxZZjy+iMF6yDxlG+ZhxzLP+3KZT6Q3WTbyt3VdWvRXjH3S9no9u/9fBgDSd3v0z4/8Ydo7GuUXTJ0DLEGrgqvZsy3zrMuBPB0H2+d4zFzQeXAMHCco63K8pv8rLH4czgJgu2ADqQi8UgAY2ZbJfCwr41vkC51R5n08r5tVz35VY0Y+kI3BX+CmFihtAbs/pPv/3Qb3CsndxuN/PjH1PwZGAlvIQHOAW5A4FNlDV0a5rjJb6NnH8wB5UPPxNpnsR5+qAIBlo+QW67P1AKNZgL3+MScBAC2jRTzrAJLeB3JP4evlKEOPeL7MdkU62HnKPl7ny2zLvLdD2WxgZzKBfyniyWCiBez1v3oCQElAKhF46PLEZj8MhGMw5ZF01aTA7RuAWEwBwFwneOjY3niWRzz8vV9ULrPV/f+KyQslAvzOAIBZGQXQRZSBsIo+svH1T2vD9swjrslYXoVn34hn2Rj8Ne0/AXESpFrA7v8L/AX+KfC/MDjBW/5CcCTQz4A3AfxlIMq+OcBOxONjsdgpH66Xefjn/OhcWA7bFNXjfxUTgGyRIGYCNq9xEjAtGLI9QNBTs4nsUjKWM4+4LGMeelDWGc/llA3knrIv87CDLAP/v3nnJt3zTwGd5HELaP9/gX8B+PdGo38DPwZQACTLGCBT+pQ85xuAPteDGOwzLY8YubhUb06eSAwshh7/mwb82XaYCNhbJA3E8PXA5uXQgwIAYQcKfYqyXxWbyJ5lzKfieTn7pPgiH+gy8P/hW78v8I8hTtJUC9hU0YXDi1oAqCcAJq4BmxVKbfdLQAngzQFmoI/sIDPK/pADpFEGZVvmfRz2z/EFx4c6slgE/BOxRzG6+/Y/BvNZ+NMnA7BREAAtRQ0kU0DJcvizbFH8rLHZj48FclDWGe/LbGe6DPyfv/IHqS5ecrVAcQvsDJ6f6PyLRoTSdWbGAI/9MSh6noHV6zLQHIGoB+pMFwAx4rE981EdyVgUPxUD9fGxch0pP9ho+99ZwB8+uB3QP/YbBTHQgQdlUIQsRdmWeW9fpIOt2VS1K/PhOMzDrwrNwP/Ft/+wuIOXVi2QagF7AkD3/zsD6FMlem70nwJKAGSZHoAZ0ZwvgXZoS3rUzXYci+XMsw3HSPHmm/OhmQHb4EYvAJqjDWhhoCUBDIYpHuCY0rM8smVZma3pI5tUjDJb+IGyfRHvdbahUk/gn0I2ySu1wO7RrVOBgkb/nUkW/Oi/CBwBrmU2BqIpG5aH8Qh0oQfNgfMoQcjJyJfrYRvEStGcH+rQ8/8LSn5oJuDlJ0sBF+DpqQfJIn2kK/OHD9tFskgf2UGWolEck2Uj/8tv31apj5eRWiDZAjsH20oAdP8/ugaKVv4zSFYBUQZP9p2G5xjgq9RtdcCe6/MyjpXi2T+Lq+f/F5MA0CxAb69/fMYlAQZ6KTAEeLI+xbNtmQ3bRnyRDDpQq4vrYznzbMM8bIzatyfwT0KaFNO0wPbBvm4BKAGYSAAefGW86U8KDE3OIJqymwBNnsIP1gekYvo4KMM+Vz9G6DTyH9s72cR58PExT36oS/f/55j6L3pvwCgJYODzIJoCyEgeyXxslCNbljEf+Zg+smFb1jMPG1DWGZ+N/H/y5h3TdPGyVQukW+DCYDDR+WuavzPT/Knf3nb9A7AacKb4MagyUFbgIz/IPI3qBgCzLdtBzjL4sAx2VSj7gdfz/8tLALKZALcmAMDoqYGjB0vYsDySsd7zXIYvqOnwhcxT9mfe26HMNhHfE/insUyaKVsALwDSIsDOA34uEXjgvWMAXBkwAlTL7Lw+8uM6mfe+KBfZRPHhB8o2VXj4gZqPFv8tIwFAzOG6gFmfDvAAamUvi4AXMtCUj+mr2KT8q8gRP1vwZ+CvHf6mBDmZxy1gF5I2ABLw+9keSwYfuhyO+COQBAhHOgPKlDzTjWYK2Abg6mlUD2zYH3xkXyTj44l4xEWdmY3u/y85ATpdGHjDTx6eCbwBoAzWLDMQZiCGbhoZ2zLPsUzOOuZh5ynb9F5869MC/xjKJJ21BbQBkBIAnwBcGJws8qU/EZgyiE7o3ZqAEHjpFoP397FTeiQDkX2RjI9H+/9jpL5MepoE2GZBNhJmYARosmxanmOkfNkGfIpyjJQN5GbL9sybjX0F/rMCnPzSLTCcAXg6N/UbgIH0HVsguD043njhfOHInUGVAbEIOKvqPDCjHNUTygpmFUL7YGFfdn4pOcXvPXH3kkfAywTWJsU+TQL43QEMoovgESNFGZw9cMMnsmFZZBfJEP8DL7x9b7oTl0YtME8LaAGgZgB80nfx5+H0vwdFBnSAtLdhwM3xBKIcp4znerK63EyA9/f2kQ/bVOFRh52P7v+vMok4TQLsVcI3vvXOsQEnwDNFGXyZ9/as8zyXi/y8zsqQRTEiGeyNnnnj6p+c3N67fp4uXr5qgbgFvvzrWzS679jo3oO9L28Pjv3mPwA8UIAkAzp0RqEv4tme7SLfqB4v4zLzXI+X+zLbpnj22bj82feVAKwnAch2Xrx07v2zb7w0MX3OoMo8A6vJWZfivQ/KbB/JWG98UTnlb+Afd9ySqgUW0QI7g/uUACgB8NfAdd/45hjEAXgMzAyOKTnbRHxZXO/j6ykqs66onsjO6oWP57MyzTjoBUCrBH9fV/8YSQC2DvYgC2AFZX2RjHXsY7wvsy14ULaFzNOUTQb+tkW7VvwvAukUI2yB7cFXfeevshKCje98ZbwBkAfiCBTZJgWeOTmBKPv62OwDOy/zZdhlsRL1sE+OJ/tccvDK53NJAWJrAyAPyqsun94SsMWBHlxRZpBN8WzLNiwH72mZPeuLeOhueOXqBQF/iFgSLrQFdg60ANBPgat8Yu9mB5DmgNCtzs+AMJIVACniggKAc/Uk/LP6SBeVEdfTqB7YcN2QVaHZBkB6CVBt1kHY4sCzP/vVOBEAoBqtwntgT5U5FmxYxnxVvdnZV+C/UIRTsMIW0AJALQAMEh7rSAGYDIQeKH2Zbavw0/j74/HlovpS9fgYXE7yowTE9Lr/v+oRf1F9Nhuwec0WB/p1AQDhMmrAzeAdlRHD20HuKdt5HcqwufHNq18p7K+lVAssrAV2j27W/v+a7o9u+fgXADEYpoCWbarwPk6ZjwdxX/bxUmXUE/mzLMUjrhYAFoHxunSjWwKXzr2PTYMArkar8ADlFK0Sg20Qh2XMQy/wXxiyKVClFtAOgBr9B6N/SwjsFkAKAMcAys/I07R80s/ZII4BahWfMfBSvZBVpVwP+/CxsDziYasFgOsC+bJ6R4sD3WwAg26KBxin9CyHbYqybRl/5q2rD1fqs2WkFlhYC+gVwEoAUglAwSJABlHmI7CsIgOgltnCbhF1Wl1RPMhYzzzXrR0Ay4B4zXpbm3Hp3Pv25fcIALBToDyrnuNFMSDzVOC/MERToKlawF4BnAAAyTt8a8D2AbDHAGmkzXwKqNlmWj4VE3IGXsjmoVE8lqV4qxPnph0A1wzwydcI47hOnxCwtQF2W+uG1/7+dxFQe1BmG+ZhF8lYF+lZZrx9Bf5TIZaMF9oC2we/1BqADgN9UfL30OXCpwAYCDPeTe8DnFNAmpLDr4gCgLN6E0lKFRvUwbaQpSjbZs+gl4IQwEh0vQsm82sDGKyZZ5CGHBSgzWXwKVoULwN/Pee/UEhTsKotsHtyRuAv8E/O9CReBTwPcKdAleUMsEl+AclGLvYoXk6WSCzsWK0NzHa9gKaEonr7Y00A6PBJgTMvPxk+LggwZ/BmHnpQJAagLAcPCpsb37763ew5f23yUxWxZLfQFtg9ujXZ+ReNDKXrzLqBjW//1Xi6m0E64quAZ5lNKrnIyQmYo+OYRsZx4ceyFG+2egKgiQkIEgDQrZNs34DRVsIRyFeVGcAzyEc8ZBn4L7QzVzC1wDQtkL0BUFsAKwEqmAF54L1jmyECCBpNAvgCRuQA4CKKY2Gb5DFRopCyQRzWQ1ZG9QRAExMAf8xYIzBcH+D3DigDf4zmAeyRvdedvfLO96fpqmWrFlhOC9gWwNbJa0TfmRH91L/1A++FLwViIJ4FPFPgyrFSvPmaLncMcyQgOBaOBxnqQplt9ASAB9OmlpEEDKltImT7B6R2EwSge8rgH/Ef/MW7J7ZVcW+vf9h7bOu25XTqiqoWqNoC2gJYwF8l+RslAQzIESCOZRVG3hwrx1cActSzKMr1IybLGPRZr3cANBXwo+POJwHDxZ2b12wvDJsVANhHwG6yIrnpLIYlFr091LN5TUlAVaCS3XJawJ4AqAIAsul2ojCcJRps/PW5hyMwNFA0wGTdPDxANqI5YJ4n0Rj55o6zQIZj4fr1CGAEpE2WAZxH1PYQyN7x0D828LbRuwG5jeQZ8JEcRDQD/mcuDuNMvC9i81rv0l0fW07nrqhqgaIWsCcABOzdBvaqv//OwW97tmD02ZPrLQkAGBplQGT5rDzHS/FZvRVmCnLgnrDHcbJtJMsdyyiWHgFsMtgXHPsI9E9H6y4xGO0uaLMDlhTY124Z2Be80WwDovGI32L4Ok2mJKAIpqRbVgvoCQCBf5UEAODPjypd2nqoFCRnHJ0zECd5io3jmJUysCNGKKMEwuzMZrJD9x28ys1uIw/8ozISBFDbaTAH9PA7nUEoThaz2wHnltXVK65aIN8CegJA4F8Z/Ae3595JbteOfSkJAHCCJoGbQDRlgxgpGvkxYE/Nj44p5xfI+HjMduPle4IRnQC/2YAf/H4AeQN45kPAB/CDBvEmZgFgoyQgD1IqLbcF9ASAkoCyJMBeFJX6uCSAgZnBclo+B8Q00md5FJPrr8JbDB+T/VAHy9hejwACuDpKs2QA526AD34eOkoC7L+lj1pgaS1gF5jeAaAEIJUA2KK/3cHthdefXUP23f/4lwCWoDmgTIB40qZkliDlh7qrUMRgcGc/6FkGHj56BHAeoJNvOmHYvNZ7pH9v4X9PSrXA3C2gdwAoAYgSAAN/G/lXHYWY3ffu/oIHSCsDLCvzlCwgXkRTcSPbSMb+pveAz3roWGY+SgAE4mkQn7dt7HZD/765+3gFUAskW0AbACkBiBKAomn/1MVkLzP53t1fAFhGoFsm8wDrgbksNuur8P54rH72y+qn2Qh/PNoDYF6Qk39xAmG3Fe68P/WXk1wtMHsLfPnXt/S2B9oBMALArsqykf9g9lHHaCaAQXRaHiDLyUCKjwAcspRPTu72LYAvKB+7yVBGDO0BIAAvBvBFtc+d91eejZsdEeTZmRawjtpGeV0FOp335MzHvODPf569O+/3YJkBKI2mAaJeDvAto4if+Ve8bYCY7AuZj8PHl+no2OHTe3xRHbzirAZIm9zOmgngLkb8vC2wc7CtdwAUvASna0nCzhwj/+ha/O5dn08BLQDUU7Yv4xmgmfcxUeZ4JmMf03EZPimKWAKtJgNqE4+9/8XoryaZWmC6FrAZAHsEsGsgp/ONR/4Xjs4vfIrRrjFLAl6+5xhACuDMAJhG7SzPdDTaZmBmHjEjyvFyvLvHzzqOg3qg9zQ7Rm0CpE2QFvLY35SJyP7HvzRdZy9rtUDUAjuD55UAaAagZ+C/zI8lARUAnW0YjFM8QBlgnNEK9fh4ZfWyPsdrEyAlAOtIAKzOR/sPLvMvq9htb4FsBkAvAep0AjR81G97JZf6Y1vneCbAgzCXGdhZznwOiAn02SbiOTbzsEXcSAcbUO0COOXIdV1g2dZ6L209tJL/rippYQvYI1uaDp+cDu9Sm9gaEEsEV/V5bOvcGDyrTv8X2CEWUwbuiAfAmw/zHAM863OxRgnHxuXPvq81AEoC1noNPLr5tVX9fVVPm1pALwHqLvjbyN/Wf6wS/O2/Y/VduutjmAnIAay7Nx+CMICXkgLYGfXxoGM5ZExz4F4hNnyVAAj81wr+2cxG/7inJKBNyLyic9EjgN1NAAz81/VxSQDA1FMG5QkdTfkX2Xk/K7M9eE4QcnwqGRjJ9R4AJQDrTwBGv4ElAatO6NfVh6jeBbSATf92abpb5zpMeNYJ/rhsraN6bOu2cCYA4Eog74GbgR2ADTBnnedhm8Vz8dmWY+V83LEpAVACUJsEwN5K+MjmnpIAdDKixS2gRwC7NwNgv7mt/ajLZ3/ro0gCUqBsYByBMAO2980BeGIUz/5sDznXCZmnSgCUANQnAbDfQklAXbq2+h/HzsHTmgHo0COADxx+vZajA5cEGMhGgJzJadRuAF3VbiEx/ejfEpMffUqPwbV1hX2jz6v/VC3/6/VHxQ4dod4C2J0ZAHvlc50/T37iI9FMQArgJ0biVUb5nDxUsXeA7+u0st4EqBmAes0A8O+hJKDOXd56j83uwe4c/FYzAC2fAchW+9cc/PFPsCTg8mffj4B2mtE+Jw3Mc1xM75fpy3yUADDgiK9fMtB/qla3/PBfF11zC+we3Szwbzn426LHuo/8/d9g744PYyYAIM0gbHwKtCfsKoz4uY5U3EgOPyUAAv36gb7/TfrP9Z7eutH/1VTucgvsDm5XAtDiBGC4w9/Tjcz+LQl48XP/7AE9A38G9RHPAM08/AHW8Pc2XIZtmQyxlQB4sFG5fglB/7i3pySgy3A/ee721jc9FtfeNQC2wLNOq/0nr8C0xG5PWRKQuB0A8GUK4AbIsy7FRyDPthwTci9TAiDArx/gp36TzZc0E5DudrqjGd7/1x4AbU2ADPx3T840/oJ+4p6bMBMA4M2BdoWFfAbcKR/EBLh7W8jZHzJQJQApsJG8fonB5rXenpKAxveLCzkB7QHQztG/vd2xDeCPi5ySAIAuAzfz0Bs10GZdiocPQD5nFzwFALuxnx4D1GOQjXtccPOl3hP33IS/mGjXWmA4A6A9ANo2A9A28Mf/MkgCAMCeeoD2+qjMoA+9l/m4pjeZ9gHQSL9+I/0qv4mSAHQv3aQ7h6/3bKFY20Cwq+dj4P+td8+29mJ+eutG3A4wkGZAzoA4WBwIMJ+Gclz244SAbXQLoArYyKaeSUL/imYCWttjlpyY9gBoxy2AbLX/4eutBn9cyj4JINBnsGaewboS72Kyj8XlRCAr6xaAbgE07hYAJ2RKAtC9dIfu/uZDGvm35BFAm8mxkb/d1unC59mT620mYAKYaUEgdAzWlXgXg304qQBv9eh1wAwm4us50i/7XfpX7KmbLnQfOkdrgd2jW5UANDwBwMjfkrmufSwJuPyZX4yBmEbtZaANH0/L/KBHcgF/JQBl4CJ9M5ICJQHd6UZ3Ds4pAWh4AmAj/y6Cv/1LbbbDJQEAZKYM1lV4803Z5eJywvHyPcfN6OAFxPqdyq6B/lXNBHQhDbhwdF4JQEMTABv520ucugr++H9SEpACbYzaM2Bn0E7wAPnIj+uAXRZXCYDWADR6DYBPCvpXe09+4iP4m4m2sQUuHF5UAtDQBADg35V7/hX+fxs//cwbEyBP9/MZsFN8CuDZPpcYYI+A1/5YANgqAPSA2MVy/1BJQIWOp7Em9l74rj4u1+TzBvg39sJb0oGf7G4gCfCJAACcAT7Jj2YGUnrE8nX09rsIEjrn9t5SsB0DlQQsqbeqQVjbKrbJQNjFY8/A/+jmGlw9tT0ETgIykJ5yN0AAfG6kz7cLErMKvSfu1iyAZgFaeA30D3v7Wx+t7R9eBzZDC9gLYmwBWRdBtInnPNysadCz1zfrU9wCJ7sb1/340z/gETxAvYga4Bf5sA7JAcuUAGg2oL2zAUoCijudJmqHoNKOjXCaCOrTHbPAf5r/2CgJAOAzUKd42BpN2QD4c7aj2YHeM59s4ehPoN5eUJ/2t+0f9h7bum2av6Fs69oC2gSoGYkPRv5f/vUtdb2U6nxcNhMAsGbwjvgc6POUP/HjWMFtAG0HPC2gyL55ycXmNSUBde7xqh6bAcp0I9BmAGb7zmnQs99Kq/2rXtkTdtntgADEAeZMOTFgOXgkCWw3lmk7YM2AdGINxOa13qW7PjbxR5OgQS2gTYCakNDYtP+tAv85/1f2dMBfn3sYIG4UoO15tvE6Bn3YsWxDewEoAehEAtA/7u0pCZizV1qz+87gPs0A1HgPAHtJk4G/PotpAZcE5ICbZgeQGKT0Y+B3twDMz77Nm9LVNLx+s1mvgex2wLnF/EEVZbUtsHOwrQSgpgmAwH/x/wW7hTJKAgDyAHNQBn3ImLJfyrb3+KydqfwExE28BpQELL6zWkXE7cFXe3oKoH63AQD+I8BaxaXQqTrcTAAAnsHdZFwGH4G+6ViuRwGbCGI65vmSr1ESoHVKDepKbRdAJQD1SgAy8B/crnv+S/4fWUd1aeuhFLAzoDOPZMEnCCzXkwAC0/nAtKntt3mt90j/3iX/cxV+YS2gXQDrBf6WjNnCTH1W0wKjJIDBu4yPEgYv29CTAFoH0YmFgFGi0j/u7ffvW80fWLXM1wLaBbA+CYCN/AX+813P03rjFsv+x7/EwA9AZ5nx0UxAKNOTAEoAOpsAWFJgTwjcef+0f0fZr7oFLgwGugVQg0WAGvmv+srP12eJACUBDOrJZMA9AZAlCCTTS4Gi0aFk3bo1cOf9upWZ72rqU7L3ALRvw5z6jOinaVuN/Nf7v7AEwP4P37v7C37UzyN/TgZSSQLk2hJYYN8tsE/93poJWG/nlqpd2wDXI1mwvRgMgPRZfwvY7/C9u78AoAeYc1JQVaaFgClAkLx7iUH/i+v/c+sI8i1gG8xMM0qV7eITBgN/ferXApQE+Kl9JANIElD2VDsCCui7B/QFv/n+x79Uvz96l49od3C7EoB13v8/Ot/ly6/2505JAI/6AfyQoewTBZMLAAoAodOL5DraLo/2H6z9/74zB6htgBc/oq8yS5LtuyDwb8T/7Lt3fT4H8LRdMI/4kQxkScDIJksA9GpgJUFKdPLXwKWthxrx32/9QV44Oq8ZgHXMAAj8G/XfGiUBnAj40T4nA8xrHUBHR7oC/Tzo+/Z4dPNrjeoDWnewttjpwuFFJQArTgDs3Qv6NK8FHunfa/f0PfDbyJ8TA+YzW+0HUAwEHhhU7kh79Y97SgLW3A/aewCqTFnLZkG3Cg4varX/mq/5eap/bOtcBupT3AYwe70XQLMAWguSuAYsCdATUPP0SjP6WqNvH+wrAVjBDIDd87dkS59mt4D9Zx7bOsejfOYN7KOvbgMkOn+N9jsy2i/6/fvHvUc295QErKNr3Bk8rwRgBQmAwH8dV/fy6rx018cM+AH+uQWAtBPgWK/bAAI6JTsF14CSgOV1VkWR9R6ABU3tFyQRAv+iK7B5OpsFsK8lAaM1ARj15xIBd5tAtwGKRoHS6RaBXQP9pzQTsMouUe8BWG4CYOBv28vq084WCJIAJAOgSAr0dkCBvEC+yjWgJGB1neX24Fi3AApG7/Msfnzg8OvKZld3Ka+tpv2tj9pMAIDegB9T/0gCIBMAVAEA2eg66T+lgdOyezR7D0C2Ic2SAHAe8Gy6ry2u1Kc7LTBKAgD4qWRAiwEF7gL3qtdA/7ne01s3dqcTWfWZ7h7drNH/EpIfgf+qr+R61PfkJz7i1wRkI3/aFdD0AoCqACC7bl8r/ePenpKA5XVuehHQ4u//7xw8ramr5V2ytY+cSAIwM2BUiwEF7N0G9ml//82XNBOwjJ7P3j/f9Kn2uhy/3UoR+C/jKm1ezL07Przx4uf+2W4DYC0AaDYj8KNPFTwONW3nKHuBaduvgc1rvT0lAYvvCO1FQFoDsJhZAIH/4q/Ppka0RwQtCaBHBHlNQDYL8HjbO22dnxKTRV8Dmy/1nrjnpqZ2C/U6buuk9CKg+cE/G/kPnu/tnpyp1w+so1l7C4xmAnj6HzMBeiRw0eCgeN1IOJQELK5fduasbAAADolJREFUsxcBaQZgviTAdlIU+C/ummxbpCfuucluByAJwEyAJQI9zQLoVoh2B5zhGuhf0UzAIjpK26SmLvfQm3gcAv9FXIXtjYEdA10SME4GtBZghs5fI/1ujPSLfmdbE6AkYP6O0zaq0QzAbDMABv7fevesNvqZ/zJsfQRLBCgJGN8GsFmAS+feV4de1NlLp+sjdQ30r9ham9b3H0s7QXteXQnAdAlAds//8PWebaKkj1qgagtYEvD01o14OkCzAKlOXXIB/jTXgJKAql3QpJ2NYpUATJcA2MuTbOSvj1pglhYYJQFIAIxqX4BpOnzZKkHw10D/qmYCZumM9CbA6cFfI/9ZrjT5cAs8e3L9xuXP/AJJgHYH9B26ygL5aa8BJQHcxVTjtw9+mc0AaBagPBGwZMnA36Zy9VELzNsClgSMNguyREDvCJi2w5e9kgR/DfSv9p78xEfm/Wt2x1+vAi4HfkuOLFES+Hfnf7GqM6WZgOyxwH3foakskNM1UP0ayN4dcKgkoGoHppF/eQIg8K96NclulhY42d3A7QBtDiSwqw52aqu4rUZJwP7WR2f5O3bHxxayNfHZ+1Uecwb+Rzdr2r87f4t1nenGTz/zRrYg8JlP6tl4bY6ja2Dua6B/2FMSUNCd2ZT2KsG0aXUB/AuaUCq1wCJbwJIA7RCokW08slW7TN8uSgLi/skWsn3517coARhM3gIY3hYZ9HaPbo4bT1K1wPJaIEsCXr7nePrOTgChNtM1MHkN9A97j23dtrx/bFMj7x7dqgQgSABsYaTAv6lXdSuO+7off/oHWg8gMJsEM7XJbG2yea136a6PtaJzWNhJ7BycUwIwkQAMspmRhTWyAqkFpmwBm5072d2wJKCn9QC6Fz73vXAlDb09WxioJCDfEykB8NP/NvK/Nd9IKqkF1tcCWRLw5F2/m23Uo45f7aZrIH8NbF7rPbZ1bn3/6LrU/OzJ9b2dwX2aARjPAAj863Jt6jhOW8AeEfzrcw/rtcECsjyQqT1mbw8lAcMO5sLReSUAg5PezsFvNfI/xRxxNWsBJAHZWwNtKlOdv9pA18B814CSgF7vwuHFzicAAv+aoZ0OJ9kCe/0vztfpCTTUfroGTq+BzWu9R/r3Jv9vrVd0PQHIwH9wuzb5af2V3o4TtMWBe3fef9qBqTNXW+gamO8a6B/39vv3taODmOYsrDPZHny10zMAtghSH7VAk1pgnAToVsB8Hb+AU+2Ha8D+S3fe36RuYDHH+sDh1zuZANhGP7sa+S/mIlKUtbSAjVq0FkCPCOoaWOA10KUkIJsBONjvVAKwPTjOXn1sI387f33UAk1tAbt+7XEme7ZZILBAEMCoULSb11WXkoCdg6c7lQDYyF/g31TI03FHLWBbnO71D7vZWQuk9bsv4xrofzH6q7VLZiOIncHznUgADPgz8B/cp5F/uy5jnU2vl737fK9/VWCwDDBQzO5dV7Yw8ONfan/fsnP4eicSAJv6t02P9FELtLUFnrjnpt5e/8pwy1OBVvdAS7/5wn/zR/sPtrW7GJ6Xve62aa/oneV4Bf7tvo51dsMWeHrrxt5e/7mFd4RaY6A1Bl29BlqdBNhb72xqfBZQbYzP0Xnhg1qgMy1gt/Ye3fyakgCNiHUNLOgauLT1UDv7D9sIp9UJgMC/nReuzqq0BbJdA7VXgEBwQSDY1RkAnLcl1a37NGYUP35hj397X7q8c7Ddut9LJ6QWmKYF7P3nekJA0/cAMdH5rgVLAlrx+LidxO7JmVZO/WczGocXp+knZasWaGUL2P/8yU98pKcnBObr+AWcar/sGugf9x7Z3GtHErD7mw+1MgGw7Y31UQuoBU5bwBYHWsclIBOQ6RqY8xpoSxKwe3Rz6xIAgf9ppy9OLeBbwN58plsCcwKA7qkrkdw6af5MwJd/fUurEgCBv+/uVVYLTLbA3h0f1qOCAnGB+CKugf5Tzb0dsHt0a2sSAIH/ZEcviVog1QK2NiB7SkDvERAQLgIIuxyj/1Tv2ZPrU3+1+srtbXhteATQ3mhoHZp99VELqAWqt0C2QHDzJYFglwFM5z7/9d9/rmfrbBr1sZfiNPkxQEtetg/2G9XmOli1QJ1awJJmG71oNkDrArQ4cI5rwPbbaFoS0PQEQOBfJyjRsTS5BSwR0GzAHACgUfT8o+g2tGGTkgDbH7+pMwAC/ybDjY69ri1giYBmA5QIaDZgjmtg86Vm3A5oagJg4K/7/XWFEB1XG1pg+KTAUxrVtWFUqnNY/XW8+VLP3s5Z248B6IWj842bAdg5eLqZKy5reyXowNQC6RZ4bOvc8BXDApHVg4javNltXvckwPbKb9JTADuD57Pti9PdlTRqAbXAolvABgv7H/+SNhASIDcbkNfx+/Wv1HcmwBKAJqwBsCRF4L/obl3x1ALTtYDdFtB2wnPcG14HAKnO9SYt2dMBNU0CLhxebEQCIPCfrqOWtVpgmS1gTwtkiYA2EVovuAjcm9P+/Ss9S6Br9bHd8+o+AyDwr9Ulo4NRC4xbwBIBez3qnhKB5gCRkob1/VZ1SwIsAajzGoCdw9d733r3rFb8j7tcMWqBerVA9tjgHR9WIiBgXR+wNqnt+1frMxNgW+jWcQYgu+d/+HrPXlesj1pALVDvFsAjuTbFeWnrIc0INAmQdKyrT1zqkgRYAlDHGQCM/Ovd7eno1AJqgagF7PlnPTWgxYLaTKjgGuhfzXbejP4/K5PZhjp1mwEw8NfIf2WXgCpSCyytBezlKNmugjbi0UhTbaBr4PQayJ4OOFxvEmCb6tRpBmD74JcC/6V1xwqsFlhfC+zdeb82FBIAngKg2qK3N0oC9rc+up4/piUAdZkBEPiv5xpQrWqBVbWArRUY7iz4nIBAAKhrANdA/7C3liTAHrGrwwxABv5HN6+qH1I9agG1wJpbwDo87SVQcI8Y4CDajURhHUmAJQDrngEQ+K+5J1b1aoE1toA9OfBo/0FtMyyg7wbQF/3O/cPepbs+trp/oy24W+8MwKC3q5H/6n5w1aQWqGkL4PaAZgU0K9DpBaOb11aXBFgCsI4ZgGHSIfCvaV+sw1ILrLUFsqcHskWDWivQaTAsGi23VWcLA1eVBNj0+3pmAAa9L//6lrV2MqpcLaAWqH8L2HbD2Z4Cmy9piritoKfzCq9tWzC71M96EgCB/1J/VAVXC7S0BWy9QLavgJKBEDA0W9Cy2yeb17KnZpb2d7YEYJW3AHYOftvbPbp1aeejwGoBtUA3WmCcDPR1m0DA3zLgdzMij/TvXfyf2hbdXBgMVpIA2G0Ggf/if0NFVAt0vQWsH7Oth4cbDT2l9xA48FBy0ILkYPNabylJgIHyKmYAAP72Z9VHLaAWUAsssgWsX0Hfkr2HoH/f6R4DtqhKoKg2aPo10D/u7ffvW9zfxv4wq0gABP6L+80USS2gFqjeAvY0gS2kyt5QqPcRKAloehJgx3/n/dX/AGWWyx79Z+A/uH2cnZcdj/RqAbWAWmBZLWBPFIxvFWQ7r7VgergNoKZzmC45W0QS8OzJ9Uud/jfw3zlY8mMMy+opFFctoBZobQvgloHtupbtQqinCqYDIAH2etsre4nQF+f7f+6enFlaAjBc9Cfwn+8XkrdaQC2wzBbAugGrA2sHHt38Wm9PtwvWC3BKMKq1f3+OJOBb755dSgKwPbAV/wL/ZXZciq0WUAsspwWQFNjLirI9B/pP6T0FAuRqgLzqdrKFgR//0mx/hN3ffGjhCQBG/nZ7QR+1gFpALdCWFrD1A/Yo1vDFRc8NHzfUEwb1BMZVA/Ga67NrcurPMhKAncF9WvA39S8hB7WAWqCJLZDNEtx5f2942+CKwHDNQNjlxz2nTgIWnQAI/JvYhemY1QJqgUW1gK0jsMcOc7MEAkUlRiu6Buxx18qfRSUA2cuEjs5r5F+55WWoFlALdKEFbD2BPWlgawmy1xz3NUvQ5VH6Ks7dZqMqfRaVAFw4Ol+pPhmpBdQCaoGut4AlBVhPYAu4xomB1hNopmBBMwWWBGAxa/L/tpAEQOCfbF8p1AJqAbWAb4FUx2y7FtqaAtvudXgLwZ4+uNLbU2KgxGDaxKB/nCWWqWstuybnfQxw52C7PMvwV7/KagG1gFpALVC5BYbbGd+W7WBoiUE2Y2AbF21eEzBOC4xdsh8lAeGFZpnBrBsB2T3/7cFXBf5hy0qoFlALqAVW0wL2SmRbY2CzBuPbCZYc9A+VHHQJ7AvO1RLG8DNrAmDgr49aQC2gFlAL1KMFoqne4RMJt2V7F1hyMHxU8TntclgAlqtYpLeOOsLNgmZJAAT+9fjD6yjUAmoBtcCsLWC3FWwhoj2yaE8oDN+WOFpzoFsL7Zs96R9nW11PXC/TvA1Q4D/RfBKoBdQCaoFGtkA0a4AT8bcWxgkCbi9oYWLjkgTbxXLic2EwKN0O2O75P3D49QlfCdQCagG1gFqgnS1QlCDYGQ9nEIa3GOwVy9ltBixStPcnZMnC1cYB5Tqm6FdRp60TmfjsHDzdyzbyGZwkEwGB/0SzSaAWUAuoBdQCFVvAbjnYrMJjW7dltx0MjOzWgz3VYGsThnsh2PoEe+xRCxiXkRBYwjbx2R3cngR+uz0g8J9oMgnUAmoBtYBaYIoWKJtNML23yV7PvPXR7CkHm77mWYbTpMHWLdiLmezJByUPYeJgt2v6z6V/LXt1787h65OJwOHFiR8lHUUatYBaQC2gFlALrLYFkDxwAmEzDpZA2KjXNleyRyVtwSMSCZt9sFsWtrYhl0yME4mr7ZmJ6F/NZl9Kf5Xdo5t7tq2vfXePbi21l4FaQC2gFlALqAWa1gKcLFQ5diQUdhvDkgokFnZLw5ILTjCyPRnsFsed92e3OZBsYI0Ebnsg8Rje/rCZDJrNGCciNqsxSkamvTXSvzJ8uuOOD1c5RdmoBdQCagG1gFpALaAWUAuoBdQCagG1gFpALdC2Fvj/6RYqHsZo1+EAAAAASUVORK5CYII=;" parent="z4DHmxEM3Tl0a3bXThNu-6" vertex="1">
          <mxGeometry x="968" y="104" width="52.5" height="52.5" as="geometry" />
        </mxCell>
        <mxCell id="z4DHmxEM3Tl0a3bXThNu-33" value="" style="shape=image;html=1;verticalAlign=top;verticalLabelPosition=bottom;labelBackgroundColor=#ffffff;imageAspect=0;aspect=fixed;image=https://cdn1.iconfinder.com/data/icons/ionicons-fill-vol-2/512/logo-docker-128.png" parent="z4DHmxEM3Tl0a3bXThNu-6" vertex="1">
          <mxGeometry x="522.5" y="100.5" width="28" height="28" as="geometry" />
        </mxCell>
        <mxCell id="Yx0Jhr5HA7XJ-aeyqh2g-34" value="&lt;h1 style=&quot;margin-top: 0px;&quot;&gt;Apache Airflow&lt;/h1&gt;&lt;p&gt;Containing the dag (directed acyclic graph), triggered to retrieve, transform and save the movie for the user to interact with.&lt;/p&gt;" style="text;html=1;whiteSpace=wrap;overflow=hidden;rounded=0;" parent="z4DHmxEM3Tl0a3bXThNu-6" vertex="1">
          <mxGeometry x="564" y="100.5" width="404" height="86.5" as="geometry" />
        </mxCell>
        <mxCell id="83cZS4npGuFvSxsWnx2H-8" value="Movie Retriever DAG" style="swimlane;startSize=20;horizontal=0;childLayout=treeLayout;horizontalTree=1;sortEdges=1;resizable=0;containerType=tree;fontSize=12;" parent="z4DHmxEM3Tl0a3bXThNu-6" vertex="1">
          <mxGeometry x="540.5" y="207" width="471" height="150" as="geometry" />
        </mxCell>
        <mxCell id="83cZS4npGuFvSxsWnx2H-9" value="Extract Movie" style="whiteSpace=wrap;html=1;" parent="83cZS4npGuFvSxsWnx2H-8" vertex="1">
          <mxGeometry x="40" y="24" width="100" height="40" as="geometry" />
        </mxCell>
        <mxCell id="83cZS4npGuFvSxsWnx2H-14" style="edgeStyle=orthogonalEdgeStyle;rounded=0;orthogonalLoop=1;jettySize=auto;html=1;entryX=0;entryY=0.5;entryDx=0;entryDy=0;" parent="83cZS4npGuFvSxsWnx2H-8" source="83cZS4npGuFvSxsWnx2H-10" target="83cZS4npGuFvSxsWnx2H-13" edge="1">
          <mxGeometry relative="1" as="geometry" />
        </mxCell>
        <mxCell id="83cZS4npGuFvSxsWnx2H-10" value="Process/Transform Movie" style="whiteSpace=wrap;html=1;" parent="83cZS4npGuFvSxsWnx2H-8" vertex="1">
          <mxGeometry x="190" y="20" width="111" height="48" as="geometry" />
        </mxCell>
        <mxCell id="83cZS4npGuFvSxsWnx2H-11" value="" style="edgeStyle=elbowEdgeStyle;elbow=horizontal;html=1;rounded=1;curved=0;sourcePerimeterSpacing=0;targetPerimeterSpacing=0;startSize=6;endSize=6;" parent="83cZS4npGuFvSxsWnx2H-8" source="83cZS4npGuFvSxsWnx2H-9" target="83cZS4npGuFvSxsWnx2H-10" edge="1">
          <mxGeometry relative="1" as="geometry" />
        </mxCell>
        <mxCell id="83cZS4npGuFvSxsWnx2H-12" value="" style="shape=image;html=1;verticalAlign=top;verticalLabelPosition=bottom;labelBackgroundColor=#ffffff;imageAspect=0;aspect=fixed;image=https://cdn1.iconfinder.com/data/icons/ionicons-fill-vol-2/512/logo-docker-128.png" parent="83cZS4npGuFvSxsWnx2H-8" vertex="1">
          <mxGeometry x="42.5" y="24" width="12" height="12" as="geometry" />
        </mxCell>
        <mxCell id="83cZS4npGuFvSxsWnx2H-13" value="Load Movie (DB)" style="whiteSpace=wrap;html=1;" parent="83cZS4npGuFvSxsWnx2H-8" vertex="1">
          <mxGeometry x="351" y="24" width="100" height="40" as="geometry" />
        </mxCell>
        <mxCell id="83cZS4npGuFvSxsWnx2H-15" value="" style="shape=image;html=1;verticalAlign=top;verticalLabelPosition=bottom;labelBackgroundColor=#ffffff;imageAspect=0;aspect=fixed;image=https://cdn1.iconfinder.com/data/icons/ionicons-fill-vol-2/512/logo-docker-128.png" parent="83cZS4npGuFvSxsWnx2H-8" vertex="1">
          <mxGeometry x="193" y="20" width="12" height="12" as="geometry" />
        </mxCell>
        <mxCell id="83cZS4npGuFvSxsWnx2H-17" value="" style="shape=image;html=1;verticalAlign=top;verticalLabelPosition=bottom;labelBackgroundColor=#ffffff;imageAspect=0;aspect=fixed;image=https://cdn1.iconfinder.com/data/icons/ionicons-fill-vol-2/512/logo-docker-128.png" parent="83cZS4npGuFvSxsWnx2H-8" vertex="1">
          <mxGeometry x="354" y="24" width="12" height="12" as="geometry" />
        </mxCell>
        <mxCell id="83cZS4npGuFvSxsWnx2H-18" value="ETL Pipeline for extracting, transforming and finally loading the data. The Dag is triggered manually through the Airflow API by the command line app" style="text;html=1;align=center;verticalAlign=middle;whiteSpace=wrap;rounded=0;" parent="83cZS4npGuFvSxsWnx2H-8" vertex="1">
          <mxGeometry x="87.5" y="91" width="296" height="39" as="geometry" />
        </mxCell>
        <mxCell id="JDIFeVL52Srhtq6o-eQG-1" value="&lt;h1 style=&quot;forced-color-adjust: none; color: rgb(0, 0, 0); font-family: Helvetica; font-style: normal; font-variant-ligatures: normal; font-variant-caps: normal; letter-spacing: normal; orphans: 2; text-align: left; text-indent: 0px; text-transform: none; widows: 2; word-spacing: 0px; -webkit-text-stroke-width: 0px; white-space: normal; background-color: rgb(255, 255, 255); text-decoration-thickness: initial; text-decoration-style: initial; text-decoration-color: initial; margin-top: 0px;&quot;&gt;&lt;br&gt;&lt;/h1&gt;" style="shape=ext;double=1;rounded=0;whiteSpace=wrap;html=1;" parent="z4DHmxEM3Tl0a3bXThNu-6" vertex="1">
          <mxGeometry x="9" y="846" width="309" height="370" as="geometry" />
        </mxCell>
        <mxCell id="JDIFeVL52Srhtq6o-eQG-13" value="" style="shape=image;verticalLabelPosition=bottom;labelBackgroundColor=default;verticalAlign=top;aspect=fixed;imageAspect=0;image=https://grafana.com/media/docs/loki/logo-grafana-loki.png;" parent="z4DHmxEM3Tl0a3bXThNu-6" vertex="1">
          <mxGeometry x="243.53999999999996" y="851" width="70.46" height="70.46" as="geometry" />
        </mxCell>
        <mxCell id="JDIFeVL52Srhtq6o-eQG-8" value="" style="shape=image;html=1;verticalAlign=top;verticalLabelPosition=bottom;labelBackgroundColor=#ffffff;imageAspect=0;aspect=fixed;image=https://cdn1.iconfinder.com/data/icons/ionicons-fill-vol-2/512/logo-docker-128.png" parent="z4DHmxEM3Tl0a3bXThNu-6" vertex="1">
          <mxGeometry x="14.997058823529187" y="856" width="28" height="28" as="geometry" />
        </mxCell>
        <mxCell id="JDIFeVL52Srhtq6o-eQG-14" value="&lt;h1 data-mx-given-colors=&quot;{&amp;quot;color&amp;quot;:&amp;quot;rgb(0, 0, 0)&amp;quot;,&amp;quot;background-color&amp;quot;:&amp;quot;rgb(255, 255, 255)&amp;quot;}&quot; style=&quot;forced-color-adjust: none; color: light-dark(rgb(0, 0, 0), rgb(237, 237, 237)); font-family: Helvetica; font-style: normal; font-variant-ligatures: normal; font-variant-caps: normal; letter-spacing: normal; orphans: 2; text-indent: 0px; text-transform: none; widows: 2; word-spacing: 0px; -webkit-text-stroke-width: 0px; white-space: normal; text-decoration-thickness: initial; text-decoration-style: initial; text-decoration-color: initial; text-align: left; background-color: light-dark(rgb(255, 255, 255), rgb(18, 18, 18)); margin-top: 0px;&quot;&gt;&lt;span style=&quot;forced-color-adjust: none; font-size: 25px;&quot;&gt;Loki Logging&lt;/span&gt;&lt;/h1&gt;" style="text;whiteSpace=wrap;html=1;" parent="z4DHmxEM3Tl0a3bXThNu-6" vertex="1">
          <mxGeometry x="67.54" y="859" width="176" height="44" as="geometry" />
        </mxCell>
        <mxCell id="JDIFeVL52Srhtq6o-eQG-32" value="&lt;font style=&quot;font-size: 14px;&quot;&gt;&lt;b&gt;Airflow Logs:&lt;/b&gt; Loki collects and stores logs from the Apache Airflow DAGs, providing insights into the status of data processing &lt;br&gt;tasks. It allows real-time tracking of task execution and failures, making it easier to debug any issues.&lt;br&gt;&lt;br&gt;&lt;br&gt;&lt;b&gt;FastAPI Logs:&lt;/b&gt; Loki also captures logs from the FastAPI server, allowing you to monitor requests, errors, and API interactions. This ensures that any issues with the API layer are tracked efficiently.&lt;/font&gt;" style="text;whiteSpace=wrap;html=1;" parent="z4DHmxEM3Tl0a3bXThNu-6" vertex="1">
          <mxGeometry x="29" y="923" width="274" height="270" as="geometry" />
        </mxCell>
        <mxCell id="eE7FysRdT_OkTbgdI72M-1" value="" style="verticalLabelPosition=bottom;verticalAlign=top;html=1;shape=mxgraph.basic.patternFillRect;fillStyle=diagRev;step=5;fillStrokeWidth=0.2;fillStrokeColor=#dddddd;" parent="z4DHmxEM3Tl0a3bXThNu-6" vertex="1">
          <mxGeometry x="398" y="555" width="627" height="136" as="geometry" />
        </mxCell>
        <mxCell id="eE7FysRdT_OkTbgdI72M-2" value="" style="shape=image;verticalLabelPosition=bottom;labelBackgroundColor=default;verticalAlign=top;aspect=fixed;imageAspect=0;image=https://longhorn.io/img/logos/longhorn-horizontal-color.png;" parent="z4DHmxEM3Tl0a3bXThNu-6" vertex="1">
          <mxGeometry x="423" y="564" width="149.4" height="31" as="geometry" />
        </mxCell>
        <mxCell id="eE7FysRdT_OkTbgdI72M-4" value="" style="shape=image;verticalLabelPosition=bottom;labelBackgroundColor=default;verticalAlign=top;aspect=fixed;imageAspect=0;image=https://upload.wikimedia.org/wikipedia/commons/thumb/6/67/Kubernetes_logo.svg/1280px-Kubernetes_logo.svg.png;" parent="z4DHmxEM3Tl0a3bXThNu-6" vertex="1">
          <mxGeometry x="129.6300000000001" y="399" width="788.73" height="140" as="geometry" />
        </mxCell>
        <mxCell id="eE7FysRdT_OkTbgdI72M-7" value="&lt;ul style=&quot;forced-color-adjust: none; color: rgb(0, 0, 0); font-family: Helvetica; font-size: 12px; font-style: normal; font-variant-ligatures: normal; font-variant-caps: normal; font-weight: 400; letter-spacing: normal; orphans: 2; text-align: left; text-indent: 0px; text-transform: none; widows: 2; word-spacing: 0px; -webkit-text-stroke-width: 0px; white-space: normal; background-color: rgb(255, 255, 255); text-decoration-thickness: initial; text-decoration-style: initial; text-decoration-color: initial;&quot;&gt;&lt;li style=&quot;forced-color-adjust: none;&quot;&gt;&lt;strong style=&quot;forced-color-adjust: none;&quot;&gt;Distributed Block Storage&lt;/strong&gt;: Provides reliable storage across multiple nodes, ensuring high availability in your self-hosted Kubernetes setup.&lt;/li&gt;&lt;li style=&quot;forced-color-adjust: none;&quot;&gt;&lt;strong style=&quot;forced-color-adjust: none;&quot;&gt;Snapshots &amp;amp; Backups&lt;/strong&gt;: Easily take snapshots for data backup and recovery, simplifying disaster recovery.&lt;/li&gt;&lt;li style=&quot;forced-color-adjust: none;&quot;&gt;&lt;strong style=&quot;forced-color-adjust: none;&quot;&gt;Automated Expansion&lt;/strong&gt;: Automatically scales storage as needed, reducing manual management.&lt;/li&gt;&lt;li style=&quot;forced-color-adjust: none;&quot;&gt;&lt;strong style=&quot;forced-color-adjust: none;&quot;&gt;Seamless Integration&lt;/strong&gt;: Works with Kubernetes PVs and PVCs, streamlining storage management for your workloads.&lt;/li&gt;&lt;/ul&gt;" style="text;whiteSpace=wrap;html=1;" parent="z4DHmxEM3Tl0a3bXThNu-6" vertex="1">
          <mxGeometry x="400" y="582" width="611.5" height="109" as="geometry" />
        </mxCell>
        <mxCell id="eE7FysRdT_OkTbgdI72M-10" value="" style="verticalLabelPosition=bottom;verticalAlign=top;html=1;shape=mxgraph.basic.patternFillRect;fillStyle=diagRev;step=5;fillStrokeWidth=0.2;fillStrokeColor=#dddddd;" parent="z4DHmxEM3Tl0a3bXThNu-6" vertex="1">
          <mxGeometry x="22.04" y="582" width="267" height="234" as="geometry" />
        </mxCell>
        <mxCell id="eE7FysRdT_OkTbgdI72M-11" value="" style="shape=image;verticalLabelPosition=bottom;labelBackgroundColor=default;verticalAlign=top;aspect=fixed;imageAspect=0;image=https://cleardatascience.com/wp-content/uploads/2019/05/postgresql_logo.png;" parent="z4DHmxEM3Tl0a3bXThNu-6" vertex="1">
          <mxGeometry x="55.543557692307786" y="606.9969230769232" width="200" height="184" as="geometry" />
        </mxCell>
        <mxCell id="eE7FysRdT_OkTbgdI72M-13" style="edgeStyle=orthogonalEdgeStyle;rounded=0;orthogonalLoop=1;jettySize=auto;html=1;entryX=0.024;entryY=0.509;entryDx=0;entryDy=0;entryPerimeter=0;" parent="z4DHmxEM3Tl0a3bXThNu-6" source="z4DHmxEM3Tl0a3bXThNu-53" target="Yx0Jhr5HA7XJ-aeyqh2g-31" edge="1">
          <mxGeometry relative="1" as="geometry" />
        </mxCell>
        <mxCell id="eE7FysRdT_OkTbgdI72M-14" style="edgeStyle=orthogonalEdgeStyle;rounded=0;orthogonalLoop=1;jettySize=auto;html=1;entryX=0.049;entryY=0.063;entryDx=0;entryDy=0;entryPerimeter=0;" parent="z4DHmxEM3Tl0a3bXThNu-6" source="Yx0Jhr5HA7XJ-aeyqh2g-31" target="eE7FysRdT_OkTbgdI72M-10" edge="1">
          <mxGeometry relative="1" as="geometry">
            <Array as="points">
              <mxPoint x="35" y="299" />
            </Array>
          </mxGeometry>
        </mxCell>
        <mxCell id="eE7FysRdT_OkTbgdI72M-15" value="" style="shape=flexArrow;endArrow=classic;startArrow=classic;html=1;rounded=0;" parent="z4DHmxEM3Tl0a3bXThNu-6" edge="1">
          <mxGeometry width="100" height="100" relative="1" as="geometry">
            <mxPoint x="293" y="704" as="sourcePoint" />
            <mxPoint x="393" y="604" as="targetPoint" />
          </mxGeometry>
        </mxCell>
        <mxCell id="eE7FysRdT_OkTbgdI72M-18" value="" style="shape=image;verticalLabelPosition=bottom;labelBackgroundColor=default;verticalAlign=top;aspect=fixed;imageAspect=0;image=https://upload.wikimedia.org/wikipedia/commons/thumb/6/67/Kubernetes_logo.svg/1280px-Kubernetes_logo.svg.png;rotation=90;" parent="z4DHmxEM3Tl0a3bXThNu-6" vertex="1">
          <mxGeometry x="813.63" y="816" width="642.73" height="114.08" as="geometry" />
        </mxCell>
        <mxCell id="eE7FysRdT_OkTbgdI72M-23" value="" style="group" parent="z4DHmxEM3Tl0a3bXThNu-6" vertex="1" connectable="0">
          <mxGeometry x="1091" y="53" width="86" height="122" as="geometry" />
        </mxCell>
        <mxCell id="eE7FysRdT_OkTbgdI72M-24" value="" style="fontColor=#0066CC;verticalAlign=top;verticalLabelPosition=bottom;labelPosition=center;align=center;html=1;outlineConnect=0;fillColor=#CCCCCC;strokeColor=#6881B3;gradientColor=none;gradientDirection=north;strokeWidth=2;shape=mxgraph.networks.desktop_pc;" parent="eE7FysRdT_OkTbgdI72M-23" vertex="1">
          <mxGeometry x="23" width="40" height="72" as="geometry" />
        </mxCell>
        <mxCell id="eE7FysRdT_OkTbgdI72M-25" value="&lt;font style=&quot;font-size: 18px;&quot;&gt;&lt;b&gt;node #0&lt;/b&gt;&lt;/font&gt;" style="text;html=1;align=center;verticalAlign=middle;resizable=0;points=[];autosize=1;strokeColor=none;fillColor=none;" parent="eE7FysRdT_OkTbgdI72M-23" vertex="1">
          <mxGeometry y="88" width="86" height="34" as="geometry" />
        </mxCell>
        <mxCell id="eE7FysRdT_OkTbgdI72M-26" value="" style="group" parent="z4DHmxEM3Tl0a3bXThNu-6" vertex="1" connectable="0">
          <mxGeometry x="1088" y="216" width="86" height="122" as="geometry" />
        </mxCell>
        <mxCell id="eE7FysRdT_OkTbgdI72M-27" value="" style="fontColor=#0066CC;verticalAlign=top;verticalLabelPosition=bottom;labelPosition=center;align=center;html=1;outlineConnect=0;fillColor=#CCCCCC;strokeColor=#6881B3;gradientColor=none;gradientDirection=north;strokeWidth=2;shape=mxgraph.networks.desktop_pc;" parent="eE7FysRdT_OkTbgdI72M-26" vertex="1">
          <mxGeometry x="23" width="40" height="72" as="geometry" />
        </mxCell>
        <mxCell id="eE7FysRdT_OkTbgdI72M-28" value="&lt;font style=&quot;font-size: 18px;&quot;&gt;&lt;b&gt;node #1&lt;/b&gt;&lt;/font&gt;" style="text;html=1;align=center;verticalAlign=middle;resizable=0;points=[];autosize=1;strokeColor=none;fillColor=none;" parent="eE7FysRdT_OkTbgdI72M-26" vertex="1">
          <mxGeometry y="88" width="86" height="34" as="geometry" />
        </mxCell>
        <mxCell id="eE7FysRdT_OkTbgdI72M-29" value="" style="group" parent="z4DHmxEM3Tl0a3bXThNu-6" vertex="1" connectable="0">
          <mxGeometry x="1092" y="388" width="86" height="122" as="geometry" />
        </mxCell>
        <mxCell id="eE7FysRdT_OkTbgdI72M-30" value="" style="fontColor=#0066CC;verticalAlign=top;verticalLabelPosition=bottom;labelPosition=center;align=center;html=1;outlineConnect=0;fillColor=#CCCCCC;strokeColor=#6881B3;gradientColor=none;gradientDirection=north;strokeWidth=2;shape=mxgraph.networks.desktop_pc;" parent="eE7FysRdT_OkTbgdI72M-29" vertex="1">
          <mxGeometry x="23" width="40" height="72" as="geometry" />
        </mxCell>
        <mxCell id="eE7FysRdT_OkTbgdI72M-31" value="&lt;font style=&quot;font-size: 18px;&quot;&gt;&lt;b&gt;node #2&lt;/b&gt;&lt;/font&gt;" style="text;html=1;align=center;verticalAlign=middle;resizable=0;points=[];autosize=1;strokeColor=none;fillColor=none;" parent="eE7FysRdT_OkTbgdI72M-29" vertex="1">
          <mxGeometry y="88" width="86" height="34" as="geometry" />
        </mxCell>
        <mxCell id="z4DHmxEM3Tl0a3bXThNu-64" value="" style="ellipse;shape=cloud;whiteSpace=wrap;html=1;" parent="1" vertex="1">
          <mxGeometry x="-2549" y="-458" width="184" height="136" as="geometry" />
        </mxCell>
        <mxCell id="z4DHmxEM3Tl0a3bXThNu-65" value="" style="image;aspect=fixed;perimeter=ellipsePerimeter;html=1;align=center;shadow=0;dashed=0;spacingTop=3;image=img/lib/active_directory/internet_globe.svg;direction=south;" parent="1" vertex="1">
          <mxGeometry x="-2402" y="-368" width="50" height="50" as="geometry" />
        </mxCell>
        <mxCell id="z4DHmxEM3Tl0a3bXThNu-66" value="" style="shape=image;verticalLabelPosition=bottom;labelBackgroundColor=default;verticalAlign=top;aspect=fixed;imageAspect=0;image=https://www.vectorlogo.zone/logos/cloudflare/cloudflare-ar21.svg;" parent="1" vertex="1">
          <mxGeometry x="-2509.99515625" y="-424.9984114583333" width="120" height="60" as="geometry" />
        </mxCell>
        <mxCell id="z4DHmxEM3Tl0a3bXThNu-67" value="&lt;span style=&quot;color: rgb(0, 0, 0); font-family: Helvetica; font-size: 12px; font-style: normal; font-variant-ligatures: normal; font-variant-caps: normal; font-weight: 400; letter-spacing: normal; orphans: 2; text-align: center; text-indent: 0px; text-transform: none; widows: 2; word-spacing: 0px; -webkit-text-stroke-width: 0px; white-space: normal; background-color: rgb(255, 255, 255); text-decoration-thickness: initial; text-decoration-style: initial; text-decoration-color: initial; display: inline !important; float: none;&quot;&gt;Cloudflare CDN&lt;/span&gt;" style="text;whiteSpace=wrap;html=1;" parent="1" vertex="1">
          <mxGeometry x="-2496.99515625" y="-373.0034114583333" width="112" height="36" as="geometry" />
        </mxCell>
        <mxCell id="Yx0Jhr5HA7XJ-aeyqh2g-18" value="" style="endArrow=classic;html=1;rounded=0;entryX=0.16;entryY=0.55;entryDx=0;entryDy=0;entryPerimeter=0;" parent="1" source="z4DHmxEM3Tl0a3bXThNu-1" target="z4DHmxEM3Tl0a3bXThNu-64" edge="1">
          <mxGeometry relative="1" as="geometry">
            <mxPoint x="-2615" y="-279" as="sourcePoint" />
            <mxPoint x="-2455" y="-279" as="targetPoint" />
          </mxGeometry>
        </mxCell>
        <mxCell id="Yx0Jhr5HA7XJ-aeyqh2g-19" value="&lt;font style=&quot;font-size: 14px;&quot;&gt;&lt;b&gt;Request&lt;/b&gt;&lt;/font&gt;" style="edgeLabel;resizable=0;html=1;;align=center;verticalAlign=middle;" parent="Yx0Jhr5HA7XJ-aeyqh2g-18" connectable="0" vertex="1">
          <mxGeometry relative="1" as="geometry" />
        </mxCell>
        <mxCell id="Yx0Jhr5HA7XJ-aeyqh2g-22" style="edgeStyle=orthogonalEdgeStyle;rounded=0;orthogonalLoop=1;jettySize=auto;html=1;entryX=0.084;entryY=0.114;entryDx=0;entryDy=0;entryPerimeter=0;exitX=0.888;exitY=0.503;exitDx=0;exitDy=0;exitPerimeter=0;" parent="1" source="z4DHmxEM3Tl0a3bXThNu-64" target="z4DHmxEM3Tl0a3bXThNu-16" edge="1">
          <mxGeometry relative="1" as="geometry">
            <mxPoint x="-2390" y="-395" as="sourcePoint" />
          </mxGeometry>
        </mxCell>
      </root>
    </mxGraphModel>
  </diagram>
</mxfile>
